<svg xmlns="http://www.w3.org/2000/svg" width="68" height="58" viewBox="0 0 68 58">
    <path fill="#FFF" d="M58.397 36.828c4.79 10.1 6.33 18.964 4.633 19.929-.185.102-.393.155-.604.154-2.605 0-7.99-6.443-12.915-15.433l8.886-4.65zM36.705 38.46l-9.239 9.104c2.728 1.972 5.897 3.262 9.237 3.763l.002-12.867zM18.98 33.76c.52 3.394 1.88 6.609 3.96 9.358l9.5-9.357h-13.46zm24.132 17.615c3.155-.478 6.157-1.662 8.778-3.464 1.144 1.777 2.381 3.493 3.706 5.142-8.416 5.796-19.395 6.478-28.479 1.77-9.083-4.709-14.762-14.026-14.73-24.168v-1.1l6.622-2.045h19.81l13.764-13.553c-7.565-5.646-18.01-5.603-25.526.106l-1.366-6.694c10.93-6.545 24.98-4.777 33.901 4.268 8.923 9.045 10.364 22.979 3.476 33.622-.886-2.728-1.929-5.404-3.121-8.015 2.135-6.368 1.046-13.363-2.927-18.8L43.054 32.255v19.07l.059.049zm1.2-18.579l4.877-4.822c1.246.897 2.441 1.863 3.579 2.893 0 0-4 7.524-5.277 9.356-1.09-.315-2.155-.705-3.19-1.166l.01-6.26zM25.847 14.508c-5.49-2.267-10.378-3.868-12.543-4.196L12.905 0l11.412 6.955 1.53 7.515.002.038zm-6.808 11.72l-7.636 2.315L0 22.928l9.09-5.19c3.022 3.166 6.37 6.011 9.988 8.49h-.038zm-7.764-7.987l-.546-.54c-.312-.367-.654-.734-.975-1.11l2.887-5.015h.508l.331.076h.224l.36.088.284.067.4.106.33.086.45.126.39.116.917.29c.153.039.303.087.449.144l.556.183.341.116c2.097.704 4.633 1.65 7.384 2.768l1.405.579.438.183c4.773 1.99 9.442 4.219 13.988 6.675l-3.103 3.058H21.255l-1.141-.8c-2.224-1.572-4.341-3.194-6.223-4.823-.283-.242-.556-.473-.82-.715l-.448-.414c-.254-.222-.547-.501-.742-.685-.195-.183-.38-.367-.566-.56h-.039z"/>
</svg>
