<svg width="168" height="192" viewBox="0 0 168 192" fill="none" xmlns="http://www.w3.org/2000/svg">
<path d="M157.296 75.713C146.644 76.7512 135.917 76.7512 125.266 75.713C116.39 74.7381 90.3757 74.8948 84.7846 75.4867C81.9341 75.7493 79.0672 75.7813 76.2116 75.5825C72.2674 75.3561 70.6898 73.6762 70.7245 69.7852C70.7467 67.8368 70.5695 65.8913 70.1957 63.9793C69.6409 61.2112 70.7851 59.5313 73.4984 58.9742C75.5393 58.4943 77.6197 58.2029 79.7136 58.1037C88.9847 57.6791 98.2724 57.7925 107.53 58.4432C113.876 58.9481 122.007 57.4248 128.395 57.4161C132.816 57.4161 139.933 57.4161 143.834 57.4161C151.549 57.4161 154.782 57.8774 157.963 57.8339C160.244 57.8823 162.497 58.3484 164.612 59.2092C166.094 62.6301 166.753 70.3423 165.877 72.7796C163.546 74.1201 160.243 76.5835 157.296 75.713Z" fill="black"/>
<path d="M157.296 75.713C146.644 76.7512 135.917 76.7512 125.266 75.713C116.39 74.7381 90.3757 74.8948 84.7846 75.4867C81.9341 75.7493 79.0672 75.7813 76.2116 75.5825C72.2674 75.3561 70.6898 73.6762 70.7245 69.7852C70.7467 67.8368 70.5695 65.8913 70.1957 63.9793C69.6409 61.2112 70.7851 59.5313 73.4984 58.9742C75.5393 58.4943 77.6197 58.2029 79.7136 58.1037C88.9847 57.6791 98.2724 57.7925 107.53 58.4432C113.876 58.9481 122.007 57.4248 128.395 57.4161C132.816 57.4161 139.933 57.4161 143.834 57.4161C151.549 57.4161 154.782 57.8774 157.963 57.8339C160.244 57.8823 162.497 58.3484 164.612 59.2092C166.094 62.6301 166.753 70.3423 165.877 72.7796C163.546 74.1201 160.243 76.5835 157.296 75.713Z" fill="black"/>
<path d="M52.9196 27.2548C52.3388 24.9916 52.8069 22.9634 53.3963 20.8308C53.7462 19.3235 53.7963 17.7616 53.5437 16.2348C53.3848 14.6639 53.0712 13.1127 52.6075 11.604C52.0915 9.65272 51.93 7.62404 52.1308 5.61524C52.2105 5.06054 52.163 4.49488 51.9921 3.96138C51.7667 3.4217 51.9054 3.01258 52.5989 2.97776C52.894 2.98411 53.1858 2.91469 53.4467 2.77606C53.7077 2.63744 53.929 2.43422 54.0898 2.18565C54.4452 1.59374 55.234 1.78524 55.5808 1.82006C57.6265 2.04638 59.7069 1.60244 61.7353 2.22047C61.9423 2.24258 62.1371 2.32918 62.2926 2.46811C62.448 2.60704 62.5563 2.79134 62.6022 2.99517C63.1984 5.60429 63.2632 8.3075 62.7929 10.9424C62.7213 11.3239 62.7009 11.7132 62.7322 12.1001C63.1326 16.0568 63.0773 20.0466 62.5675 23.9906C62.163 26.8501 62.1397 29.751 62.4982 32.6168C62.8622 34.8539 62.3508 37.117 62.2728 39.3628C62.2041 39.9011 61.9383 40.3945 61.5273 40.7468C60.8858 41.3387 60.5998 40.5727 60.2184 40.1375C59.7849 40.8339 59.2215 40.8513 58.4847 40.6772C57.9266 40.4633 57.3305 40.3676 56.7338 40.3961C56.1371 40.4246 55.5527 40.5766 55.0173 40.8426C53.8211 41.5389 52.7549 40.7033 51.7147 40.2333C51.5882 40.1647 51.4467 40.1288 51.3029 40.1288C51.1592 40.1288 51.0177 40.1647 50.8912 40.2333C50.215 40.5205 49.6169 40.0853 48.9928 39.9112C48.9061 39.9112 48.7674 39.7371 48.7761 39.711C49.5476 38.3357 48.126 37.6306 47.7186 36.6818C47.2418 35.5502 46.8517 34.1836 45.5688 33.5308C45.1787 33.3306 45.4041 32.7212 45.1094 32.3818C44.8146 32.3818 45.1874 32.8953 44.7713 32.8344C44.3552 32.7735 44.4332 32.5036 44.4419 32.2773C44.4419 30.6321 43.4884 29.5702 42.3528 28.6127C42.2225 28.5056 42.1162 28.3721 42.0408 28.221C41.8622 27.7784 41.5921 27.3788 41.2484 27.0487C40.9048 26.7186 40.4953 26.4655 40.047 26.306C40.0079 27.0047 40.0079 27.7051 40.047 28.4038C40.3083 30.769 40.2442 33.1591 39.8563 35.5067C39.5096 37.5958 38.8335 39.6501 36.6057 40.5989C35.4441 41.0863 33.5197 40.4683 32.4882 39.7284C31.371 38.9267 30.5049 37.8215 29.9917 36.5425C29.7759 36.1396 29.6739 35.6851 29.697 35.2281C29.7883 33.9275 29.8144 32.6231 29.775 31.3198C29.775 24.4693 30.0957 17.6362 30.5552 10.8032C30.7199 8.37459 30.8152 5.94602 30.9886 3.51745C31.0753 2.31622 31.318 2.34233 32.5489 2.24658C33.7561 2.18514 34.9372 1.87085 36.0162 1.3239C37.7499 0.357691 38.5387 0.331578 39.761 1.92451C40.8475 3.39775 41.8211 4.95162 42.6736 6.57274C44.7366 10.3157 46.0976 14.4068 47.8746 18.2456C48.8628 20.413 50.1717 22.4324 51.3419 24.5128C51.7845 25.4727 52.3125 26.3904 52.9196 27.2548Z" fill="#8A1538"/>
<path d="M22.1642 64.4842C21.8737 63.3065 21.8737 62.0755 22.1642 60.8979C22.25 60.025 22.2003 59.1441 22.0168 58.2865C21.7654 56.6675 20.8726 55.2399 20.8032 53.5686C20.867 52.8909 20.7812 52.2073 20.5518 51.5666C20.4652 51.3925 20.5518 51.2358 20.7685 51.1923C20.9681 51.1715 21.1602 51.105 21.33 50.9978C21.4998 50.8907 21.6429 50.7458 21.7481 50.5743C21.8868 50.3305 22.2768 50.3828 22.4589 50.3828C23.5771 50.3828 24.678 50.0868 25.7962 50.2957C25.9369 50.3034 26.0714 50.3568 26.1792 50.4479C26.2871 50.5389 26.3626 50.6627 26.3943 50.8006C26.8273 52.1987 26.9834 53.6684 26.8538 55.1268C26.8293 55.3146 26.8293 55.5048 26.8538 55.6926C27.252 57.8473 27.409 60.0399 27.3218 62.2297C27.2335 63.8335 27.3677 65.4418 27.7206 67.0085C27.8985 68.2389 27.9682 69.4826 27.9286 70.7253C27.9224 71.0158 27.8115 71.2941 27.6166 71.5087C27.3132 71.8917 27.1051 71.5087 26.8711 71.2476C26.663 71.7002 26.3076 71.6828 25.9002 71.6219C25.5927 71.538 25.2715 71.5172 24.9558 71.5605C24.6401 71.6039 24.3363 71.7106 24.0625 71.8743C23.4384 72.3183 22.8143 71.8743 22.2162 71.7089C22.1474 71.67 22.0697 71.6496 21.9908 71.6496C21.9118 71.6496 21.8342 71.67 21.7654 71.7089C21.41 71.9179 21.0633 71.7089 20.7079 71.6306C20.6645 71.6306 20.5432 71.6306 20.5865 71.4826C20.8639 70.6557 20.0231 70.351 19.7197 69.7417C19.5094 69.0916 19.0598 68.5467 18.4628 68.2184C18.3934 68.2184 18.3501 68.0617 18.3241 67.966C18.2981 67.8702 18.3241 67.6874 18.1854 67.67C18.0467 67.6526 18.2374 67.8615 18.09 67.8963C17.804 67.9486 17.8213 67.731 17.8126 67.5656C17.7391 67.1872 17.5898 66.8277 17.3737 66.509C17.1576 66.1903 16.8793 65.919 16.5557 65.7115C16.4638 65.6557 16.3793 65.5885 16.3043 65.5113C16.0183 65.1109 15.7929 64.6408 15.1948 64.5886C15.1876 65.4347 15.2573 66.2796 15.4028 67.1129C15.4028 67.2261 15.4808 67.3393 15.4808 67.4524C15.5644 68.8254 15.3879 70.2018 14.9607 71.5087C14.7418 71.9333 14.3927 72.2759 13.965 72.4859C13.5373 72.696 13.0537 72.7623 12.5856 72.6751C12.09 72.5751 11.6221 72.3675 11.2148 72.0667C10.8075 71.766 10.4706 71.3795 10.2278 70.9342C9.91203 70.3389 9.77077 69.6658 9.82037 68.9931C9.80083 68.6457 9.7603 68.2998 9.69902 67.9573C9.36962 64.1447 9.23092 60.3147 9.16158 56.4847C9.16158 55.1442 9.08356 53.8037 9.06622 52.4632C9.06622 51.7842 9.18758 51.7842 9.85505 51.6798C10.5076 51.5877 11.1354 51.3658 11.7014 51.0269C12.6376 50.4002 13.071 50.3567 13.8252 51.2097C14.4559 51.9585 15.0352 52.7495 15.5588 53.5773C16.8591 55.5359 17.7953 57.6946 18.9395 59.7402C19.581 60.8892 20.3958 61.9337 21.1326 63.0218C21.5227 63.5267 21.8434 64.0054 22.1642 64.4842Z" fill="black"/>
<path d="M123.255 22.9199C123.394 22.4325 123.914 22.4586 123.992 21.9972C123.082 22.1017 122.735 22.9983 122.015 23.3116C121.868 23.3725 121.773 23.6076 121.634 23.6337C121.495 23.6598 121.07 23.2681 120.932 23.6946C120.793 24.1211 121.166 24.3388 121.435 24.5651C124.61 27.4162 127.324 30.7464 129.479 34.436C129.859 34.9749 130.079 35.6113 130.113 36.271C130.147 36.9307 129.993 37.5864 129.669 38.1616C129.435 38.7563 129.12 39.3158 128.733 39.8242C128.161 40.4248 127.598 41.1124 126.592 40.6946C126.242 40.5921 125.874 40.5671 125.513 40.6212C125.153 40.6753 124.808 40.8072 124.503 41.008C124.18 41.1888 123.801 41.2408 123.441 41.1537C123.081 41.0666 122.767 40.8468 122.561 40.5379C121.617 39.5543 120.715 38.5272 119.831 37.4826C118.184 35.5154 116.563 33.5308 114.933 31.5461C113.78 30.136 112.922 28.4821 111.414 27.0633C111.379 27.7447 111.379 28.4275 111.414 29.1089C111.631 31.2589 111.553 33.4089 111.596 35.5589C111.666 36.2231 111.538 36.8931 111.23 37.4848C110.921 38.0764 110.446 38.5633 109.862 38.8841C109.359 39.1887 108.337 39.0408 108.259 40.0157C107.678 39.5021 107.036 40.4596 106.386 39.8764C105.866 39.4151 105.251 40.2159 104.557 39.9896C104.218 39.9145 103.899 39.7698 103.618 39.5646C103.338 39.3593 103.102 39.098 102.928 38.797C102.849 38.5679 102.757 38.3441 102.65 38.1268C101.211 36.0377 101.124 35.8288 100.916 33.7049C100.44 28.6214 99.7809 23.5553 100.197 18.4197C100.535 14.2763 100.63 10.1155 100.804 5.95473C100.852 5.03947 100.997 4.13199 101.237 3.24761C101.339 2.64324 101.649 2.09405 102.113 1.6962C102.578 1.29836 103.167 1.07721 103.777 1.07147C106.491 0.701972 109.23 0.544817 111.969 0.601426C111.301 0.766813 120.81 1.47188 121.816 1.6895C123.628 2.15084 125.5 2.43809 127.112 3.56968C131.29 6.49441 132.01 10.2809 130.58 14.8334C129.565 18.263 126.826 21.0571 123.255 22.9199ZM110.348 12.0044C110.348 12.7443 110.348 13.4842 110.348 14.2241C110.348 14.7899 110.521 14.9552 111.093 14.8856C112.203 14.7376 113.33 14.7028 114.43 14.5461C116.476 14.2502 118.505 13.9194 119.892 12.1001C120.093 11.8556 120.23 11.5637 120.289 11.2516C120.349 10.9396 120.328 10.6176 120.23 10.3157C120.048 9.70639 119.363 9.73251 118.895 9.68898C116.878 9.5265 114.855 9.38723 112.827 9.27117C110.348 9.13189 110.348 9.1493 110.348 11.5779V12.0044Z" fill="#8A1538"/>
<path d="M96.2008 102.993C96.2789 102.558 94.7706 103.602 94.6319 103.637C93.765 103.872 93.765 103.907 94.3545 104.508C97.2604 107.302 99.7168 110.532 101.636 114.083C101.974 114.596 102.162 115.195 102.177 115.811C102.193 116.427 102.035 117.035 101.723 117.565C101.487 118.124 101.171 118.645 100.786 119.114C100.188 119.688 99.6075 120.324 98.6453 119.915C98.3329 119.819 98.004 119.79 97.6798 119.831C97.3557 119.871 97.0438 119.98 96.7643 120.15C96.4364 120.311 96.0607 120.344 95.71 120.242C95.3593 120.141 95.0586 119.913 94.8659 119.601C94.0337 118.656 93.2334 117.686 92.4648 116.694C90.9998 114.814 89.5695 112.89 88.1306 111.01C87.1424 109.748 86.4489 108.286 85.374 107.093C85.2527 106.954 85.192 106.736 85.0186 106.719L84.8106 112.742C84.8106 113.439 84.8106 114.144 84.7499 114.84C84.741 115.422 84.5751 115.991 84.2698 116.486C83.9646 116.981 83.5313 117.384 83.0162 117.652C82.5135 117.965 81.5513 117.73 81.4559 118.661C81.0225 118.487 80.4157 118.801 80.2163 118.661C79.3495 118.13 78.3873 118.809 77.6158 118.435C77.3581 118.353 77.1219 118.214 76.924 118.029C76.7261 117.844 76.5716 117.617 76.4716 117.364C76.4236 117.103 76.3297 116.853 76.1942 116.624C74.8939 114.762 74.8766 114.727 74.7553 112.69C74.4605 107.807 73.9838 102.941 74.5559 98.0402C75.0153 94.1406 75.2493 90.2061 75.5441 86.2978C75.618 85.4103 75.7925 84.5342 76.0642 83.6864C76.1742 83.1608 76.459 82.6884 76.8717 82.3467C77.2844 82.0051 77.8005 81.8145 78.3353 81.8062C85.166 80.9358 94.6752 82.6767 95.5334 82.9552C97.9258 83.6429 100.275 84.3306 102.017 86.3413C104.184 88.8482 104.392 91.6772 103.656 94.6977C103.265 96.4659 102.36 98.0778 101.055 99.3285C99.5815 100.739 98.2206 102.288 96.2008 102.993ZM84.2991 92.3649C84.2991 93.0003 84.2991 93.627 84.2298 94.2625C84.1604 94.8979 84.2905 95.1329 84.9753 95.0285C85.9895 94.9066 87.021 94.9327 88.0439 94.8283C89.9769 94.628 91.8926 94.3669 93.2449 92.7217C93.4442 92.4982 93.5856 92.2287 93.6567 91.9373C93.7277 91.6458 93.7262 91.3412 93.6523 91.0505C93.5136 90.4586 92.9069 90.4499 92.4301 90.3976C90.5664 90.1713 88.694 89.9885 86.8216 89.8057C84.3685 89.562 84.3685 89.5707 84.2731 92.0689C84.3078 92.1647 84.3078 92.2517 84.2991 92.3649Z" fill="black"/>
<path d="M59.0048 68.7494C57.6809 68.8948 56.3483 68.9442 55.0173 68.8974C53.7515 68.7644 52.5436 68.2962 51.5171 67.5407C50.4905 66.7851 49.6823 65.7694 49.1749 64.5973C48.5767 63.4135 48.0133 62.1949 47.5019 60.9675C47.2164 60.1288 47.1216 59.2365 47.2245 58.3561C47.4631 56.1072 48.2555 53.9534 49.5303 52.0889C50.089 51.0829 50.8028 50.1721 51.6453 49.3905C53.431 47.7975 55.4074 46.457 57.9733 46.7269C59.7245 46.7861 61.4546 47.13 63.0963 47.7453C63.6047 48.0374 64.0914 48.3662 64.5526 48.7289C65.4403 49.3323 66.1834 50.1261 66.7283 51.053C67.3868 51.9444 67.8263 52.9793 68.0113 54.0735C68.0979 54.8569 68.0113 55.649 68.0113 56.4412C67.9882 58.2998 67.6451 60.1404 66.9971 61.8815C66.8237 62.4125 66.7283 62.9696 66.503 63.4918C65.7401 65.2327 64.2232 66.286 62.7669 67.3741C61.7039 68.2467 60.3777 68.7316 59.0048 68.7494ZM63.261 55.1616C63.1791 54.9769 63.1068 54.788 63.0443 54.5958C62.6501 53.5173 61.9127 52.5995 60.9465 51.9844C60.6115 51.7331 60.211 51.5849 59.7936 51.5579C58.9624 51.5068 58.1281 51.5477 57.3058 51.6798C56.8511 51.6904 56.4082 51.8269 56.0258 52.0742C55.6434 52.3214 55.3365 52.6699 55.1387 53.0812C54.6706 54.1431 54.1592 55.1877 53.6477 56.2235C53.1002 57.2364 52.8877 58.3978 53.041 59.54C53.2304 60.3137 53.4976 61.0662 53.8384 61.7857C54.0501 62.3165 54.4062 62.7768 54.8661 63.1139C55.326 63.451 55.871 63.6513 56.439 63.692C57.1343 63.7443 57.8327 63.7443 58.528 63.692C59.0797 63.6894 59.6243 63.5667 60.1241 63.3322C60.624 63.0978 61.0672 62.7573 61.4233 62.3341C62.3474 61.1602 63.0096 59.8007 63.365 58.3475C63.3829 58.1942 63.3829 58.0394 63.365 57.8861C63.365 57.5901 62.9749 57.3029 63.469 56.9547C63.7637 56.7545 63.469 55.266 63.235 54.7786L63.261 55.1616Z" fill="black"/>
<path d="M48.7588 168.208C49.3742 168.39 48.6981 170.688 48.2994 170.227C48.2213 170.227 48.0913 170.227 48.048 170.305C46.0196 173.221 42.6389 174.388 40.0211 176.547C38.2188 178.22 36.1906 179.629 33.9965 180.734C32.4449 181.412 30.8152 181.125 29.2636 181.778C27.2699 182.649 25.1461 183.023 23.1957 184.059C21.5487 184.929 19.4076 184.015 17.5179 183.693C14.2499 183.136 11.2073 181.63 7.80067 181.526C5.70292 181.465 5.96297 179.428 6.06699 178.27C6.4744 174.936 5.61623 171.811 4.9401 168.695C4.55002 166.858 5.20015 165.213 5.45153 163.516C5.52566 162.883 5.55751 162.246 5.54689 161.61C5.54689 158.624 5.25216 155.673 5.1308 152.722C5.08509 150.866 5.25675 149.011 5.64224 147.195C5.82427 146.281 5.50354 145.323 6.08433 144.436C6.18835 146.176 6.68244 142.277 6.51774 142.773C6.29913 141.883 6.17133 140.973 6.13634 140.057C6.40963 134.732 7.05557 129.432 8.06939 124.197C8.1474 123.806 8.39878 123.449 8.5028 123.057C8.73685 122.23 9.87241 121.525 8.43346 120.533C7.72265 120.037 8.92756 118.844 10.1671 118.635C12.1955 118.296 14.3193 118.418 16.235 117.634C17.7519 117.07 19.3734 116.848 20.9853 116.981C27.1225 117.147 32.9823 118.766 38.8595 120.298C43.6531 121.551 47.1118 124.737 50.6312 128.132C53.4397 130.839 54.5059 134.225 55.9362 137.472C56.8942 139.485 57.413 141.68 57.4578 143.911C57.5027 146.142 57.0726 148.357 56.1963 150.407C56.0576 150.738 56.1963 151.182 55.4508 150.851C54.7053 150.52 54.9133 151.512 54.8527 151.869C54.2632 155.212 53.7258 158.572 52.1395 161.636C51.2033 163.446 49.7383 164.943 49.1489 166.937C49.0102 167.32 48.8975 167.703 48.7588 168.208ZM23.1437 158.511C23.0484 159.851 22.953 161.2 22.8663 162.55C22.7103 165.03 24.4873 166.327 26.8711 165.414C27.946 165.013 28.9429 164.36 30.0351 164.047C33.043 163.176 34.8807 160.931 36.259 158.459C37.8801 155.329 38.9283 151.933 39.3536 148.431C39.4229 147.935 39.657 147.256 39.1455 146.951C37.958 146.255 37.7066 145.21 37.6546 143.965C37.6138 141.897 36.76 139.929 35.2794 138.49C32.2628 135.548 28.2407 135.008 24.4526 133.929C23.5858 133.685 23.4384 134.042 23.4384 134.8C23.4384 136.375 23.3431 137.959 23.3864 139.544C23.5251 145.863 23.4298 152.183 23.1437 158.511Z" fill="#8A1538"/>
<path d="M55.1127 181.439C54.0465 182.257 53.3097 181.943 52.8589 180.794C52.8589 180.742 52.8589 180.638 52.8589 180.629C51.3766 179.854 50.189 178.888 51.0732 176.703C49.8076 177.339 49.877 178.444 48.9581 178.958C49.3309 177.008 50.5705 175.589 51.2986 173.944C52.8329 170.462 54.2545 166.98 55.9709 163.577C58.8291 157.755 62.0275 152.107 65.5494 146.664C68.5274 142.125 71.2366 137.413 73.663 132.554C75.5181 128.898 77.7285 125.433 79.7309 121.865C79.9253 121.534 80.2177 121.272 80.5673 121.116C80.917 120.96 81.3064 120.917 81.6813 120.994C84.5419 121.49 87.4631 121.603 90.2456 122.631C91.3584 123.14 92.2898 123.978 92.9155 125.033C94.0857 126.635 95.0393 128.393 96.0795 130.082C97.4297 132.515 98.5416 135.075 99.3995 137.724C102.797 146.707 105.909 155.795 109.021 164.883C109.585 166.528 110.755 168.26 109.273 170.149C108.805 170.758 109.351 171.646 109.715 172.299C111.509 175.511 111.639 179.132 112.315 182.631C112.593 184.12 110.989 184.198 110.469 185.129C110.083 185.847 109.508 186.443 108.805 186.851C108.103 187.26 107.302 187.465 106.49 187.445C105.97 187.514 105.472 187.702 105.034 187.993C103.604 188.759 98.7233 188.333 97.7091 187.123C96.8702 186.07 96.1681 184.915 95.6201 183.684C94.5053 181.566 93.5799 179.352 92.8548 177.069C92.2914 174.91 90.8351 174.753 89.3095 175.006C87.2314 175.277 85.1307 175.326 83.0422 175.154C79.2455 174.962 75.4487 175.154 71.6606 175.102C71.1404 175.048 70.6174 175.172 70.1756 175.453C69.7339 175.734 69.399 176.156 69.2248 176.651C67.6992 179.968 65.3327 182.744 63.1569 185.643C61.4233 187.958 60.2097 187.793 58.4587 185.33C58.346 185.173 58.0773 185.121 57.8692 185.06C55.5201 184.346 55.1994 183.954 55.1127 181.439ZM84.4032 141.145C81.9153 146.908 80.069 152.461 77.4685 157.588C77.087 158.354 77.4078 158.615 78.1879 158.667C81.2132 158.868 84.2558 159.077 87.2637 159.32C88.0092 159.373 88.382 159.242 88.1912 158.398L84.4032 141.145Z" fill="#8A1538"/>
<path d="M24.9034 32.6951C25.2068 33.1478 25.9349 32.6951 26.195 33.3567C26.2643 33.5308 26.7931 33.4872 26.7757 33.8354C26.7584 34.1836 26.299 34.1488 26.0303 34.2532L25.6835 34.3838C26.299 34.6623 27.0965 34.8626 27.1485 35.4893C27.2525 36.6818 25.9349 36.0377 25.4148 36.6122C26.0963 36.7083 26.7877 36.7083 27.4692 36.6122L26.0303 37.3956L26.5677 37.5784C25.8916 38.8666 24.4353 39.18 23.3344 39.9808C22.8274 40.339 22.2533 40.59 21.6469 40.7187C21.0404 40.8474 20.4143 40.851 19.8064 40.7294C18.0709 40.4401 16.3066 40.367 14.5533 40.5118C12.3342 40.6163 10.1151 40.5989 7.91333 40.7729C6.80588 40.969 5.68318 41.0651 4.55867 41.0602C3.96708 41.0564 3.39249 40.8611 2.92034 40.5031C1.18666 39.0756 0.796587 37.1519 0.657893 35.0802C0.484525 32.3121 0.198469 29.5528 0.0944482 26.7934C0.0164761 25.6317 0.0571405 24.465 0.215806 23.3116C0.486388 21.2871 0.454249 19.2334 0.120453 17.2184C-0.0401511 15.3882 -0.0401511 13.5474 0.120453 11.7171C0.186035 9.85603 0.509887 8.01321 1.08264 6.24197C1.42071 5.26706 0.935282 4.28345 1.23867 3.30854C1.36003 2.92553 1.38604 2.55124 1.83679 2.43808C4.8794 1.61985 7.88733 0.488259 11.0773 0.531782C14.5446 0.584009 18.012 0.444736 21.3927 0.801623C22.6496 0.932192 23.9065 0.679759 25.1634 1.1324C25.9024 1.31867 26.5767 1.7039 27.1138 2.24658C27.6347 2.77042 28.1267 3.32254 28.5874 3.90045C28.8372 4.22511 29.0072 4.6043 29.0838 5.00727C29.1604 5.41024 29.1413 5.82567 29.0282 6.21987C28.9151 6.61407 28.7111 6.97597 28.4327 7.27622C28.1543 7.57647 27.8094 7.80664 27.4259 7.94806C26.5529 8.36669 25.7442 8.909 25.0247 9.55841C24.4054 10.0798 23.6128 10.3471 22.8056 10.307C20.3104 10.1965 17.8155 10.5325 15.4375 11.2993C14.0428 11.6797 12.6 11.8527 11.1553 11.8129C10.2885 11.8129 10.1238 12.222 10.2365 12.9184C10.4282 14.0332 10.4951 15.166 10.4358 16.2957C10.4358 17.0095 10.7219 17.1662 11.3547 17.2358C12.7069 17.3055 14.0592 17.4447 15.4202 17.5492C15.4202 17.9061 14.9954 17.5492 15.0041 17.9235C15.5689 18.0956 16.1499 18.2094 16.7377 18.263C16.7377 18.9245 16.0443 18.8375 15.8709 19.264C15.9403 19.6209 16.235 19.499 16.4517 19.5425C17.1972 19.7079 17.4486 20.2041 16.9631 20.7089C16.6684 21.0223 16.9631 20.944 17.0758 20.9962C17.3185 21.1616 17.2839 21.4053 17.3619 21.6229C17.6133 22.3367 17.5526 22.7806 16.8331 23.0592C17.3792 24.1734 16.3477 24.5999 15.8709 25.2614C15.1168 26.306 13.9725 26.4191 12.8023 26.5932C10.8519 26.8892 11.2073 26.5932 11.2073 28.4038C11.2073 29.2742 10.8259 30.5277 11.4327 30.9194C12.1782 31.4068 13.3657 31.2502 14.3713 31.2937C14.8621 31.2892 15.3508 31.2279 15.8276 31.1109C17.1383 30.8354 18.49 30.8206 19.8064 31.0674C21.5922 31.4197 23.3946 31.6812 25.2068 31.8508C25.3455 31.8508 25.5708 32.0597 25.5708 32.1641C25.5708 32.5558 25.1201 32.4949 24.9034 32.6951Z" fill="#8A1538"/>
<path d="M146.911 100.408C146.972 101.061 146.139 100.895 146.044 101.4C146.321 101.792 146.911 101.4 147.162 101.914C147.327 102.218 147.656 102.436 147.162 102.697C146.998 102.784 146.703 102.81 147.11 103.002C147.353 103.115 147.336 103.333 147.396 103.594C147.526 104.247 147.561 104.708 146.842 104.934C147.31 105.996 146.33 106.37 145.862 106.98C145.108 107.937 144.033 108.016 142.923 108.138C141.06 108.346 141.406 108.138 141.346 109.783C141.346 110.653 140.921 111.802 141.467 112.168C142.204 112.655 143.348 112.559 144.328 112.62C144.926 112.643 145.525 112.596 146.113 112.481C147.497 112.303 148.903 112.434 150.231 112.864C151.454 113.14 152.693 113.338 153.941 113.456C154.262 113.508 154.704 113.456 154.808 113.822C154.912 114.187 154.374 114.135 154.166 114.318C154.487 114.727 155.163 114.483 155.449 115.023C155.51 115.153 155.917 115.188 155.9 115.449C155.883 115.71 155.536 115.763 155.285 115.806C155.123 115.838 154.964 115.878 154.808 115.928C155.432 116.207 156.169 116.45 156.195 117.025C156.255 118.139 155.059 117.538 154.461 118.017C155.105 118.136 155.763 118.15 156.411 118.061L155.051 118.748L155.536 118.94C154.86 120.132 153.473 120.385 152.415 121.099C151.905 121.423 151.335 121.64 150.74 121.739C150.144 121.838 149.535 121.815 148.948 121.673C147.219 121.333 145.454 121.213 143.695 121.316C141.771 121.316 139.846 121.316 137.922 121.316C136.866 121.447 135.804 121.519 134.74 121.534C134.254 121.482 133.785 121.321 133.368 121.063C132.951 120.806 132.597 120.458 132.331 120.045C131.446 118.797 131.037 117.271 131.178 115.745C131.178 113.134 130.753 110.592 130.9 107.998C130.902 106.833 130.983 105.67 131.143 104.516C131.452 102.657 131.484 100.762 131.238 98.8933C131.106 97.128 131.164 95.3536 131.412 93.6009C131.578 91.8437 131.956 90.1133 132.539 88.4478C132.859 87.5773 132.435 86.6634 132.764 85.7842C132.894 85.436 132.92 85.0704 133.345 84.966C136.309 84.2783 139.248 83.3121 142.325 83.4862C145.403 83.6603 148.697 83.6342 151.861 84.0781C152.935 84.2261 154.019 84.1565 155.12 84.4089C157.001 84.8441 157.85 86.3152 158.769 87.6818C159.463 88.7089 158.605 90.7545 157.33 91.0418C156.464 91.3282 155.673 91.8073 155.016 92.4432C154.417 92.9181 153.661 93.1455 152.901 93.0786C150.549 92.8913 148.183 93.1271 145.914 93.775C144.584 94.0796 143.219 94.1939 141.857 94.1145C141.155 94.1145 140.843 94.3408 140.93 94.9849C141.064 96.1404 141.096 97.3056 141.025 98.4668C141.025 98.9281 141.181 99.1109 141.641 99.1631C142.984 99.3024 144.319 99.4765 145.862 99.6593L144.995 99.9726L146.911 100.408Z" fill="black"/>
<path d="M30.8586 85.2881C31.0255 85.5708 31.1164 85.8922 31.1224 86.2208C31.1284 86.5494 31.0494 86.8739 30.8929 87.1626C30.7365 87.4513 30.5081 87.6942 30.2301 87.8677C29.9521 88.0411 29.634 88.139 29.3069 88.1519C25.2848 88.4739 21.28 87.8994 17.2579 88.0561C16.391 88.0561 16.1916 88.4043 16.287 89.1703C16.391 90.093 16.4864 91.0244 16.547 91.9557C16.547 92.33 16.6857 92.5128 17.0671 92.4867C18.9227 92.4747 20.7676 92.7688 22.5282 93.3572C22.927 93.4616 23.5164 93.3572 23.5598 93.9404C23.6031 94.5236 23.083 94.5149 22.6929 94.6977L22.3549 94.8544C23.2217 95.2461 23.5338 95.7248 22.7623 96.4473C22.5109 96.6823 22.7623 96.6736 22.8836 96.7258C23.005 96.7781 23.2477 96.8216 23.031 96.8912C21.566 97.3961 23.5684 97.3526 23.0743 97.692C22.901 98.1273 22.3115 98.0141 21.9735 98.371C21.9735 98.6408 22.2508 98.5625 22.3549 98.6844C22.4589 98.8062 22.953 99.0935 22.9356 99.4591C22.9183 99.8247 22.4242 99.7463 22.1642 99.8769C21.384 100.251 20.5778 100.565 19.7977 100.93C19.3136 101.138 18.8116 101.301 18.2981 101.418C17.6219 101.609 16.6684 101.244 16.3217 101.818C16.0851 102.508 16.0139 103.245 16.1136 103.968C16.0443 107.232 16.0009 110.496 15.9403 113.769C15.9403 114.231 15.8796 114.701 15.8362 115.162C15.7433 115.652 15.5185 116.106 15.1861 116.476C14.7527 116.006 13.8859 116.476 13.5651 115.763C13.5131 115.65 13.4178 115.327 13.2791 115.554C12.6896 116.537 11.4847 115.606 10.8346 116.381C10.7392 116.494 10.4705 116.381 10.2971 116.241C9.94174 115.963 9.58633 115.763 9.17892 116.198C8.98821 116.407 8.76284 116.25 8.54613 116.146C8.13871 115.963 7.74864 115.676 7.28921 116.189C7.05516 116.459 6.12765 115.51 6.04963 114.849C5.91699 113.693 5.84466 112.531 5.83292 111.367C5.83292 109.069 5.2348 106.823 5.25214 104.508C5.25214 101.174 5.40817 97.84 5.43418 94.5062C5.43418 92.3736 5.38217 90.2497 5.33882 88.117C5.30535 86.9463 5.42188 85.7761 5.68556 84.6352C6.06144 83.3885 6.03718 82.0547 5.61621 80.8226C5.35616 80.1785 5.50352 79.5518 6.33569 79.543C10.3578 79.543 14.3366 78.925 18.3587 78.9511C22.7193 79.0403 27.0665 79.4681 31.3613 80.2307C31.578 80.2307 31.8901 80.1611 31.8988 80.6224C31.8988 80.9358 31.9854 81.1621 31.6127 81.3188C30.9972 81.5625 30.9452 81.9194 31.422 82.4068C31.5434 82.5287 31.9161 82.8769 31.318 83.051C30.7199 83.2251 31.2573 83.4253 31.318 83.6081C31.9334 84.6439 31.8121 85.0791 30.8586 85.2881Z" fill="black"/>
<path d="M64.5959 9.7412C64.8126 9.27986 65.6534 9.50618 65.272 9.05354C64.8906 8.60091 66.2516 7.59988 64.5786 7.75656C65.8095 7.54766 64.9513 6.36384 65.6708 5.93731C65.7748 5.86768 65.4367 5.58913 65.4281 5.21483C65.4281 4.13547 66.2169 3.47392 66.2949 2.51642C66.3729 1.55892 67.0057 1.50669 67.6992 1.44576C69.1555 1.31519 70.6118 1.22815 72.0334 1.04535C75.0673 0.662351 78.1012 0.845147 81.1612 0.714578C83.5734 0.611948 85.9892 0.632284 88.3993 0.77551C91.8666 0.975715 95.334 0.427328 98.7493 1.16722C99.4688 1.3239 99.6162 1.81135 99.4081 2.18565C98.8273 3.29983 99.4081 4.40531 99.2608 5.51079C99.1394 6.38124 99.4255 7.33004 98.5066 7.99159C98.0472 8.31366 98.0125 8.9752 97.8045 9.46266C97.6966 9.73592 97.5048 9.9676 97.257 10.1241C97.0092 10.2806 96.7182 10.3538 96.4262 10.3331C94.2158 10.4898 92.0053 10.6726 89.7949 10.7248C88.7633 10.7248 88.4426 11.2384 88.434 12.1263C88.3819 17.8626 87.8705 23.5902 88.2606 29.3613C88.5033 32.1676 88.5033 34.9897 88.2606 37.796C88.1306 39.032 87.1337 39.5369 86.6049 40.3638C86.4597 40.4106 86.3055 40.4224 86.1549 40.3982C86.0043 40.374 85.8615 40.3145 85.7381 40.2246C85.2093 39.6849 84.6545 40.2246 84.3858 40.477C83.0336 41.9045 81.4646 41.5738 80.2077 40.0244C78.2139 37.5 78.1966 34.5579 78.1099 31.6506C77.9712 27.2983 78.0232 22.8938 78.1099 18.5154C78.1099 16.4785 78.396 14.433 78.5867 12.4222C78.734 10.8119 78.708 10.6813 77.0957 10.7945C74.4952 10.9337 71.834 10.8467 69.1988 10.7945C68.1774 10.7956 67.1653 10.6006 66.2169 10.22C65.6968 9.924 65.3154 9.42784 64.5959 9.7412Z" fill="#8A1538"/>
<path d="M28.31 54.265C28.3967 54.0387 28.8475 54.117 28.6481 53.8907C28.4487 53.6644 29.0902 53.0203 28.154 53.1856C28.8908 53.0551 28.336 52.4196 28.7088 52.1672C28.8301 52.0802 28.5354 52.0366 28.5354 51.7755C28.5354 51.1923 28.8561 50.731 28.8995 50.2C28.9428 49.669 29.2202 49.669 29.5496 49.6081C30.3644 49.4601 31.1793 49.3382 31.9854 49.1641C33.6497 48.816 35.3488 48.7724 37.0304 48.5548C38.3477 48.3848 39.6728 48.2831 41.0005 48.2502C42.8469 48.2502 44.6673 47.7279 46.5223 47.989C47.0164 48.0587 47.1378 48.1631 47.0077 48.6593C46.9713 49.2193 47.0122 49.7817 47.1291 50.3306C47.1291 50.8267 47.3198 51.3229 46.843 51.732C46.6003 51.9322 46.6263 52.2978 46.5223 52.6024C46.4758 52.7578 46.3825 52.8948 46.2552 52.9945C46.1278 53.0943 45.9728 53.152 45.8115 53.1595C44.5892 53.3423 43.367 53.5512 42.1361 53.6905C42.0405 53.6857 41.9451 53.703 41.8573 53.7412C41.7694 53.7793 41.6915 53.8372 41.6295 53.9104C41.5675 53.9836 41.5231 54.0701 41.4997 54.1633C41.4763 54.2565 41.4746 54.3538 41.4946 54.4478C41.7287 57.6163 41.72 60.8021 42.2054 63.9706C42.4912 65.5381 42.6248 67.1298 42.6042 68.7233C42.6042 69.3674 42.0407 69.646 41.8067 70.1334C41.6507 70.0377 41.4686 70.203 41.2779 70.0464C41.0872 69.8897 40.7405 70.0464 40.5845 70.2553C40.4284 70.4642 40.2117 70.9952 39.7176 70.9342C39.1818 70.8552 38.6892 70.5941 38.322 70.1943C37.0564 68.9496 36.9437 67.2957 36.7617 65.7028C36.4843 63.309 36.3109 60.9066 36.1462 58.4954C36.0682 57.3725 36.1462 56.2409 36.1462 55.1181C36.1462 54.2041 36.1462 54.1519 35.2794 54.2476C33.8578 54.4391 32.4275 54.5174 30.9972 54.6132C30.4167 54.6104 29.8371 54.5639 29.2635 54.4739C29.0208 54.4739 29.0642 54.1954 28.9255 54.1693C28.7167 54.1697 28.5092 54.202 28.31 54.265Z" fill="black"/>
<path d="M144.076 27.7858C144.076 25.5574 144.172 23.3377 144.336 21.1181C144.369 20.8955 144.34 20.6682 144.253 20.461C144.166 20.2537 144.024 20.0745 143.842 19.9429C140.381 17.0472 137.168 13.8646 134.238 10.4289C133.348 9.43321 132.618 8.30577 132.071 7.08631C131.84 6.51501 131.738 5.89937 131.772 5.28375C131.807 4.66813 131.977 4.06785 132.27 3.52615C132.348 3.35206 132.435 3.17797 132.608 3.16056C134.298 2.99517 135.287 1.41965 136.873 1.05406C136.968 1.05406 137.098 0.96701 137.124 0.888669C137.306 0.48826 137.358 -0.112355 137.991 0.0182138C138.578 0.151887 139.105 0.47617 139.491 0.940897C140.355 1.81946 141.12 2.79161 141.771 3.83951C142.464 4.90357 143.269 5.88992 144.172 6.78165C145.619 8.30495 147.05 9.83695 148.454 11.3951C148.775 11.752 148.939 11.7607 149.26 11.3951C152.216 8.42682 155.649 5.94602 158.266 2.69051C158.606 2.14473 159.135 1.74424 159.751 1.56591C160.367 1.38759 161.027 1.44399 161.604 1.72431C163.147 2.2814 164.62 3.01258 166.189 3.51745C166.649 3.66542 167.056 4.15288 167.672 4.3879C168.287 4.62292 167.888 5.08427 167.672 5.44115C165.948 8.49682 163.77 11.2706 161.214 13.667C159.653 15.2338 158.24 17.0356 156.299 18.115C155.61 18.4325 155.049 18.9762 154.708 19.6565C154.368 20.3369 154.269 21.1133 154.426 21.8579C154.631 23.5617 154.689 25.2799 154.6 26.9936C154.452 28.7808 154.452 30.5772 154.6 32.3643C154.669 33.0955 154.643 33.8528 154.773 34.5753C154.93 35.9244 154.622 37.2867 153.902 38.4362C153.181 39.5857 152.091 40.4532 150.812 40.8948C150.386 41.0174 149.941 41.0537 149.502 41.0016C149.063 40.9494 148.638 40.8098 148.253 40.591C147.868 40.3722 147.53 40.0785 147.26 39.7271C146.989 39.3758 146.791 38.9738 146.677 38.5446C146.672 38.4593 146.648 38.3762 146.608 38.3013C146.567 38.2264 146.51 38.1616 146.441 38.1116C146.372 38.0616 146.293 38.0276 146.209 38.0121C146.126 37.9967 146.039 38.0002 145.957 38.0223C144.709 38.1703 144.224 37.7264 144.102 36.4381C143.712 33.5569 144.111 30.6757 144.076 27.7858Z" fill="#8A1538"/>
<path d="M122.891 170.062C123.064 166.354 123.229 162.663 123.515 158.972C123.575 158.578 123.526 158.174 123.373 157.806C123.22 157.437 122.969 157.118 122.648 156.883C116.831 152.063 111.44 146.748 106.534 140.997C105.175 139.466 104.05 137.741 103.196 135.879C102.763 134.915 102.557 133.865 102.593 132.808C102.629 131.751 102.907 130.717 103.404 129.786C103.543 129.507 103.63 129.176 103.924 129.15C106.742 128.889 108.389 126.278 110.998 125.608C111.107 125.585 111.21 125.54 111.301 125.476C111.392 125.412 111.469 125.329 111.527 125.233C111.795 124.58 111.917 123.719 112.809 123.797C113.743 123.947 114.59 124.433 115.193 125.164C116.607 126.563 117.857 128.12 118.921 129.803C120.229 131.82 121.759 133.682 123.48 135.357C125.812 137.785 128.1 140.275 130.354 142.773C130.848 143.321 131.1 143.252 131.577 142.773C136.986 137.55 142.845 132.754 147.76 126.957C148.058 126.552 148.478 126.255 148.958 126.111C149.438 125.966 149.951 125.982 150.422 126.156C153.638 126.809 156.489 128.541 159.593 129.446C160.529 129.716 161.448 130.613 162.497 131.074C163.129 131.353 162.627 132.11 162.367 132.615C159.584 137.994 155.571 142.407 151.358 146.646C148.887 149.127 146.668 152.026 143.608 153.715C140.73 155.308 139.994 157.37 140.314 160.374C140.66 163.086 140.756 165.825 140.6 168.556C140.375 171.53 140.401 174.517 140.678 177.487C140.791 178.766 140.774 180.098 140.982 181.334C141.727 185.808 138.269 190.909 133.813 191.893C131.212 192.476 127.91 190.613 127.39 187.941C127.385 187.799 127.351 187.659 127.289 187.532C127.226 187.404 127.138 187.291 127.029 187.201C126.92 187.11 126.793 187.044 126.656 187.006C126.519 186.969 126.377 186.961 126.237 186.983C124.07 187.149 123.316 186.444 123.09 184.276C122.876 181.886 122.81 179.485 122.891 177.086C122.925 174.753 122.891 172.403 122.891 170.062Z" fill="#8A1538"/>
<path d="M126.185 114.579L127.563 114.309C127.234 114.718 126.696 114.831 126.627 115.336L127.719 115.519C127.398 116.433 126.549 116.799 125.881 117.347C126.592 118.113 126.393 118.896 125.535 119.584C124.434 120.464 123.057 120.92 121.651 120.872C120.919 120.752 120.192 120.595 119.475 120.402C118.297 120.263 117.126 120.629 115.947 120.298C115.372 120.159 114.818 119.943 114.3 119.654C113.737 119.34 112.948 119.262 112.281 118.975C112.008 118.869 111.751 118.725 111.518 118.548C111.371 118.426 110.98 117.573 110.842 118.609C110.842 118.766 110.564 118.609 110.443 118.513C109.945 118.18 109.486 117.792 109.073 117.356C107.556 115.493 106.109 113.534 105.953 111.045C105.953 110.331 105.311 109.652 105.753 108.904C104.887 108.225 105.138 107.163 104.887 106.292C104.635 105.422 105.025 104.308 105.242 103.324C105.398 102.972 105.417 102.574 105.294 102.21C105.207 101.999 105.177 101.768 105.207 101.542C105.237 101.316 105.327 101.101 105.467 100.921C106.152 99.8595 105.892 98.5625 106.126 97.3874C106.272 96.1861 106.594 95.013 107.08 93.9056C107.625 92.8074 108.103 91.6766 108.51 90.5195C109.16 88.7786 110.781 87.9081 112.081 86.8984C115.352 84.3492 119.383 82.9815 123.524 83.0162C124.39 83.0162 125.318 83.6603 126.237 83.7473C128.326 83.9476 128.837 85.4883 128.915 87.0725C128.919 88.316 128.544 89.531 127.84 90.5543C126.974 92.0515 125.708 92.5825 123.844 92.5825C122.155 92.5706 120.491 92.9892 119.007 93.7991C117.522 94.609 116.267 95.7837 115.358 97.2133C114.865 98.1275 114.569 99.136 114.491 100.173C114.06 102.194 113.943 104.27 114.144 106.327C114.361 108.155 115.722 110.74 118.652 110.906C120.386 111.01 122.119 111.167 123.922 111.262C124.789 111.262 125.5 112.028 126.427 111.585C126.601 111.497 126.87 112.612 126.644 112.786C126.28 113.064 126.323 113.073 126.748 113.177C126.811 113.212 126.862 113.264 126.896 113.327C126.93 113.391 126.945 113.462 126.939 113.534C126.934 113.605 126.908 113.674 126.865 113.731C126.822 113.788 126.763 113.832 126.696 113.856C126.445 113.9 126.332 114.144 126.185 114.579Z" fill="black"/>
<path d="M7.2372 55.5272C7.51459 57.3203 7.45391 59.1396 7.55793 60.9414C7.68795 63.1785 8.17338 65.372 8.32942 67.6091C8.4291 68.907 8.4291 70.2108 8.32942 71.5087C8.28607 72.031 8.22539 72.7013 7.46258 72.8318C7.4019 72.8318 7.34989 72.9972 7.28921 72.9189C6.89913 72.3444 6.65642 72.8231 6.31835 72.9972C6.15365 73.0843 5.86759 73.2409 5.64222 72.9972C5.64222 72.9972 5.44284 72.9276 5.43417 72.9972C5.19146 73.3976 4.8794 73.1365 4.56734 73.1452C3.2064 73.1452 2.83366 72.8492 2.83366 71.5261C2.90557 69.7132 2.72171 67.8992 2.28755 66.138C1.85347 64.2819 1.66116 62.3771 1.71544 60.4714C1.80942 58.51 1.73401 56.5441 1.49006 54.5958C1.39077 53.8997 1.44102 53.1903 1.63742 52.5154C1.71035 52.239 1.86569 51.9917 2.08261 51.8066C2.29953 51.6214 2.56765 51.5073 2.851 51.4795C3.89987 51.3403 4.95741 51.2619 6.00629 51.1488C6.08286 51.1332 6.1623 51.1406 6.23473 51.17C6.30716 51.1994 6.36939 51.2495 6.4137 51.3142C6.76295 51.8371 6.99102 52.432 7.08117 53.0551C7.05516 53.8646 7.16785 54.6915 7.2372 55.5272Z" fill="black"/>
<path d="M35.6522 90.18C37.0131 91.3464 38.4607 92.4345 39.8824 93.5313C40.0529 93.6524 40.2545 93.7219 40.4631 93.7315L51.9141 93.8272C52.0883 93.8262 52.2567 93.7647 52.3908 93.6531C52.9456 93.1483 53.4744 92.6173 54.0638 92.0341C53.5809 91.6272 53.0743 91.2493 52.5469 90.9025C49.3396 89.0571 45.8549 87.7688 42.6996 85.8016C42.2256 85.548 41.7257 85.3466 41.2086 85.201C39.2322 84.5046 37.2472 83.7996 35.2448 83.1293C35.1594 83.1076 35.0701 83.1076 34.9847 83.1293C34.8974 83.1487 34.8168 83.1907 34.7507 83.2512C33.77 84.4282 32.9802 85.753 32.4102 87.1769C33.4764 88.178 34.5253 89.2312 35.6522 90.18Z" fill="#8A1538"/>
<path d="M66.9104 102.619C66.815 102.332 66.685 102.175 66.3383 102.279C64.6585 102.794 63.0679 103.566 61.6227 104.569C61.3577 104.711 61.1586 104.952 61.068 105.24C60.9773 105.528 61.0021 105.84 61.1372 106.109C61.4716 107.119 61.8922 108.097 62.3941 109.034C63.1364 110.292 63.9739 111.491 64.8993 112.62C65.5562 113.323 66.2726 113.966 67.0404 114.544C67.3409 114.817 67.6659 115.062 68.0113 115.275C68.1772 115.384 68.3684 115.447 68.566 115.458C68.7635 115.474 68.9615 115.435 69.1381 115.345C69.3194 115.259 69.4749 115.127 69.5889 114.962C69.702 114.796 69.7706 114.605 69.7883 114.405C69.8012 114.182 69.8012 113.958 69.7883 113.735H69.8316C69.5196 111.854 69.3375 109.931 68.8434 108.094C68.3493 106.257 67.5952 104.438 66.9104 102.619Z" fill="#8A1538"/>
<path d="M35.2101 82.2328C35.2919 82.3272 35.4067 82.3864 35.5308 82.3981C36.1636 82.5896 36.8137 82.7463 37.4292 82.9726C39.3883 83.6864 41.3646 84.435 43.4191 85.1923C43.4452 84.9988 43.4452 84.8026 43.4191 84.6091C43.2023 83.3644 42.9683 82.1283 42.7169 80.8923C42.6649 80.6311 42.5782 80.2742 42.3875 80.1524C40.4805 78.8757 38.5503 77.6222 36.597 76.392C35.4441 75.6695 34.8634 76.0351 34.794 77.3669V77.454C34.8807 78.9337 34.9847 80.4048 35.0541 81.8759C35.06 82.0102 35.1156 82.1375 35.2101 82.2328Z" fill="#8A1538"/>
<path d="M34.8894 94.8108H34.9934L38.5994 93.7228L31.8467 87.7688C30.5812 88.4913 29.2462 89.2486 27.9286 90.0146C27.6148 90.1829 27.3235 90.3906 27.0618 90.6326C26.9719 90.7009 26.9003 90.7907 26.8538 90.8938C26.8053 90.994 26.7815 91.1045 26.7844 91.2158C26.7875 91.3313 26.8172 91.4446 26.8711 91.5466C26.9265 91.644 27.0001 91.7297 27.0878 91.7991C27.3026 91.9738 27.535 92.1255 27.7813 92.2517C29.2549 93.0177 30.7545 93.7489 32.2108 94.5497C33.1037 95.0284 33.9618 95.3853 34.8894 94.8108Z" fill="#8A1538"/>
<path d="M61.744 97.4048C61.6642 97.004 61.4307 96.6507 61.0939 96.4212C60.6079 96.0007 60.0986 95.6084 59.5682 95.2461C58.7014 96.1165 57.6005 97.1872 56.517 98.284C56.3865 98.45 56.3162 98.6557 56.3176 98.8672C56.3176 99.8421 56.3176 100.817 56.3176 101.783C56.3176 103.089 56.3176 103.071 57.5745 103.272C57.9221 103.358 58.2885 103.324 58.6147 103.176C58.9439 103.031 59.2155 102.78 59.3862 102.462C60.1317 101.174 60.8685 99.8508 61.5446 98.5625C61.759 98.2175 61.8305 97.802 61.744 97.4048Z" fill="#8A1538"/>
<path d="M73.9664 93.1222C73.4199 90.1927 72.2603 87.4131 70.5642 84.9672C68.8682 82.5213 66.6743 80.4648 64.1278 78.9337C61.5863 77.4087 58.7505 76.4445 55.8091 76.1053C52.8677 75.7661 49.8881 76.0597 47.0684 76.9665C46.0395 77.3258 45.0297 77.7384 44.0432 78.2025C43.6184 78.394 43.1763 78.5942 42.7689 78.777L42.5869 78.8467L43.0636 79.1687C43.5138 79.5405 43.8003 80.0752 43.8611 80.6572C44.0952 81.7975 44.3292 82.9988 44.5719 84.4089C44.6153 84.6711 44.6153 84.9388 44.5719 85.201V85.5318L45.2567 85.8887L45.4648 85.819C46.0015 85.651 46.5234 85.4385 47.0251 85.1836C49.6906 83.7309 52.7694 83.2335 55.7542 83.7735C57.2238 83.967 58.6328 84.4842 59.8803 85.2881C59.7389 85.5489 59.5704 85.794 59.3775 86.0192C58.2853 87.1769 57.1151 88.3346 55.9882 89.414L55.4594 89.9363L55.13 90.2496C54.8281 90.3635 54.5378 90.5064 54.2632 90.6762L54.7486 91.0592L55.8408 91.8774L54.4019 93.2788C53.9771 93.7054 53.535 94.0971 53.1623 94.4801C52.8143 94.7862 52.3681 94.9561 51.9054 94.9588L46.0629 94.9066L40.4718 94.8631C40.1312 94.8566 39.7964 94.7733 39.4923 94.6193L35.2448 95.9598C34.817 96.1748 34.3448 96.2851 33.8665 96.2819C33.3915 96.2658 32.9238 96.1595 32.4882 95.9685C32.3669 105.309 37.0391 112.969 45.0574 116.416C47.6959 117.596 50.5429 118.236 53.431 118.296C57.6465 118.278 61.7551 116.963 65.2027 114.527C64.7684 114.173 64.3679 113.78 64.0065 113.352C63.0464 112.178 62.177 110.933 61.4059 109.626C61.193 109.267 61.0019 108.894 60.8338 108.512C59.7171 109.275 58.4428 109.775 57.1064 109.974C57.1064 109.321 57.1064 108.66 57.1064 108.007L57.1931 104.438C55.5374 104.142 55.156 103.62 55.1647 101.827V101.078C55.1647 100.347 55.1647 99.6245 55.1647 98.8933C55.1737 98.3901 55.3647 97.9074 55.7021 97.5354C56.569 96.6649 57.3838 95.7944 58.1293 95.0981L59.4642 93.775L60.2617 94.3582L60.7385 94.7064L61.1459 95.0197L61.822 94.3147C62.8969 93.244 63.9891 92.1995 65.1334 91.094L65.194 91.0418C65.4031 91.3525 65.5941 91.6751 65.7661 92.008C66.6467 94.0109 66.9788 96.2135 66.7283 98.3884C66.763 99.1891 66.5544 99.9814 66.1302 100.66L65.5928 101.244L66.0349 101.113C66.2305 101.049 66.4374 101.029 66.6416 101.052C66.8505 101.07 67.0538 101.129 67.2398 101.226C67.4214 101.33 67.5829 101.465 67.7165 101.627C67.8462 101.791 67.9406 101.981 67.9939 102.184C68.202 102.732 68.4187 103.28 68.6267 103.837C69.1566 105.119 69.6139 106.43 69.9963 107.763C70.1003 108.164 70.187 108.564 70.2737 108.93L70.8025 108.259L70.9932 108.016C71.1863 107.8 71.3631 107.57 71.5219 107.328C71.8226 106.894 72.0893 106.437 72.3194 105.961C74.2225 101.969 74.7998 97.4686 73.9664 93.1222ZM41.642 103.367C41.1613 102.634 40.8231 101.816 40.6452 100.956H44.2685C43.4932 101.864 42.6113 102.673 41.642 103.367ZM49.4436 107.284C49.4436 108.155 49.3829 109.025 49.3222 109.896C48.5088 109.748 47.7421 109.408 47.0858 108.904L49.3916 106.562C49.3986 106.804 49.4188 107.045 49.4522 107.284H49.4436Z" fill="#8A1538"/>
<path d="M82.5915 70.4903H82.3921C81.588 70.4193 80.7804 70.396 79.9736 70.4207C79.8869 70.4207 79.7829 70.4729 79.6962 70.351C80.3089 69.9067 80.8884 69.418 81.4299 68.8887C81.9253 68.3798 82.3325 67.7914 82.6348 67.1478C82.988 66.3258 83.0935 65.4179 82.9382 64.5364C82.7929 63.5649 82.3681 62.6573 81.716 61.925C81.2349 61.4232 80.5999 61.0983 79.9129 61.0023C78.9998 60.8239 78.0609 60.8239 77.1477 61.0023C76.3521 61.1549 75.6071 61.505 74.9806 62.0208C74.5542 62.3641 74.2303 62.8189 74.0445 63.3352C73.8884 63.8313 73.8711 64.3449 73.7584 64.841V65.2676L74.0184 66.3817C74.036 66.4945 74.0867 66.5994 74.1639 66.6831C74.241 66.7668 74.3413 66.8255 74.4519 66.8518C74.6859 66.9214 74.9373 66.8518 75.154 66.965C75.4344 67.0613 75.7255 67.1226 76.0208 67.1478C76.0801 67.1559 76.1404 67.1451 76.1933 67.117C76.2462 67.0889 76.2889 67.0449 76.3156 66.9911C76.5413 66.5433 76.6768 66.0553 76.7143 65.5548C76.779 65.146 76.9202 64.7532 77.1304 64.3971C77.2718 64.2388 77.4449 64.1122 77.6383 64.0256C77.8317 63.9389 78.0412 63.8941 78.2529 63.8941C78.4647 63.8941 78.6742 63.9389 78.8676 64.0256C79.061 64.1122 79.234 64.2388 79.3755 64.3971C79.3771 64.4174 79.3771 64.4378 79.3755 64.458C79.5425 64.7907 79.6155 65.163 79.5864 65.5344C79.5574 65.9058 79.4275 66.2621 79.2108 66.5645C78.8066 67.159 78.2985 67.6751 77.7112 68.0878C77.3298 68.3403 77.009 68.671 76.6363 68.9583C75.8396 69.5582 75.1306 70.2673 74.5299 71.0648C74.4697 71.1589 74.434 71.2666 74.4259 71.3782C74.3305 71.7612 74.4952 72.1355 74.4259 72.5272C74.4082 72.5995 74.4058 72.6747 74.4189 72.748C74.4321 72.8212 74.4604 72.8909 74.5021 72.9525C74.5438 73.014 74.5979 73.0661 74.6609 73.1053C74.724 73.1445 74.7945 73.17 74.8679 73.18C76.37 73.3236 77.8822 73.3236 79.3842 73.18C80.1218 73.1016 80.8656 73.1016 81.6033 73.18C82.0278 73.2298 82.4577 73.1574 82.8429 72.9711C82.9349 72.9336 83.0149 72.8717 83.0745 72.7919C83.1341 72.7122 83.1709 72.6176 83.1809 72.5185C83.1809 72.1268 83.2763 71.7351 83.3196 71.3433C83.3543 70.6383 83.2849 70.5686 82.5915 70.4903Z" fill="white"/>
<path d="M92.6381 70.4903C91.7713 70.4207 90.8524 70.4207 89.8556 70.4294C90.0983 70.2292 90.2456 70.0638 90.4277 69.9419C91.2133 69.4025 91.8947 68.7241 92.4388 67.9399C92.7631 67.4964 92.9905 66.9892 93.1062 66.4514C93.3835 65.1378 93.141 63.7674 92.4301 62.6301C92.1756 62.1731 91.8085 61.7894 91.3639 61.5159C90.7226 61.1498 90.0032 60.9438 89.2661 60.9153C88.0628 60.7916 86.8509 61.0471 85.7988 61.6465C85.3923 61.8604 85.0369 62.1602 84.7571 62.5254C84.4772 62.8906 84.2796 63.3124 84.1778 63.7617C83.9675 64.6632 84.0065 65.6053 84.2905 66.4862C84.3133 66.5714 84.3596 66.6484 84.4239 66.7085C84.4883 66.7685 84.5682 66.8091 84.6545 66.8257L85.9375 67.0781C86.4922 67.1826 86.6743 67.0781 86.8043 66.521C86.9343 65.9639 87.0037 65.4068 87.1337 64.8585C87.1787 64.6142 87.2964 64.3895 87.4713 64.2139C87.6462 64.0382 87.87 63.92 88.1132 63.8748C88.3869 63.8538 88.662 63.8909 88.9204 63.9839C89.1788 64.0769 89.4148 64.2237 89.6129 64.4145C89.7691 64.7465 89.8398 65.1125 89.8186 65.479C89.7974 65.8455 89.6849 66.2008 89.4915 66.5123C89.0576 67.1091 88.5342 67.6347 87.9399 68.0704C87.5584 68.3316 87.229 68.6536 86.865 68.9409C86.0707 69.5398 85.3594 70.2424 84.7499 71.03C84.6812 71.1444 84.637 71.2718 84.6199 71.4043C84.5418 71.796 84.6892 72.1703 84.6199 72.5533C84.6006 72.624 84.5969 72.698 84.609 72.7703C84.6211 72.8426 84.6488 72.9113 84.69 72.9718C84.7313 73.0323 84.7851 73.083 84.8478 73.1205C84.9106 73.1579 84.9807 73.1812 85.0533 73.1887C86.577 73.3193 88.1098 73.3018 89.6302 73.1365C90.3565 73.0625 91.0883 73.0625 91.8146 73.1365C92.2401 73.1881 92.6714 73.1124 93.0542 72.9189C93.1395 72.8799 93.2131 72.8193 93.2679 72.7429C93.3226 72.6666 93.3565 72.5772 93.3663 72.4837C93.3663 72.1268 93.4703 71.7699 93.505 71.413C93.6003 70.6122 93.479 70.5338 92.6381 70.4903Z" fill="white"/>
<path d="M134.246 70.4903H133.96C133.153 70.4192 132.343 70.3959 131.533 70.4207C131.412 70.4577 131.282 70.4577 131.16 70.4207C131.299 70.2804 131.447 70.1496 131.603 70.029C132.332 69.5229 132.976 68.9028 133.51 68.1923C134.1 67.4489 134.432 66.5317 134.454 65.5809C134.485 64.489 134.183 63.4138 133.588 62.4995C133.325 62.0691 132.958 61.7126 132.521 61.4637C131.9 61.1356 131.212 60.9569 130.51 60.9414C129.307 60.8136 128.094 61.0694 127.043 61.6726C126.421 61.9802 125.92 62.4892 125.621 63.1175C125.176 64.1925 125.139 65.3943 125.517 66.4949C125.54 66.5864 125.589 66.669 125.659 66.7325C125.728 66.796 125.815 66.8375 125.907 66.8518L127.156 67.1042C127.728 67.2087 127.91 67.1042 128.022 66.5297C128.135 65.9552 128.222 65.433 128.352 64.8933C128.394 64.644 128.513 64.4143 128.692 64.2363C128.87 64.0583 129.1 63.941 129.349 63.9009C129.623 63.872 129.901 63.9012 130.164 63.9867C130.427 64.0721 130.669 64.2119 130.874 64.3971C131.032 64.7283 131.104 65.0939 131.084 65.4604C131.065 65.8269 130.954 66.1826 130.762 66.4949C130.331 67.0914 129.81 67.6171 129.219 68.053C128.837 68.3055 128.508 68.6449 128.144 68.9235C127.339 69.5288 126.619 70.2403 126.003 71.0387C125.939 71.1447 125.901 71.2637 125.89 71.3869C125.795 71.7699 125.959 72.1442 125.89 72.5359C125.872 72.6083 125.87 72.6837 125.884 72.757C125.898 72.8303 125.927 72.8998 125.97 72.9609C126.012 73.0219 126.068 73.073 126.132 73.1108C126.196 73.1486 126.267 73.1722 126.341 73.18C127.831 73.3236 129.332 73.3236 130.822 73.18C131.56 73.106 132.304 73.106 133.041 73.18C133.464 73.2408 133.896 73.1741 134.281 72.9885C134.38 72.9537 134.468 72.8908 134.532 72.8074C134.597 72.724 134.636 72.6237 134.645 72.5185L134.801 71.2476C134.836 70.6557 134.81 70.6209 134.246 70.4903Z" fill="white"/>
<path d="M154.21 70.6209C153.787 70.4725 153.34 70.4046 152.892 70.4207C152.199 70.4207 151.505 70.4207 150.812 70.4207V70.3423C150.864 70.3423 150.907 70.2466 150.959 70.2118C151.775 69.6205 152.509 68.924 153.143 68.1401C153.722 67.3898 154.052 66.4768 154.088 65.5287C154.118 64.4342 153.816 63.3565 153.221 62.4386C152.973 62.0294 152.628 61.6885 152.216 61.4463C151.576 61.0819 150.854 60.8872 150.118 60.8805C148.916 60.7536 147.704 61.0061 146.651 61.603C146.029 61.9144 145.528 62.4262 145.229 63.0566C144.785 64.1285 144.745 65.3259 145.117 66.4253C145.143 66.5152 145.192 66.5968 145.259 66.6624C145.325 66.7279 145.408 66.7751 145.498 66.7996C145.741 66.8779 146.009 66.7996 146.235 66.9214C146.516 67.014 146.807 67.0753 147.102 67.1042C147.161 67.1123 147.221 67.1016 147.274 67.0735C147.327 67.0454 147.37 67.0013 147.396 66.9476C147.618 66.4983 147.754 66.011 147.795 65.5113C147.865 65.1175 148.006 64.7399 148.211 64.3971C148.353 64.2388 148.526 64.1122 148.719 64.0256C148.913 63.9389 149.122 63.8941 149.334 63.8941C149.546 63.8941 149.755 63.9389 149.948 64.0256C150.142 64.1122 150.315 64.2388 150.456 64.3971V64.4493C150.623 64.7836 150.696 65.1572 150.667 65.53C150.638 65.9027 150.508 66.2604 150.292 66.5646C149.887 67.1591 149.379 67.6751 148.792 68.0878C148.411 68.3403 148.09 68.6711 147.717 68.9583C146.923 69.5609 146.214 70.2696 145.611 71.0648C145.557 71.1612 145.524 71.2681 145.515 71.3782C145.411 71.7612 145.585 72.1355 145.515 72.5272C145.498 72.5995 145.495 72.6747 145.508 72.748C145.522 72.8212 145.55 72.8909 145.592 72.9525C145.633 73.014 145.687 73.0661 145.75 73.1053C145.813 73.1445 145.884 73.17 145.957 73.18C147.135 73.2714 148.317 73.2714 149.494 73.18C150.6 73.0494 151.717 73.0494 152.823 73.18C153.217 73.2249 153.614 73.1426 153.958 72.945C154.039 72.9107 154.11 72.8557 154.163 72.7854C154.216 72.7152 154.25 72.6321 154.262 72.5446C154.331 72.0136 154.392 71.4739 154.461 70.9429C154.47 70.9047 154.471 70.8648 154.462 70.8264C154.454 70.7879 154.437 70.7519 154.413 70.7209C154.389 70.6899 154.358 70.6649 154.323 70.6475C154.287 70.6302 154.249 70.6211 154.21 70.6209Z" fill="white"/>
<path d="M112.281 67.3393C112.281 66.8866 112.211 66.4688 112.185 65.9813C112.155 64.5508 111.679 63.1658 110.824 62.0208C110.507 61.5827 110.095 61.2226 109.619 60.9678C109.143 60.713 108.616 60.57 108.077 60.5497H107.946C107.239 60.5888 106.546 60.7693 105.909 61.0807L105.684 61.1677C105.27 61.3243 104.886 61.551 104.548 61.838C103.593 62.6772 102.977 63.8382 102.815 65.1022C102.815 65.1892 102.815 65.2763 102.763 65.3633C102.413 66.9951 102.493 68.6906 102.997 70.2814C103.18 70.9032 103.497 71.4775 103.923 71.9645C104.35 72.4515 104.877 72.8395 105.467 73.1017C106.209 73.4332 107.013 73.6024 107.825 73.5978C108.448 73.5926 109.067 73.5137 109.672 73.3628C110.214 73.2402 110.698 72.9326 111.041 72.4924C111.525 71.9278 111.882 71.266 112.09 70.5512C112.211 70.0203 112.307 69.4632 112.385 68.8103V68.7494C112.359 68.3142 112.324 67.818 112.281 67.3393ZM105.979 65.0238C106.069 64.5648 106.328 64.1565 106.703 63.8794C107.079 63.6022 107.544 63.4764 108.007 63.5267C108.067 63.5296 108.126 63.5451 108.18 63.5721C108.233 63.5991 108.281 63.6369 108.319 63.6833C108.905 64.3373 109.251 65.1727 109.299 66.051C109.459 67.4189 109.183 68.8025 108.51 70.0029V70.0638C108.114 70.349 107.636 70.4985 107.149 70.4903C107.063 70.5079 106.975 70.5079 106.889 70.4903C106.772 70.2085 106.576 69.9667 106.326 69.7939C106.233 69.722 106.146 69.6434 106.065 69.5589C105.743 69.1041 105.595 68.5477 105.649 67.9921C105.649 67.9399 105.649 67.8789 105.649 67.8267C105.555 66.8795 105.668 65.9231 105.979 65.0238Z" fill="white"/>
<path d="M144.31 65.9988C144.277 64.5675 143.804 63.1815 142.958 62.0295C142.663 61.5904 142.267 61.2287 141.804 60.9743C141.341 60.7199 140.824 60.5803 140.297 60.5671C139.552 60.5664 138.814 60.7146 138.126 61.003C137.439 61.2914 136.815 61.7143 136.292 62.2471C135.723 62.86 135.307 63.5999 135.079 64.4058C134.934 64.8675 134.839 65.343 134.793 65.8247C134.568 67.3226 134.683 68.8521 135.131 70.2988C135.319 70.902 135.627 71.4609 136.035 71.9424C136.443 72.4239 136.943 72.8181 137.506 73.1017C138.266 73.4643 139.1 73.6431 139.942 73.624C140.35 73.6206 140.758 73.5945 141.164 73.5456C141.671 73.4943 142.159 73.3213 142.586 73.041C143.013 72.7608 143.367 72.3815 143.617 71.9353C143.868 71.5116 144.066 71.0584 144.206 70.5861C144.388 69.9544 144.49 69.3022 144.51 68.6449C144.432 67.7571 144.371 66.9388 144.31 65.9988ZM140.652 69.968V70.0464C140.274 70.2924 139.837 70.4308 139.387 70.4468C139.266 70.4596 139.144 70.4596 139.023 70.4468C138.901 70.1896 138.716 69.9679 138.485 69.8026C138.394 69.7386 138.313 69.6625 138.243 69.5763C137.844 69.0102 137.677 68.3126 137.774 67.6265C137.719 66.7645 137.849 65.9005 138.156 65.0935C138.228 64.6322 138.471 64.2151 138.836 63.9249C139.2 63.6347 139.66 63.4926 140.124 63.5267C140.219 63.5267 140.306 63.5267 140.453 63.7008C141.038 64.3551 141.384 65.1902 141.432 66.0684C141.58 67.4124 141.307 68.7691 140.652 69.9506V69.968Z" fill="white"/>
<path d="M117.95 70.7863C117.794 70.7863 117.707 70.7166 117.716 70.5425C117.704 70.008 117.649 69.4752 117.551 68.9496C117.499 67.748 117.525 66.5442 117.629 65.3459C117.588 64.2861 117.617 63.2247 117.716 62.1688C117.716 61.2983 117.716 61.2983 116.892 61.1677C116.84 61.1677 116.797 61.1242 116.745 61.0981C116.298 60.9255 115.817 60.8628 115.341 60.9153C114.656 60.9675 114.526 61.1416 114.552 61.7858C114.578 62.4299 114.092 62.8999 113.685 63.3178C113.302 63.5643 113.032 63.952 112.931 64.3971C112.931 64.5973 113.078 64.8236 112.809 64.9803C112.809 64.9803 112.809 65.0413 112.861 65.0674C113.226 65.4417 113.59 65.8508 114.188 65.6593C114.534 65.5461 114.543 65.7202 114.543 65.9901C114.543 67.4785 114.586 68.9757 114.639 70.4642C114.639 70.7689 114.595 70.8907 114.283 70.9342C113.806 70.9952 113.642 71.1257 113.633 71.5958C113.581 72.0377 113.564 72.483 113.581 72.9276C113.582 72.9993 113.599 73.0698 113.63 73.1344C113.662 73.1989 113.706 73.2559 113.761 73.3014C113.817 73.3469 113.881 73.3798 113.95 73.398C114.019 73.4161 114.091 73.4189 114.162 73.4063C114.335 73.4063 114.508 73.4063 114.682 73.4063C115.809 73.4063 116.927 73.3193 118.045 73.2758C118.187 73.2693 118.327 73.2326 118.454 73.1681C118.581 73.1035 118.693 73.0127 118.782 72.9015C118.876 72.7678 118.94 72.6154 118.97 72.4547C118.999 72.294 118.995 72.1287 118.955 71.9701C118.97 71.8255 118.955 71.6795 118.911 71.5409C118.868 71.4022 118.797 71.2738 118.704 71.1633C118.61 71.0527 118.494 70.9623 118.365 70.8976C118.235 70.8328 118.094 70.7949 117.95 70.7863Z" fill="white"/>
<path d="M159.523 70.7776C159.402 70.7776 159.35 70.6992 159.359 70.5774C159.339 70.0318 159.284 69.4881 159.194 68.9496C159.133 67.7481 159.159 66.5437 159.272 65.3459C159.222 64.2862 159.251 63.2242 159.359 62.1688C159.359 61.2983 159.315 61.2983 158.492 61.1677C158.492 61.1677 158.423 61.1242 158.379 61.1068C157.941 60.9474 157.474 60.8821 157.01 60.9153C156.718 60.9151 156.433 61.0064 156.195 61.1764C156.03 61.2983 156.151 61.6117 156.195 61.838C156.167 62.1357 156.075 62.4238 155.925 62.6823C155.776 62.9409 155.572 63.1636 155.328 63.3352C154.964 63.582 154.707 63.9585 154.608 64.3884C154.608 64.5886 154.756 64.8149 154.487 64.9629C154.487 64.9629 154.487 65.0326 154.539 65.0587C154.912 65.4417 155.276 65.8508 155.891 65.6419C156.229 65.5287 156.212 65.7202 156.212 65.9465C156.212 67.4524 156.264 68.9496 156.316 70.4555C156.316 70.7514 156.273 70.882 155.961 70.9255C155.484 70.9865 155.319 71.117 155.302 71.5871C155.271 72.0276 155.271 72.4697 155.302 72.9102C155.302 73.2584 155.545 73.4063 155.909 73.3889L158.509 73.2932C158.951 73.2932 159.376 73.2932 159.844 73.2148C159.977 73.2036 160.107 73.1645 160.224 73.1002C160.342 73.0358 160.445 72.9476 160.526 72.8411C160.608 72.7346 160.666 72.6122 160.698 72.4817C160.73 72.3513 160.734 72.2155 160.711 72.0832C160.538 71.3608 160.347 70.8037 159.523 70.7776Z" fill="white"/>
<path d="M100.968 67.0085C100.727 66.9048 100.468 66.8515 100.206 66.8518C98.8534 66.8518 97.5011 66.8518 96.1488 66.9127C95.9091 66.9183 95.6707 66.9504 95.438 67.0085C95.3714 67.0142 95.3069 67.0351 95.2494 67.0695C95.192 67.1039 95.143 67.151 95.1063 67.2071C95.0696 67.2633 95.046 67.327 95.0374 67.3937C95.0288 67.4603 95.0354 67.528 95.0566 67.5917C95.1018 67.8152 95.125 68.0426 95.126 68.2706C95.126 68.7146 95.2993 68.9148 95.7501 68.9409C96.0761 68.9671 96.4036 68.9671 96.7296 68.9409C97.9085 68.819 99.0874 68.9409 100.258 68.8277C100.41 68.8554 100.567 68.8487 100.717 68.8081C100.867 68.7674 101.006 68.6939 101.124 68.5927C101.271 68.5096 101.39 68.3857 101.467 68.2361C101.544 68.0864 101.576 67.9174 101.56 67.7496C101.543 67.5818 101.479 67.4225 101.374 67.2909C101.269 67.1593 101.128 67.0612 100.968 67.0085Z" fill="white"/>
<path d="M124.806 67.0085C124.566 66.9023 124.306 66.8461 124.044 66.8431H122.05V66.8866C121.851 66.8866 121.651 66.8866 121.461 66.8866C120.763 66.8676 120.065 66.8967 119.371 66.9737C118.929 67.052 118.773 67.2435 118.886 67.6787C118.912 67.8606 118.912 68.0452 118.886 68.2271C118.886 68.6972 119.059 68.8974 119.519 68.9322C119.845 68.9584 120.172 68.9584 120.498 68.9322C121.677 68.8103 122.856 68.9322 124.035 68.8451C124.345 68.8204 124.644 68.7155 124.902 68.5405C125.035 68.4576 125.144 68.3399 125.216 68.2C125.288 68.06 125.321 67.9031 125.311 67.7458C125.301 67.5885 125.249 67.4369 125.16 67.3071C125.072 67.1772 124.949 67.074 124.806 67.0085Z" fill="white"/>
</svg>
