<svg width="70" height="70" viewBox="0 0 70 70" fill="none" xmlns="http://www.w3.org/2000/svg">
<path fill-rule="evenodd" clip-rule="evenodd" d="M18.1403 35.9454C12.4071 33.009 6.67685 30.0674 0.945946 27.127V27.4294C1.06972 27.5023 1.08249 27.6272 1.10115 27.7528C1.3988 29.7667 1.75735 31.774 1.9859 33.7958C2.68172 39.9492 4.01965 45.9873 5.14507 52.0641C5.24036 52.5758 5.47906 52.845 5.9771 52.9965C7.86874 53.5719 9.76267 54.1454 11.6278 54.7997C12.3613 55.0567 12.598 54.8595 12.837 54.17C14.8446 48.3814 16.4157 42.4515 18.4926 36.6868C18.6514 36.2464 18.4622 36.1104 18.1403 35.9454Z" fill="#296398"/>
<path fill-rule="evenodd" clip-rule="evenodd" d="M68.2254 25.859C63.207 29.591 58.1932 33.3293 53.166 37.0492C52.815 37.3088 52.8304 37.4915 53.0128 37.8359C53.8114 39.3454 54.6015 40.8601 55.3553 42.3925C57.3183 46.3808 59.094 50.4609 61.2096 54.3753C61.4686 54.8548 61.65 54.9557 62.1612 54.6823C63.8194 53.7956 65.4903 52.926 67.2012 52.1488C68.0565 51.76 68.3679 51.248 68.3757 50.3091C68.4347 43.2562 68.5417 36.2032 68.6413 29.1507C68.6472 28.7277 68.7156 28.3054 68.7549 27.8831V25.6145C68.526 25.581 68.3829 25.742 68.2254 25.859Z" fill="#296398"/>
<path fill-rule="evenodd" clip-rule="evenodd" d="M53.429 58.1503C51.8134 56.6376 50.1654 55.1597 48.5645 53.6322C47.6084 52.7196 46.5278 52.1855 45.223 51.8996C41.9999 51.1934 39.5379 49.4628 38.3467 46.2303C38.1436 45.6791 37.7157 45.5648 37.2032 45.6131C36.7802 45.6529 36.3591 45.714 35.9367 45.7629C34.7811 45.8967 33.7206 46.2115 33.0323 47.2622C32.9655 47.3641 32.8607 47.4459 32.7611 47.5212C30.5542 49.1936 28.1465 49.8778 25.4127 49.0641C23.6399 48.5367 23.2296 47.5991 24.1117 45.9565C25.3511 43.6491 26.8731 41.5173 28.2392 39.2884C28.379 39.0607 28.5944 38.8668 28.6088 38.5198C25.9922 38.6302 23.393 38.7353 20.7947 38.854C20.3167 38.876 20.1199 39.2428 19.9922 39.6434C18.541 44.1884 17.0969 48.7358 15.6356 53.2776C15.5105 53.6664 15.6139 53.8668 15.9296 54.0864C16.7544 54.6595 17.5662 55.2537 18.3589 55.8706C18.6831 56.1223 18.9054 56.1525 19.2715 55.906C20.038 55.3898 20.8904 55.1351 21.8393 55.3395C23.3341 55.6615 24.1245 56.6941 24.6006 58.0488C24.7021 58.3373 24.726 58.6577 25.1749 58.5328C27.0902 57.9991 29.3426 59.7409 29.5064 61.6227C29.5371 61.9776 29.6511 62.1245 30.0637 62.1088C31.9583 62.0358 33.2981 62.8551 33.9265 64.6961C34.028 64.9932 34.1796 65.0622 34.4678 65.082C36.7838 65.2404 37.419 65.8641 37.7393 68.2504C37.773 68.4988 37.7867 68.7808 38.0765 68.8705C39.2314 69.2284 40.3889 69.4124 41.6384 68.8935C40.0284 67.6 38.5025 66.3768 36.9802 65.1493C36.6495 64.8825 36.31 64.6288 36.1498 64.1976C35.9979 63.7874 36.102 63.4532 36.3771 63.1591C36.6603 62.8561 36.9966 62.7723 37.4017 62.9379C37.807 63.1039 38.1217 63.3918 38.458 63.6514C39.9095 64.773 41.3437 65.918 42.8104 67.0189C44.0949 67.9832 45.4476 67.8954 46.65 66.8208C44.4531 65.0195 42.2576 63.2219 40.0664 61.419C39.7566 61.1643 39.4341 60.9135 39.1757 60.6105C38.8087 60.181 38.77 59.6814 39.1469 59.2345C39.5363 58.7721 40.0202 58.7872 40.4947 59.1076C40.7219 59.2608 40.9312 59.4475 41.1253 59.6423C43.2691 61.7936 45.7436 63.5114 48.2806 65.1464C49.0367 65.6337 49.8802 65.7195 50.7423 65.5785C51.465 65.4599 51.632 64.8394 51.8036 64.2544C51.949 63.7575 51.5858 63.5489 51.2672 63.2879C48.5648 61.0736 45.8697 58.8506 43.1781 56.6228C42.6971 56.2248 42.4878 55.7565 42.9541 55.1922C43.3971 54.6562 43.959 54.5971 44.5363 55.0529C44.8713 55.3171 45.1905 55.6024 45.5091 55.8873C47.7787 57.9173 50.1899 59.7708 52.597 61.629C53.376 62.2304 54.1173 62.1968 54.6877 61.5882C55.2427 60.996 55.2581 60.1938 54.6697 59.4655C54.2921 58.9975 53.8684 58.5618 53.429 58.1503Z" fill="#296398"/>
<path fill-rule="evenodd" clip-rule="evenodd" d="M52.4041 40.7984C52.0288 40.0192 51.4604 39.5388 50.6113 39.336C48.0042 38.7142 45.4443 37.9212 42.8761 37.1581C40.7137 36.516 38.5925 36.5436 36.4926 37.4986C35.379 38.005 34.1963 38.359 33.0424 38.7753C31.5486 39.315 30.1605 40.0623 29.3017 41.435C28.1582 43.2629 27.1399 45.17 25.802 47.0373C28.1415 47.5398 30.1733 47.2726 31.7447 45.5253C32.7591 44.3974 33.9723 43.8778 35.4298 43.7463C36.1773 43.679 36.9147 43.5255 37.638 43.3076C39.3669 42.7864 39.4527 42.8373 39.9386 44.5614C39.9524 44.6097 39.9616 44.6593 39.9753 44.7076C40.6633 47.1175 42.1872 48.7282 44.568 49.4896C45.402 49.7561 46.2527 49.978 47.1077 50.1646C47.8696 50.3313 48.4764 50.6977 49.0448 51.2334C50.9476 53.0281 52.8851 54.786 54.8199 56.5458C55.0072 56.7164 55.1893 57.1328 55.5426 56.7575C56.4211 55.8248 57.5741 55.2927 58.6314 54.6239C58.9903 54.3969 59.0282 54.2263 58.8324 53.8523C56.5826 49.5544 54.5089 45.1684 52.4041 40.7984Z" fill="#296398"/>
<path fill-rule="evenodd" clip-rule="evenodd" d="M25.285 60.7493C24.3367 61.0644 23.3544 62.5121 23.3481 63.5118C23.3413 64.6749 24.2905 65.2924 25.3446 64.804C26.2755 64.3722 26.896 63.6466 27.2781 62.704C27.4965 62.1647 27.6059 61.6057 27.1006 61.1824C26.5836 60.7496 25.9539 60.5268 25.285 60.7493Z" fill="#296398"/>
<path fill-rule="evenodd" clip-rule="evenodd" d="M30.4404 64.3059C30.3565 64.3213 30.1761 64.3282 30.016 64.3894C29.1352 64.7242 28.253 66.3369 28.4384 67.2534C28.6093 68.1017 29.4793 68.5223 30.1506 68.0202C30.8163 67.5223 31.3598 66.8795 31.628 66.0707C31.9466 65.1101 31.4194 64.2934 30.4404 64.3059Z" fill="#296398"/>
<path fill-rule="evenodd" clip-rule="evenodd" d="M21.7558 57.48C21.3158 57.2773 20.9402 57.3739 20.5924 57.7009C20.0947 58.1702 19.6677 58.694 19.4055 59.327C19.0833 60.1049 19.5908 60.8479 20.4078 60.8367C21.2958 60.8249 22.5948 59.5179 22.5905 58.6174C22.5247 58.0998 22.2523 57.7088 21.7558 57.48Z" fill="#296398"/>
<path fill-rule="evenodd" clip-rule="evenodd" d="M34.883 67.2882C34.1341 67.2602 33.4056 68.2024 33.3948 69.2354C33.3898 69.6839 33.6259 69.9229 34.0821 69.9409C34.862 69.9722 35.7075 69.1387 35.7317 68.3079C35.7494 67.7128 35.4121 67.3079 34.883 67.2882Z" fill="#296398"/>
<path fill-rule="evenodd" clip-rule="evenodd" d="M49.9773 14.8487C50.9269 14.803 52.1833 15.6884 52.1941 16.3962C52.2046 17.1133 51.6826 17.1636 51.3974 17.1784C50.1168 17.184 48.977 16.3463 49.0064 15.6009C49.0313 14.965 49.5068 14.871 49.9773 14.8487ZM14.3467 31.4571C15.4917 32.0444 16.6362 32.6316 17.7812 33.2183C16.5022 31.1869 15.5913 28.9065 15.0602 26.3681C14.8771 25.4923 14.7118 24.6089 14.7724 23.8277C14.7563 23.6191 14.7422 23.5339 14.7439 23.4488C14.7609 22.8126 14.3624 21.9088 15.1165 21.6551C15.8349 21.4136 16.4105 22.1412 16.8673 22.7173C17.2999 23.2631 17.626 23.925 17.6385 24.5849C17.6637 25.9369 18.5039 26.3251 19.5795 26.4946C20.719 26.6741 21.7279 26.9307 21.963 28.3294C22.055 28.8746 22.5334 28.8474 22.9892 28.6699C23.3464 28.5312 23.78 28.384 24.0354 28.7747C24.2649 29.1247 24.0527 29.5132 23.8713 29.8606C23.6356 30.3137 23.3176 30.7479 23.1932 31.2316C22.9064 32.3477 22.889 33.4776 23.888 34.287C24.6847 34.9331 25.0839 35.6752 25.2374 36.4876C25.649 36.4701 26.0587 36.453 26.4653 36.4363L31.7565 36.2131L31.7404 36.5963C31.7915 36.5405 31.8429 36.4849 31.8937 36.4291C32.5807 35.6709 33.3128 34.9436 33.7689 34.0119C34.3364 32.8522 34.0702 32.1308 32.8429 31.7837C31.285 31.343 30.1926 30.3101 29.1464 29.1684C28.4526 28.4116 27.707 27.6961 26.6782 27.4224C25.7525 27.1762 24.9368 27.5545 24.11 27.9255C23.0933 28.3817 22.5943 28.0764 22.4623 26.981C22.4267 26.6859 22.4486 26.3839 22.445 26.0848C22.4244 24.3966 22.1264 24.1715 20.5995 24.7095C20.2403 24.8363 19.85 25.0772 19.5412 24.721C19.256 24.3923 19.4433 24.0026 19.5972 23.6404C20.2891 22.0114 21.2966 21.5861 22.8536 22.364C23.5314 22.7025 23.6104 22.2237 23.6873 21.8336C23.8468 21.0304 24.11 20.2725 24.4853 19.5518C25.4594 17.6819 27.1179 16.8586 29.0947 16.506C30.7503 16.2109 31.1245 15.3909 30.2489 13.9305C29.594 12.8384 28.617 12.093 27.4863 11.5367C26.5927 11.0969 26.1379 11.3543 26.0449 12.3635C25.834 14.6518 25.3049 14.8822 23.4044 13.5515C22.2678 12.7562 22.2426 12.1272 23.3432 11.2609C23.7774 10.9192 24.239 10.6066 24.7161 10.3283C25.4165 9.9191 25.9368 9.4646 25.8209 8.52108C25.7446 7.90323 26.0161 7.37643 26.7699 7.51051C27.4503 7.63178 27.7044 8.12967 27.4234 8.75145C27.2145 9.21385 27.2853 9.46788 27.725 9.65455C28.2627 9.88328 28.8115 10.3506 29.3901 10.0193C29.7928 9.78863 29.6121 9.24342 29.5142 8.83525C29.2807 7.86117 28.7781 7.14408 27.742 6.85915C27.0246 6.6623 26.335 6.35601 26.5554 5.36812C26.7168 4.64281 28.2221 3.22507 28.7768 3.25662C28.968 3.26746 29.1464 3.32004 29.1396 3.51197C29.0947 4.793 29.9958 4.49723 30.7313 4.49953C32.5217 4.50478 33.0214 5.0822 32.6638 6.8861C32.3577 8.42873 32.9287 9.65291 33.9045 10.7394C34.3996 11.2899 35.0548 11.4049 35.1763 10.4913C35.3436 9.23159 36.1298 8.66666 37.141 8.20723C37.6036 7.99657 38.0666 7.76455 38.4818 7.4737C39.528 6.74018 39.5817 6.03361 38.733 5.06018C38.511 4.80582 38.2808 4.53732 38.1433 4.23497C37.9461 3.80183 37.8472 3.27173 38.1121 2.87967C38.4059 2.44455 38.879 2.75971 39.2788 2.84582C41.8502 3.39826 44.1869 4.48211 46.3319 5.99253C46.5536 6.14831 46.9407 6.26563 46.793 6.64981C46.6862 6.92718 46.3608 6.86474 46.1175 6.88741C44.9161 7.00014 43.7894 7.35507 42.7337 7.9338C42.0398 8.31469 41.6168 8.86516 41.787 9.70615C41.898 10.2527 42.0254 10.8584 42.6384 11.0309C43.1724 11.1814 43.6171 10.8511 43.976 10.4656C44.6224 9.77089 45.2946 9.12347 46.2854 8.96967C47.4587 8.7876 47.9708 9.19906 47.8938 10.3095C47.8568 10.8406 48.1637 10.8452 48.5284 10.8442C48.9453 10.8432 49.1391 11.0822 49.1823 11.4765C49.2288 11.9001 48.9584 11.9751 48.6299 11.9859C48.1925 12.0004 48.1152 12.328 47.9924 12.6619C47.5847 13.7707 46.4393 14.2371 45.4878 13.5082C44.7006 12.9048 44.0261 13.0379 43.2415 13.288C42.1495 13.6367 41.0221 13.8969 40.0712 14.5838C39.7634 14.8063 39.418 15.0439 39.4838 15.4991C39.5486 15.9513 39.9412 16.1028 40.3004 16.2112C42.0061 16.7269 43.8309 16.6762 45.5166 17.3322C45.9348 17.4949 46.2704 17.0193 46.6227 16.7968C47.217 16.4212 47.682 16.2674 47.9214 17.2067C48.109 17.9431 48.796 18.4529 48.9643 19.2376C49.0618 19.6915 49.5124 19.5952 49.8254 19.5561C51.2603 19.3773 51.7406 19.9685 51.7986 21.4277C51.8749 23.3561 52.3094 25.2422 54.056 26.5019C54.4568 26.7914 54.243 28.4813 53.7855 28.7192C53.1356 29.057 52.7773 28.4744 52.4482 28.0813C51.5285 26.9827 51.1244 25.6099 50.6126 24.3062C50.033 22.829 49.3326 21.6088 47.4577 21.6936C47.0235 21.713 46.552 21.4668 46.1378 21.2614C43.069 19.7398 41.0228 20.145 38.7886 22.7754C38.045 23.6516 37.2919 24.5323 36.8646 25.6244C36.4425 26.7033 36.2991 27.8003 37.0539 28.7866C37.8279 29.7975 38.8941 29.6759 39.9694 29.3965C40.1744 29.343 40.3951 29.3462 40.5965 29.2835C43.5051 28.3745 44.1299 30.0844 43.7409 32.1679C43.5654 33.1091 43.4157 34.0497 43.2949 34.9916C43.44 35.0297 43.5854 35.0685 43.7314 35.1119C44.1184 35.2269 44.5055 35.3426 44.8928 35.4583C46.698 35.9979 48.422 36.5122 50.1601 36.9605C50.407 36.3955 50.8159 35.8842 51.3778 35.4684C52.3549 34.7454 53.3356 34.0185 54.3173 33.2902C55.2361 31.6152 55.9627 29.7971 56.4637 27.8565C56.7921 26.5807 56.7296 25.235 57.2574 24.0091V20.9334C56.9715 19.5686 56.7345 18.1913 56.392 16.8409C53.5861 5.7707 42.4825 -1.5885 31.3197 0.293612C18.8896 2.38934 11.3303 13.7418 12.5772 24.8919C12.8378 27.2206 13.4482 29.4238 14.3467 31.4571Z" fill="#296398"/>
</svg>
