<svg xmlns="http://www.w3.org/2000/svg" width="28" height="28" viewBox="0 0 28 28"><g><g><path fill="#fff" d="M19.157 17.47v-.442c0-.184-.03-.309-.095-.39-.058-.081-.153-.118-.284-.118-.139 0-.233.037-.292.118-.065.081-.087.214-.087.39v.443zm-.338-1.709c.398 0 .707.11.921.324.214.221.317.538.317.95v1.113h-1.658v.818c0 .229.022.383.081.472.059.088.155.133.295.133.147 0 .25-.037.302-.111.059-.074.088-.243.088-.494v-.199h.892v.221c0 .45-.103.781-.324 1.01-.221.22-.546.339-.98.339-.384 0-.693-.125-.914-.361-.228-.236-.339-.568-.339-.988v-1.952c0-.376.125-.685.368-.921.251-.236.56-.354.951-.354zm3.957.59c0-1.732-1.4-3.14-3.14-3.14H8.74a3.142 3.142 0 0 0-3.139 3.14v2.527a3.142 3.142 0 0 0 3.139 3.139h10.898a3.137 3.137 0 0 0 3.139-3.14zM8.856 5.217l1.312 3.912v2.58h1.098V9.011l1.282-3.795h-1.12l-.677 2.586h-.074l-.715-2.586zm4.165 1.909c-.258.221-.392.517-.392.886v2.487c0 .406.126.73.385.974.259.237.599.362 1.035.362.443 0 .79-.118 1.05-.354.25-.23.376-.554.376-.96v-2.48c0-.369-.126-.664-.384-.9-.266-.23-.592-.347-.998-.347-.45 0-.806.11-1.072.332zm3.241 3.787c0 .294.059.508.17.648.117.14.287.214.515.214.185 0 .369-.052.568-.155a2.17 2.17 0 0 0 .56-.442v.523h.98v-4.79h-.98v3.64a1.25 1.25 0 0 1-.302.258c-.11.067-.2.104-.273.104a.25.25 0 0 1-.199-.081.416.416 0 0 1-.066-.244V6.912h-.973zM28 14c0 7.73-6.27 14-14 14S0 21.73 0 14 6.27 0 14 0s14 6.27 14 14zm-15.25 5.401a1.28 1.28 0 0 0 .264-.228v-3.309h.867v4.348h-.867v-.472c-.154.177-.323.31-.499.398-.169.096-.338.14-.5.14-.198 0-.352-.066-.454-.192-.103-.132-.155-.324-.155-.582v-3.64h.867v3.338c0 .103.022.177.058.221.037.052.096.074.177.074a.542.542 0 0 0 .242-.096zm3.402-2.446c0-.155-.03-.258-.096-.34-.06-.073-.155-.11-.273-.11a.392.392 0 0 0-.177.044.507.507 0 0 0-.184.133v2.704c.074.074.14.126.206.155.067.03.14.052.214.052.103 0 .184-.037.229-.096.051-.06.08-.162.08-.302zm.685-.862c.141.184.215.456.215.81v2.417c0 .302-.067.538-.207.707-.133.162-.333.244-.592.244a.99.99 0 0 1-.45-.096 1.146 1.146 0 0 1-.378-.295v.332h-.88v-5.888h.88v1.894c.118-.133.244-.229.377-.302a.894.894 0 0 1 .4-.103c.28 0 .488.095.635.28zm-3.095-5.21c-.074-.074-.103-.177-.103-.31V7.972c0-.103.03-.191.11-.25a.412.412 0 0 1 .288-.096.48.48 0 0 1 .317.096.293.293 0 0 1 .118.25v2.601a.404.404 0 0 1-.118.31.482.482 0 0 1-.317.102.41.41 0 0 1-.295-.103zm-5.718 3.441h3.007v.855h-1.017v5.033h-.98v-5.033h-1.01z"/></g></g></svg>