<svg width="9" height="293" viewBox="0 0 9 293" fill="none" xmlns="http://www.w3.org/2000/svg">
<path d="M4.79136 0.646447C4.5961 0.451184 4.27951 0.451184 4.08425 0.646447L0.902271 3.82843C0.707009 4.02369 0.707009 4.34027 0.902271 4.53553C1.09753 4.7308 1.41412 4.7308 1.60938 4.53553L4.43781 1.70711L7.26623 4.53553C7.46149 4.7308 7.77808 4.7308 7.97334 4.53553C8.1686 4.34027 8.1686 4.02369 7.97334 3.82843L4.79136 0.646447ZM4.08424 292.854C4.2795 293.049 4.59608 293.049 4.79134 292.854L7.97332 289.672C8.16858 289.476 8.16858 289.16 7.97332 288.964C7.77806 288.769 7.46148 288.769 7.26622 288.964L4.43779 291.793L1.60936 288.964C1.4141 288.769 1.09752 288.769 0.902255 288.964C0.706993 289.16 0.706993 289.476 0.902255 289.672L4.08424 292.854ZM3.93781 1L3.93781 3.02431L4.93781 3.02431L4.93781 1L3.93781 1ZM3.93781 7.07292L3.9378 11.1215L4.9378 11.1215L4.93781 7.07292L3.93781 7.07292ZM3.9378 15.1701L3.9378 19.2187L4.9378 19.2188L4.9378 15.1701L3.9378 15.1701ZM3.9378 23.2674L3.9378 27.316L4.9378 27.316L4.9378 23.2674L3.9378 23.2674ZM3.9378 31.3646L3.9378 35.4132L4.9378 35.4132L4.9378 31.3646L3.9378 31.3646ZM3.9378 39.4618L3.9378 43.5104L4.9378 43.5104L4.9378 39.4618L3.9378 39.4618ZM3.9378 47.559L3.9378 51.6076L4.9378 51.6076L4.9378 47.559L3.9378 47.559ZM3.9378 55.6562L3.9378 59.7049L4.9378 59.7049L4.9378 55.6562L3.9378 55.6562ZM3.9378 63.7535L3.9378 67.8021L4.9378 67.8021L4.9378 63.7535L3.9378 63.7535ZM3.9378 71.8507L3.9378 75.8993L4.9378 75.8993L4.9378 71.8507L3.9378 71.8507ZM3.9378 79.9479L3.9378 83.9965L4.9378 83.9965L4.9378 79.9479L3.9378 79.9479ZM3.9378 88.0452L3.9378 92.0938L4.9378 92.0938L4.9378 88.0452L3.9378 88.0452ZM3.9378 96.1424L3.9378 100.191L4.9378 100.191L4.9378 96.1424L3.9378 96.1424ZM3.9378 104.24L3.9378 108.288L4.9378 108.288L4.9378 104.24L3.9378 104.24ZM3.9378 112.337L3.9378 116.385L4.9378 116.385L4.9378 112.337L3.9378 112.337ZM3.9378 120.434L3.9378 124.483L4.9378 124.483L4.9378 120.434L3.9378 120.434ZM3.9378 128.531L3.9378 132.58L4.9378 132.58L4.9378 128.531L3.9378 128.531ZM3.9378 136.629L3.9378 140.677L4.9378 140.677L4.9378 136.629L3.9378 136.629ZM3.9378 144.726L3.9378 148.774L4.9378 148.774L4.9378 144.726L3.9378 144.726ZM3.9378 152.823L3.9378 156.872L4.9378 156.872L4.9378 152.823L3.9378 152.823ZM3.9378 160.92L3.9378 164.969L4.9378 164.969L4.9378 160.92L3.9378 160.92ZM3.9378 169.017L3.9378 173.066L4.9378 173.066L4.9378 169.017L3.9378 169.017ZM3.9378 177.115L3.9378 181.163L4.9378 181.163L4.9378 177.115L3.9378 177.115ZM3.93779 185.212L3.93779 189.261L4.93779 189.261L4.93779 185.212L3.93779 185.212ZM3.93779 193.309L3.93779 197.358L4.93779 197.358L4.93779 193.309L3.93779 193.309ZM3.93779 201.406L3.93779 205.455L4.93779 205.455L4.93779 201.406L3.93779 201.406ZM3.93779 209.504L3.93779 213.552L4.93779 213.552L4.93779 209.504L3.93779 209.504ZM3.93779 217.601L3.93779 221.649L4.93779 221.649L4.93779 217.601L3.93779 217.601ZM3.93779 225.698L3.93779 229.747L4.93779 229.747L4.93779 225.698L3.93779 225.698ZM3.93779 233.795L3.93779 237.844L4.93779 237.844L4.93779 233.795L3.93779 233.795ZM3.93779 241.893L3.93779 245.941L4.93779 245.941L4.93779 241.893L3.93779 241.893ZM3.93779 249.99L3.93779 254.038L4.93779 254.038L4.93779 249.99L3.93779 249.99ZM3.93779 258.087L3.93779 262.136L4.93779 262.136L4.93779 258.087L3.93779 258.087ZM3.93779 266.184L3.93779 270.233L4.93779 270.233L4.93779 266.184L3.93779 266.184ZM3.93779 274.281L3.93779 278.33L4.93779 278.33L4.93779 274.281L3.93779 274.281ZM3.93779 282.379L3.93779 286.427L4.93779 286.427L4.93779 282.379L3.93779 282.379ZM3.93779 290.476L3.93779 292.5L4.93779 292.5L4.93779 290.476L3.93779 290.476Z" fill="black"/>
</svg>
