<?xml version="1.0" encoding="UTF-8"?>
<!DOCTYPE svg PUBLIC "-//W3C//DTD SVG 1.1//EN" "http://www.w3.org/Graphics/SVG/1.1/DTD/svg11.dtd">
<!-- Creator: CorelDRAW 2020 -->
<svg xmlns="http://www.w3.org/2000/svg" xml:space="preserve" width="186.992mm" height="235.02mm" version="1.1" style="shape-rendering:geometricPrecision; text-rendering:geometricPrecision; image-rendering:optimizeQuality; fill-rule:evenodd; clip-rule:evenodd"
viewBox="0 0 17992.22 22613.39"
 xmlns:xlink="http://www.w3.org/1999/xlink"
 xmlns:xodm="http://www.corel.com/coreldraw/odm/2003">
 <defs>
  <style type="text/css">
   <![CDATA[
    .fil7 {fill:#1A0000}
    .fil8 {fill:#370809}
    .fil1 {fill:#371923}
    .fil14 {fill:#530203}
    .fil10 {fill:#581618}
    .fil2 {fill:#582628}
    .fil3 {fill:#683137}
    .fil18 {fill:#6B0A0B}
    .fil4 {fill:#70112A}
    .fil0 {fill:#71484B}
    .fil15 {fill:#881617}
    .fil9 {fill:#982628}
    .fil16 {fill:#9C0B12}
    .fil5 {fill:#A82936}
    .fil13 {fill:#B4141A}
    .fil12 {fill:#B82628}
    .fil20 {fill:#C73746}
    .fil6 {fill:#C82836}
    .fil19 {fill:#CC141A}
    .fil11 {fill:#E72737}
    .fil17 {fill:#EB1C23}
   ]]>
  </style>
 </defs>
 <g id="Слой_x0020_1">
  <metadata id="CorelCorpID_0Corel-Layer"/>
  <g id="_1131368248">
   <g>
    <path class="fil0" d="M6185.97 16463.72c63.52,93.94 3.62,43.42 96.01,62.07l4.37 -90.2c-34.63,5.52 -81.12,4.57 -100.38,28.12z"/>
    <path class="fil0" d="M11922.49 20638.83c86.29,56.74 17.21,53.41 107.65,0 -113.77,-67.2 -25.87,-50.62 -107.65,0z"/>
   </g>
   <g>
    <path class="fil1" d="M6016.25 12967.5c46.03,169.19 162.1,145.65 163.9,-28.12 -70.1,11.77 -77.34,18.62 -163.9,28.12z"/>
    <path class="fil1" d="M4494.58 14896.48c99.63,-19.64 104.5,-24.52 124.14,-124.13 -111.14,5.34 -109.38,-4.08 -124.14,124.13z"/>
    <path class="fil1" d="M8210.97 6903.17c115.29,29.2 144.13,-2.51 70.8,-104.74 -48.87,14.37 -87.61,-5.71 -70.8,104.74z"/>
    <path class="fil1" d="M8629.93 2478.81c63.52,93.94 3.62,43.42 96.01,62.07l4.37 -90.2c-34.63,5.52 -81.11,4.57 -100.38,28.12z"/>
    <path class="fil1" d="M3843.84 12322.56c0,40.44 72.7,74.22 52.33,0 -19.43,-70.81 -52.33,-61.78 -52.33,0z"/>
    <path class="fil1" d="M8494.16 6314.48c0,40.44 72.69,74.22 52.33,0 -19.43,-70.81 -52.33,-61.78 -52.33,0z"/>
    <path class="fil1" d="M13008.7 4685.18c1.69,11.17 95.9,76.34 55.09,-2.74 -29.84,-57.81 -65.57,-66.63 -55.09,2.74z"/>
    <path class="fil1" d="M12635.32 17923.31c7.46,38.7 78.38,82.36 45.51,6.82 -20.7,-47.58 -54.25,-52.12 -45.51,-6.82z"/>
    <path class="fil1" d="M3402.57 13510.6c0,78.84 41.86,5.04 20.96,0 -0.41,-0.1 -20.96,-87.52 -20.96,0z"/>
    <path class="fil1" d="M6321.75 15241.74c3.27,3.27 9.8,-14.45 9.81,-9.83 0.01,1.91 4.19,-4.17 4.05,-4.03 -0.81,0.79 -59.45,-31.72 -13.87,13.87z"/>
   </g>
   <g>
    <path class="fil2" d="M9105.15 7304.67c105.23,-87.29 105.23,-161.95 0,-249.25 -90.36,84.33 -119.28,150.3 0,249.25z"/>
    <path class="fil2" d="M11067.13 18695.44c217.3,14.15 214.85,-122.13 46.53,-155.32l-46.53 155.32z"/>
    <path class="fil2" d="M5371.31 15145.73c104.77,-86.96 104.77,-94.39 0,-181.35 -92.82,86.65 -120.62,81.24 0,181.35z"/>
    <path class="fil2" d="M5976.48 16050.58l4.66 -124.14 -128.78 -4.66c2.18,136.38 -8.17,127.42 124.12,128.8z"/>
    <path class="fil2" d="M8505.79 3661.04c98.36,-76.32 68.57,-45.17 10.67,-124.14 -76.23,69.42 -81.6,31.7 -10.67,124.14z"/>
    <polygon class="fil2" points="10499.74,4140.2 10572.26,4054.37 10468.72,4041.69 "/>
    <path class="fil2" d="M10935.21 8054.35l-98.8 -10.59c18.29,13.61 -13,72.35 98.8,10.59z"/>
    <path class="fil2" d="M12194.04 21725.03c32.85,32.85 107.31,-43.66 39.16,-18.2 -0.82,0.31 -85.23,-27.87 -39.16,18.2z"/>
   </g>
   <g>
    <path class="fil3" d="M12046.64 11825.04c155.33,49.17 197.91,-69.56 159.05,-193 -108.25,-8.53 -192.27,62.36 -159.05,193z"/>
    <path class="fil3" d="M15789.2 16873.95c104.99,-42.67 141.35,-88.67 62.06,-197.84 -156.13,-3.32 -184.5,97.54 -62.06,197.84z"/>
    <path class="fil3" d="M11879.82 18559.52c85.55,-117.81 28.33,-166.32 -87.28,-189.12 -67.4,111.38 -45.12,168.2 87.28,189.12z"/>
    <path class="fil3" d="M15076.37 4959.63c316.61,-129.14 -232.84,-299.29 0,0z"/>
    <path class="fil3" d="M11617 22200.25c62.45,95.13 37.44,78.95 127.05,93.11 71.27,-98.16 71.27,-54.11 0,-152.27 -104.99,17.11 -13.21,-13.51 -127.05,59.16z"/>
    <path class="fil3" d="M7509.78 4351.55c118.78,-98.6 99.49,-137.32 -36.85,-178.45 -55.97,106.88 -59.68,98.37 36.85,178.45z"/>
    <path class="fil3" d="M16572.82 17487.86c95.3,-79.05 94.83,-73.24 36.85,-178.45 -124.96,42.2 -163.91,72.98 -36.85,178.45z"/>
    <path class="fil3" d="M9614.3 22030.53l85.03 100.92 57.71 -125.12c-74.15,-3.57 -109.21,-13.59 -142.74,24.2z"/>
    <path class="fil3" d="M7679.5 5635.6c77.11,107.87 37.71,89.95 129.95,22.31 -46.81,-60.3 -85.65,-72.66 -129.95,-22.31z"/>
    <path class="fil3" d="M11209.67 6246.59c125.46,59.38 31.75,41.05 107.65,0 -113.78,-67.19 -25.87,-50.61 -107.65,0z"/>
   </g>
   <g>
    <path class="fil4" d="M4477.13 18274.39c140.88,44.35 206.04,-39.97 289.01,-147.42l-100.3 -109.18c-152.36,23.78 -243.67,91.54 -188.71,256.6z"/>
    <path class="fil4" d="M16646.52 9804.89c86.33,-1.08 212.2,-58.66 268.64,-127.05 -31,-103.26 -6.07,-69.47 -101.83,-141.59 -138.91,46.71 -175.83,109.16 -166.81,268.63z"/>
    <path class="fil4" d="M10392.11 5055.65c15.93,130.68 -14.33,71.02 79.53,163.9l156.65 -58.83c9.04,-145.23 17.01,-122.86 -94.58,-206.91 -80.84,27.19 -82.54,17.38 -141.6,101.84z"/>
    <path class="fil4" d="M6253.85 9103.71c104.49,-87.3 151.08,-233.83 -2.91,-280.29 -48.94,92.98 -97.57,196.88 2.91,280.29z"/>
    <path class="fil4" d="M16174.22 15844.01l105.9 -4.99c36.73,-128.94 17.53,-151.76 -83.6,-192.85 -81.5,75.71 -107.27,81.04 -22.3,197.85z"/>
   </g>
   <g>
    <path class="fil5" d="M6163.66 3882.15c36.43,-109.14 21.85,-197.97 22.82,-317.56 1.43,-177.16 49.5,-227.35 -105.25,-274.03 -84.28,160.74 31.37,48.72 -77.49,366.81 -48.48,141.65 10.23,262.86 159.92,224.79z"/>
    <path class="fil5" d="M9469.8 20053.05c83.88,-115.45 53.44,-202.21 -22.3,-299.67 -73.48,29.87 -117.85,48.29 -101.79,166.52 14.46,106.48 54.28,121.8 124.09,133.16z"/>
    <path class="fil5" d="M8906.81 546.63l5.03 179.53c185.02,54.01 263.87,-95.57 113.78,-244.21l-118.81 64.69z"/>
   </g>
   <g>
    <path class="fil6" d="M13559.88 1230.97c-9.32,107.62 11.12,144.57 49.52,239.82 100.69,36.88 78.67,24.79 186.44,16.64 54.46,-4.12 69.86,3.15 136.95,-50.77 242.14,-194.62 168.87,-51.52 342.12,-101.64 58.57,-167.94 -147.57,-237.87 -282.44,-249.47 -187.1,-16.09 -305.28,22.18 -432.59,145.43z"/>
    <path class="fil6" d="M7799.5 14053.7c124.31,129.23 158.99,214.32 312.55,59.17l-25.22 -96.7c-117.01,13.34 -242.26,-43.85 -287.33,37.54z"/>
    <path class="fil6" d="M6662.25 13979.95c136.29,-1.31 127.53,7.46 128.9,-124.08l-123.59 -4.66 -5.3 128.74z"/>
   </g>
   <g>
    <path class="fil7" d="M10858.6 16950.57l-16.68 -260.88c124.21,-11.18 149.74,13.99 226.16,91.16 -44.91,71.7 -133.66,174.98 -209.48,169.72zm-235.15 -1199.68c16.04,191.34 -14.48,346.76 -22.27,520.3 -7.81,174.1 4.42,65.31 70.79,186.23 278.16,506.74 -34.1,821.37 237.34,1094.41l-36.32 99.92c121.9,-84.43 60.77,-60.65 116.12,-152.44 38.67,-64.13 105.35,-110.7 152.68,-157.97l-203.3 13.04c-52.94,-99.76 -59.86,-215.37 -42.49,-325.46 111.59,-127.09 180.05,-60.55 257.72,-284.58 -67.55,-55.75 -120.94,-150.66 -155.15,-172.66 -96.49,-62 10.34,-11.56 -117.44,60.05 -32.26,-164.27 -65.99,-153.99 -132.58,-284.97 -70.79,-139.24 -22.93,-148 66.51,-221.47 -115.67,-80.06 -126.1,-49.73 -73.68,-229.28 30.37,-104.03 43.9,-144.22 72.17,-262.71 -6.57,3.51 -15.42,4.04 -17.85,13.46 -1.48,5.75 -67.07,79.02 -172.23,104.12z"/>
    <path class="fil7" d="M6898.79 13174.02l181.51 -41.94 -23.52 174.85 79.61 74.82 82.07 -201.3c122.27,-47.11 94.42,-6.58 174.92,-107.27 -184.63,-87.99 -88,34.66 -228.92,3.17 -85.17,-19.04 -163.33,-43.75 -265.67,-61.7l37.03 89.86 -37.03 69.51z"/>
    <path class="fil7" d="M6695.12 14800.47c37.76,-24.44 -39.71,-59.85 62.07,11.63l-47.72 53.15c-28.85,-34.18 -8.85,-54.91 -14.36,-64.78zm-113.63 169.72l67.77 -28.76 45.87 80.9 151.37 -33.74 -99.41 -116.08c74.95,-122.67 76.72,-69.53 72.24,-192.83l-156.48 8.27 -81.35 282.24z"/>
    <path class="fil7" d="M7272.18 14393.73l-217.73 56.06c130.17,134.49 326.41,125.34 416.17,-23.92l-148.18 -32.72c5.47,72.11 24.98,47.28 -38.62,96.02 -60.75,-82.59 -48.1,-1.65 -11.63,-95.43z"/>
    <path class="fil7" d="M9574.47 17425.19c241.2,-57.42 204.11,-180.85 205.03,-214.83 -199.41,-9.54 -187.58,19.24 -205.03,214.83z"/>
    <path class="fil7" d="M10496.84 11688.84l57.28 -0.9c-43.46,140.63 -38.37,38.39 6.74,139.9l104.36 -16.74c57.53,-106.1 37.45,-95.61 -2.19,-201.37l-144.31 62.56c-5.38,3.12 -14.89,10.63 -21.87,16.55z"/>
    <path class="fil7" d="M4819.69 3327.42l139.83 63.2c28.86,-184.41 46.65,-59.03 93.41,-188.76 -115.37,-73.39 -178.77,35.3 -233.23,125.57z"/>
    <path class="fil7" d="M16688.76 5959.28c166.19,9.96 159.1,-51.05 160.36,-195.8 -103.77,18.84 -51.23,-28.84 -126.23,55.55 -41.46,46.65 -35.67,78.8 -34.13,140.25z"/>
    <path class="fil7" d="M13273.04 13464.71l129.74 1.94 16.21 -157.68 -82.42 -15.49c-92.79,95.45 -55.17,15.53 -63.53,171.23z"/>
    <path class="fil7" d="M269.76 12899.61l23.87 155.82c157.98,-26.8 156.62,-18.82 190.6,-157.01l-68.74 -64.64c-2.77,140.71 25.99,65.3 -45.58,161.85l-100.15 -96.02z"/>
    <path class="fil7" d="M13416.02 2697.42l-28.56 -71.01 62.5 -90.61c-128.86,-40.53 -165.47,-24.46 -184.98,102.56l151.04 59.06z"/>
   </g>
   <g>
    <path class="fil8" d="M3258.98 14494.98l105.65 33.1c10,181.35 -103.03,189.56 92.79,283.84 91.23,43.91 256.68,101.15 357.83,127.11 310.05,-248.99 80.2,-13.73 301.62,-134.49 -90,-329.42 -423.98,-132.79 -615.24,-372.1 37.26,-131.84 56.14,-158.01 169.14,-106.78 84.96,38.52 34.01,52.68 112.28,57.6 133.3,8.39 107.85,-57.6 128.67,-91.76 -149.57,3.76 -67.13,-13.55 -173.17,-43.31 -109.66,-30.77 -131.4,-23.78 -245.75,-30.39 -102.74,105.41 -120.44,189.71 -233.82,277.19z"/>
    <path class="fil8" d="M10700.35 9165.94l-68.51 168.34c-100.2,-74.06 -75.22,-50.1 -44.8,-146.2l113.31 -22.14zm-576.71 -305.67l30.53 95.6c192.58,18.19 140.25,-7.02 246.34,132.74 110.27,145.26 103.6,116.26 89.97,318.89 152.82,80.29 71.85,82.2 283.82,71.16 -11.2,-85.1 -31.66,-257.49 -73.95,-312.73 130.3,-23.17 30.89,-155.05 305.66,-174.99 -54.33,-160.66 -95.74,-262.51 -285.02,-215.17 -177.43,44.39 -173.06,127.93 -269.72,248.4 -208.06,-146.48 -46.8,-81.83 -327.63,-163.91z"/>
    <path class="fil8" d="M9416.92 3038.18c52.77,79.12 -59.91,11.55 76.96,70.12 47.41,20.29 58.77,17.41 120.16,19.22 89.4,2.66 188.1,-22.58 248.9,-13.34 38.92,114.66 -32.59,188.35 -75.89,285.5 -81.26,182.27 -20.77,168.79 0.65,338.72 -113.43,143.37 -136.96,131.56 -249.69,225.31 -149.37,124.22 -57.8,108.94 -240.13,110.46l32.1 116.38 278.61 -62.56c164.74,-73.9 166.81,-138.24 283.29,-348.27 142.94,-257.77 62.29,-142.86 14.27,-359.19 -62.56,-281.77 109.26,-61.86 35.78,-428.29 -228.36,86.61 -251.7,129.89 -525.01,45.93z"/>
    <path class="fil8" d="M4959.51 3390.62c88.4,59.25 36.51,22.64 151.88,60.94 36.39,146.29 -25.72,12.76 10.67,159.05 114.44,91.87 247.14,146.21 391.88,158.09l1.82 -107.19 -243.49 3.42 -84.49 -165.81c89.33,-96.47 106.94,-88.75 147.83,-159.85l341.19 -5.4 -41.05 -71.47c-153.84,69.55 -211.92,49.62 -304.22,-70.75l188.46 -160.9 -143.77 -76.34 29.02 -111.72c-141.71,-15.97 -72.93,-28.89 -201.64,12.65 -35.9,129.74 -50.71,262.44 70.63,320.78 -118.15,100.32 -159.17,162.74 -314.74,214.5z"/>
    <path class="fil8" d="M7918.09 13476.65l98.63 -167.07c164.34,25.07 157.36,32.66 265.05,141.86l-0.58 207.23c-181.89,55.59 -228.24,-59.07 -364.08,-147.52l-215.09 13.73c2.89,-64.01 1.65,-97.23 19.78,-161.02 26.65,-93.77 10.44,-43.51 58.57,-124.81 -84.06,61.06 -89.54,93.46 -111.44,195.61 -25.17,117.45 -9.69,118.72 44.52,240.45 483.14,-108.83 230.21,43.85 539.25,93.87 124.32,-203.64 57.26,-454.19 -29.11,-666.01 -172.98,1.01 -213.48,6.02 -287.17,226.51 -31.56,94.41 -31.94,8.98 -18.34,147.17z"/>
    <path class="fil8" d="M15407.18 15275.69c46.13,144.2 133.38,180.85 201.56,318.5 75.23,151.86 53.04,254.99 217.47,314.77 -1.22,-93.34 -144.34,-357.64 -161.16,-488.77 163.96,-117.46 58.35,119.46 234.7,-110.57 -76.37,-92.37 -96.22,-90.95 -212.39,-104.73l-163.75 147.75 -116.43 -76.96z"/>
    <path class="fil8" d="M10530.79 12791.33c212.6,-97.25 68.87,-128.85 194.39,-272.94 131.67,-151.16 139.41,-10.05 253.24,-207.42 -64.06,-25.82 -41.59,-99.54 -173.58,9.78 -101.44,84.02 27.77,60.21 -100,88.23 -53.66,-96.54 -12.3,-82.38 -2.93,-178.46 -201.02,-15.63 -214.31,-63.76 -374.78,-80 82.71,121.33 158.83,85.37 283.18,126.45 58.4,174.1 -1.45,190.64 -116.38,280.29l36.85 234.07z"/>
    <path class="fil8" d="M16557.43 7197.02c131.74,-48.21 70.99,-68.72 179.28,11.64 -94.9,136.11 -115.88,42.61 -197.85,209.96l178.27 -3.84 93.46 -110.25c30.22,-158.23 9.04,-126.91 76.61,-277.24l-133.49 33.51c-122.03,-75.28 -98.15,-43.72 -146.95,-167.56 -137.89,24.94 -147.24,86.35 -119.56,218.05 105.58,-29.79 95.36,-122.97 182.79,-18.43 -123.34,77.7 -43.92,-5.94 -112.56,104.14z"/>
    <path class="fil8" d="M16230.47 10390.67c68.22,89.9 110.57,177.82 197.85,192.02 126.58,-174.32 -47.66,-63.16 -26.1,-293.33 14.32,-152.89 131.76,-141.82 37.74,-311.84 -138.36,46.73 -169.1,262.57 -209.48,413.15z"/>
    <path class="fil8" d="M12024.33 13622.7c32.87,-139.61 35.18,-67.72 101.83,-192.55 -245.38,28.5 -394.21,-14.25 -467.11,217.06l54.19 106.25c98.45,-10.89 149.91,-73.27 209.49,-147.73l101.61 16.96z"/>
    <path class="fil8" d="M8867.54 15708.4c-58.57,-83.96 -76.22,-48.88 -93.1,-152.43 85.21,-58.06 0.15,-23.23 157.6,-8.73l-58.24 -42.43c3.24,-8.38 25.33,-45.4 26.98,-51.02 25.57,-87.42 21.27,43.58 4.34,-49.64 -136.99,-14.1 -151.59,-13.08 -241.91,52.55l-276.84 -84.96c15.66,81.21 -44.03,34.32 61.09,122.76 0.75,0.64 124.13,66.93 134.62,72.91 132.54,75.61 126.93,88.06 285.47,140.98z"/>
    <path class="fil8" d="M16653.57 6178.71c111.29,56.11 43.9,-9.84 117.09,113.47 -71.36,102.35 -50.58,90.75 -141.6,67.88 -25.96,-96.6 -39.3,11.15 11.63,-124.15l-135.77 3.73c31.07,154.92 -38.7,164.75 33.95,278.29 34.77,-15.52 228.61,-121.51 269.56,-150.56 13.11,-146.12 27.95,-218.43 -35.8,-353.2 -126.38,28.9 -104.47,32.96 -119.05,164.53z"/>
    <path class="fil8" d="M14168.52 10659.31c201.61,0 137.99,25.94 302.69,70.8l141.21 -101.21 -114.18 -208.17 37.95 -129.19c-150.53,122.2 -57.68,109.74 -152.65,209.57 -30.59,32.15 -70.19,48.07 -107.34,69.67 -82.47,47.96 -59.34,15.72 -107.67,88.54z"/>
    <path class="fil8" d="M16894.66 7740.13c168.18,-57.3 42.46,-8.19 215.44,-5.82 8.36,-107.76 -6.52,-229.11 23.32,-318.74 29.05,-87.21 36.45,20.31 35.51,-103.35 -0.07,-7.67 -18.22,-116.41 -19.08,-164.07l-82.56 43.47 28.88 213.55c-169.57,88.38 -185.21,105.45 -201.53,334.96z"/>
    <path class="fil8" d="M8910.21 6407.58l123.79 119.84c106.55,-82.65 107.83,-90.61 141.94,-215.85l-73.93 -127.4c-208.16,-20.77 -214.64,32.43 -191.8,223.41z"/>
    <path class="fil8" d="M10813.53 15633.32l145.44 -41.99c-0.09,139.12 -56.88,174.13 -38.02,280.45 152.11,31.03 75.48,32.02 173.19,-11.02 121,-270.06 -89.15,-33.22 -20.71,-347.47l-228.03 44.83 -31.89 75.2z"/>
    <path class="fil8" d="M5028.97 4212.86l132.49 -43.64c13.42,-169.17 -24.05,-299.2 -191.66,-326.83 -64.12,105.66 1.95,267.18 59.17,370.47z"/>
    <path class="fil8" d="M4764.76 15149.99c67.56,149.15 60.95,233.43 261.29,221.71 9.37,-165.71 -39.02,-209.06 -163.9,-305.5l-97.39 83.79z"/>
    <path class="fil8" d="M6344.05 13624.07l159.05 14.27c28.72,-127.22 -58.49,-302.5 -175.54,-325.59 -88.09,148.47 -17.01,34.96 1.96,137.95 12.34,66.94 -29.41,41.39 14.53,173.37z"/>
    <path class="fil8" d="M7237.79 13819.69l31.85 -28.12 172.25 10.86c-53.07,-70.25 -48.43,-51.06 -107.65,-122.12 68.91,-89.84 39.28,-73.5 137.12,-101.83l-199.18 -91.29 28.06 79.67 -102.48 107.09 40.04 145.73z"/>
    <path class="fil8" d="M15113.22 13342.08l-110.18 -93.15c12.49,-144 29.08,-130.42 76.24,-245.71 -133,14.67 -225.34,49.66 -261.96,168.09l295.89 170.77z"/>
    <path class="fil8" d="M8935.43 5737.44c2.62,136.08 -26.02,66.45 42.67,160.99l84.37 5.81c68.1,-99.45 44.72,-26.32 36.85,-160.98 -88.32,-29.15 -85.25,-32.16 -163.9,-5.82z"/>
    <path class="fil8" d="M14286.55 12025.33l0.32 96.17c17.12,3.54 18.08,67.02 113.15,-7.97l33.16 -52.35c25.4,-65.65 9.64,12.45 3.69,-51.45 -142.48,-53.31 -69.77,-31.22 -150.32,15.6z"/>
    <path class="fil8" d="M16915.17 10288.83c50.73,-91.72 50.73,-83.82 0,-175.53 -12.09,14 -56.54,45.25 -63.77,86.19 -23.32,132.02 15.58,67.85 63.77,89.34z"/>
    <path class="fil8" d="M5957.09 13366.1c75.22,51.36 60.56,31.87 132.87,-25.22 -57.77,-32.33 -132.76,-52.8 -132.87,25.22z"/>
    <path class="fil8" d="M8482.52 4085.82c100.25,6.43 56.49,13.37 73.7,-73.7 -63.06,11.8 -102.2,0.47 -73.7,73.7z"/>
    <path class="fil8" d="M8621.21 9604.13c45.26,-74.81 47.89,-18.82 0,-90.2l0 90.2z"/>
    <path class="fil8" d="M8765.71 9437.33l101.02 -13.45c-177.16,-33.14 -54.6,-16.15 -101.02,13.45z"/>
   </g>
   <g>
    <path class="fil9" d="M12024.33 13622.7l-101.61 -16.96c-59.58,74.45 -111.04,136.83 -209.49,147.73l-54.19 -106.25c72.91,-231.31 221.74,-188.56 467.11,-217.06 123.79,-1.59 141.94,-76.47 169.72,-191.1l0 -135.61c-8.12,8.45 -16.73,19.24 -22.61,26.93l-40.6 52.09c-221.35,324.67 72.22,103.54 -400.31,214.81 -84.95,20 -106.56,57.47 -224.47,53.08 -37.17,-202.24 15.08,-163.5 70.4,-370.27l246.54 -10.6c-177.33,-129.83 -201.11,-68.99 -160.72,-305.65 -114.99,67.76 -94.6,161.17 -153.4,299.21 -50.33,118.16 -54.67,250.56 -111.21,330.14 -92.28,129.89 -162.59,64.27 -91.43,291.98 80.19,256.61 -82.4,119.04 -6.37,346.23 194.85,64.88 605.02,-238.33 622.63,-408.69z"/>
    <path class="fil9" d="M13148.88 4416.56c17.58,-14.89 223.83,-342.13 226.35,-350.63 55.23,-187.83 0.45,-370.74 -222,-327.83 -287.44,55.44 -382.93,567.62 -4.35,678.46z"/>
    <path class="fil9" d="M7272.01 16667.38l-16.7 -101.27c-221.8,-14.72 -428.19,-33.22 -628.06,-102.22 -24.57,392.2 -37.04,270.94 337.47,310.53 145.78,15.4 52.56,64.8 177.5,-5.2 -129.44,-74.53 -103.62,19.36 -203.67,-124.14 139.01,-101.79 38.12,22.3 333.46,22.3z"/>
    <path class="fil9" d="M7775.51 5148.75c-112.22,-159.4 -236.97,-315.43 -392.78,-426.72 -255.05,297.54 142.67,378.97 215.35,420.02 110.23,62.26 54.16,98.06 177.43,6.71z"/>
    <path class="fil9" d="M13144.48 2003.43c106.3,-93.86 169.82,-67.7 305.5,-67.89 -101.57,-253 -35.23,-142.78 -56.25,-350.91 -191.81,-48.19 -208.94,281.93 -249.25,418.8z"/>
    <path class="fil9" d="M12864.2 5558.99l85.32 -90.5c-75.26,-96.33 -138.44,-175.92 -249.22,-209.17 -128.21,164.96 -6.54,277.81 163.9,299.67z"/>
    <path class="fil9" d="M16510.75 10331.5c62.11,89.09 186.97,184.87 293.86,186.21l6.8 -129.93c-55.3,-141.91 -180.04,-192.31 -300.67,-56.28z"/>
    <path class="fil9" d="M16538.87 6517.94l17.45 81.1 287.87 88.66 -62.68 -203.93 26.91 -116.4c-40.95,29.06 -234.78,135.04 -269.56,150.56z"/>
    <path class="fil9" d="M5133.7 22002.4c142.31,-109.1 146.11,-258.48 -36.85,-314.22 -105.56,135.83 -103.66,206.5 36.85,314.22z"/>
    <path class="fil9" d="M7192.51 20399.98c87.71,108.84 73.61,118.61 193.13,80.77l15.28 -193 -130.92 -29.17 -77.49 141.4z"/>
    <path class="fil9" d="M5501.27 13272.99l83.23 97.92 196.4 -144.12 -98.36 -95.6c-105.28,37.56 -109.14,47.72 -181.27,141.8z"/>
    <path class="fil9" d="M14094.91 4996.48l112.02 -103.28c-91.96,-118.61 -65.22,-108.73 -208.04,-100.38 -48.37,140.55 -29.69,127.11 96.02,203.66z"/>
    <path class="fil9" d="M9342.75 19524.5c52.55,-91.6 53.8,-188.05 2.91,-280.29 -58.78,27.34 -82.53,-37.46 -77.19,137.38 3.52,115.5 2.45,83.32 74.28,142.9z"/>
    <path class="fil9" d="M9311.72 18876.65c57.98,-105.21 58.44,-99.38 -36.86,-178.45 -98.6,92.04 -121.87,130.57 36.86,178.45z"/>
    <path class="fil9" d="M9781.12 20302.3c102.17,-45.7 106.74,-20.34 39.76,-141.6 -85.87,40.06 -117.44,17.08 -39.76,141.6z"/>
   </g>
   <g>
    <path class="fil10" d="M11730.47 9227.84c-74.7,-100.81 -80.2,-84.63 22.3,-169.72 111.61,92.56 81.77,93.66 -22.3,169.72zm-418.79 -367.57l42.31 112.97 222.19 -73.97c44.88,115.32 -21.85,42.3 80.91,129.34 -90.17,36.33 -76.9,104.63 -82.01,175.6 397.88,337.17 27.58,35.94 219.54,262.13 102.61,-1.11 100.83,-33.9 143.47,-24.91 114.76,24.2 1.45,22.4 154.12,97.56l31.7 -134.19 171.96 57.83c179.49,-38.84 259.91,-248.22 440.42,-387.53 56.07,75.2 56.18,-89.17 30.06,54.29 -36.33,199.55 58.32,-126.49 -29.05,70.34l112.16 -53.73c-43.3,-242.89 -0.41,-7.92 -149.04,-178.52l82.85 -175.01c-112.6,-172.38 -86.69,-138.58 -265.09,-188.44 -128.46,-35.91 -250.58,-86.19 -384.65,-75.43 -55.18,84.86 -0.84,149.29 -86.71,252.35 -167.24,167.23 -433.99,55.11 -486.42,55.54 -51.36,0.41 -147.22,23.7 -248.74,23.79z"/>
    <path class="fil10" d="M12049.54 16285.28l53.93 -11.63 8.62 65.94c-93.99,5.54 -48.19,-28.57 -62.55,-54.31zm-499.82 9.24l35.09 304.99 109.25 -23.9c39.28,128.55 47.92,61.11 -20.81,153.85l-56.25 -90.19c-47.6,84.43 -26.9,122.6 -19.72,235.85 -122.99,62.77 -141.52,-21.85 -282.21,134.41 -57.85,64.25 -15.5,-19.92 -69.3,99.13 179.85,-33.63 154.48,-95.04 303.35,-135.78 202.28,49.01 275.54,218.8 438.35,342.36 88.71,-24.17 209.03,-65.54 291.77,-90.23 252.53,-75.38 87.58,-16.52 283.15,-14.34 -69.7,-115.83 -22.59,-34.26 -123.11,-101.09l-33.52 -23.71c-101.98,-90.14 71.02,-10.56 -60.16,-66.93 -34.21,-14.7 -54.58,-12.19 -96.6,-3.06 -369.61,80.27 168.98,152.01 -263.13,226.87l-277.24 -305.08c130.11,-219.41 28.81,-282.17 43.18,-507.83 358.51,-80.98 251.79,96.45 473.98,71.11l27.62 -163.49c-69.24,-78.25 -41.69,-201.42 -29.12,-315 -185.83,77.65 -68.76,65.44 -189.64,167.5 -231.7,-156.41 -16.67,-264.07 -275.43,-294.23 -180.28,188.84 23.23,264.47 -130.61,394.77 -111.2,-155.2 0.31,-338.91 -19.39,-531.84 -86.77,-82.58 -286.17,-249.68 -386.56,-279.3 -81.14,234.39 46.25,84.77 1.98,251.87 103.79,-0.39 98.67,-99.12 265.81,15.95 142.84,98.36 69.68,154.49 59.36,309.24 -4.65,69.72 2.79,155.52 -0.11,238.1z"/>
    <path class="fil10" d="M7985.44 11338.18l181.89 11.31c23.19,106.03 22.13,55.6 -34.93,170.06 -338.34,112.93 -464.21,-174.68 -622.62,184.31 59.69,-15.99 108.03,-38.85 144.58,-52.19 65.25,-23.79 -17.06,-7.08 72.71,-22.95 56.41,-9.98 26.08,0.9 90.71,-5.57 165.42,-16.59 200.04,-90.13 238.83,91.55 -138.22,101 -278.19,-41.35 -293.67,200.41 -11.83,184.51 118.43,236.6 241.18,259.21l-82.41 118.95c-205.84,-21.5 -128.33,-209.83 -436.12,86.42 29.34,113.5 -62.16,46.95 114.26,108.28l59.68 -138.35c82.3,89.96 89.1,63.75 189.69,108.55 106.1,-138.06 199.08,-160.7 195.75,-335.06 -135.91,-119.83 -229.19,-27.35 -219.92,-235.76 165.24,-113.39 117.8,5.47 238.78,10.56l88.08 -286.76c150.77,34.67 96.08,96.14 233,140.83 85.21,27.81 182.46,-0.81 256.94,-67.31 27.33,-260.6 -274.48,-112.88 -284.45,-448.5 76.84,-105.98 113.32,-76.24 207.28,-132.56l-2.64 -206.51c-126.88,118.62 -39.21,23.44 -96.03,180.26 -102.14,9.11 -102.38,1.73 -217.58,31.91l99.67 305.39c40.06,99.43 50.8,-70.85 30.59,139.14l-133.74 28.42c-123.11,-199.6 28.54,188.08 -25.06,-70.53l-8.82 -207.99c-50.14,-15.18 -63.85,-32.32 -124.36,-22.45 -101.42,16.55 -37.22,-12.85 -101.27,56.94z"/>
    <path class="fil10" d="M8965.17 12410.36l269.26 -0.74 -21.16 185.74c-90,70.12 -129.99,49.65 -260.42,42.24l12.32 -227.24zm-203.88 149.8l72.47 169.72c137.25,-40.32 55.06,-36.31 147.24,-11.63 20.14,58 15.83,33.92 0,91.16 -94.8,25.38 -8.28,27.53 -147.24,-11.63l-33.65 746.77 165.59 101.83c-43.9,-226.4 -3.08,-323.54 0.81,-545.5 3.87,-221.28 -3.99,-327.13 222.6,-240.76 81.34,188.75 -17.57,96.8 -8.11,319.03 120.55,20.83 -16.06,49.83 74.89,-3.61 5.86,-3.44 16.74,-27.4 18.96,-38.49 -0.09,-267.35 -81.99,-414.9 75.97,-636.68 157.86,-16.93 173.52,36.66 270.82,-75.97 -100.09,-115.86 -332.97,-72.02 -485.25,-70.59 -333.43,3.14 -158.35,102.39 -280.62,269.85l-94.49 -63.49z"/>
    <path class="fil10" d="M7000.62 14215.03c138.2,-42.02 19.13,-48.55 169.72,3.59l12.81 -143.77c123.59,-36.83 91.33,-44.52 182.13,21.52l-59.17 160.83c120.74,-51.63 141.99,-159.82 265.14,-80.94 7.63,4.89 15.17,11.87 22.19,17.93l63.06 89c70.58,93.92 33.7,16.5 105.17,109.95l53.6 135.61c7.06,-1.08 103.15,-17.73 103.86,-18 99.61,-37.57 30.98,-7.17 90.98,-49.72 -81.69,-28.88 -133.76,-42.88 -199.46,-98.34 -16.31,-13.76 -114.42,-112.49 -134.06,-136.36 32.86,-109.44 36.78,-91.19 122.91,-172.64 45.07,-81.38 170.32,-24.2 287.33,-37.54 63.57,-87.45 7.94,-43.68 93.1,-55.57 45.51,45.04 32.62,39.3 56.99,77.23 5.51,8.58 21.12,37.75 27.21,46.8 47.42,70.39 -26.28,1.74 54.76,70.91 -20.6,-288.89 -96.33,-323.77 -323.92,-272.56 -138.48,31.17 -101.33,4.2 -260.46,64.65 -142.35,54.07 -138.6,-8.89 -100.77,-131.53l-157.72 0 -4.09 93.73c-125.84,73.85 -142.81,63.99 -294.58,47.21l60.45 -137.33c-188.04,67.61 -204.88,212.64 -237.17,395.34z"/>
    <path class="fil10" d="M9416.92 3038.18l-112.23 -84.38 105.78 -373.16c-125.73,77.42 -91.86,100.44 -162.61,134.74 -115.88,56.18 -19.49,-74.38 -165.03,46.63 -27.4,32.95 -151.42,393.88 -148.58,461.64 3.56,85.09 38.7,157.99 65.97,242.91 43.39,135.11 27.47,161.73 164.08,157.62 136.92,-188.55 -106.43,6.47 98.92,-546l153.69 -39.99z"/>
    <path class="fil10" d="M14366.63 9980.43c35.71,135.25 32.28,185.47 169.55,237.44l34.54 -96.28c176.26,-16.44 265.05,-33.89 398,71.23 20.16,204.19 -23.32,73.61 -51.66,203.85 -18.57,85.39 24.35,160.5 26.44,282.47l85.82 -42.28 83.9 183.92c-1.2,-74.07 -19.61,-161.38 -19.03,-198.5 0.38,-24.36 36.06,-154.14 37.68,-176.94 10.86,-152.95 -136.37,-216.19 116.96,-261.25 -42.12,-83.23 66.26,-6.66 -66.67,-88.04 -97.64,41.12 -66.47,44.32 -167.16,-46.37 -102.77,-92.56 -57.77,-95.59 -173.33,-170.92l-73.88 95.12c-266.05,23.29 -44.25,-102.9 -287.87,68.61l-113.3 -62.07z"/>
    <path class="fil10" d="M8973.04 9603.37c279.98,87.33 92.34,-24.74 294.48,-55.4 112.25,146.64 29.71,92.83 49.37,295.95 119.86,-92 258.78,-167.2 300.36,-309.17 -166.81,-270.78 -655.26,-355.53 -644.21,68.62z"/>
    <path class="fil10" d="M11179.52 12424.39l151.24 44.7c-75.6,161.47 -20.8,129.74 -14.92,327.98 137.78,63.55 130.17,105.4 82.36,272.25 138.36,-149.94 42.5,-270.38 54.07,-368.02 12.69,-107.19 134.49,-182.35 192.86,-265.28 -125.58,-93.05 -17.73,-11.64 -465.6,-11.64z"/>
    <path class="fil10" d="M10299.01 8243.47c200.31,72.97 373.57,-57.65 361.75,-259.92 -125.78,-45.72 -111.77,-40.95 -226.27,32.31 -123.69,79.15 -144.61,71.5 -135.48,227.61z"/>
    <path class="fil10" d="M1807.2 13103.1l112.86 -15.53c27.79,-128.89 11.73,-161.33 124.76,-159.97 -54.74,-126.82 -126.56,-205.45 -262.82,-222.92l-119.3 158.98c137.08,176.83 54.02,33.35 169.73,112.57l-25.22 126.87z"/>
    <path class="fil10" d="M5309.24 15603.49c100.39,101.38 129.12,106.71 277.37,57.22 19.11,-75.77 -2.36,-168.46 -54.31,-240.52 -130.86,-2.48 -163.01,62.66 -223.06,183.3z"/>
    <path class="fil10" d="M8163.45 5219.55c122.96,89.45 200.18,42 220.15,-84.37 -124.13,-90.19 -205.73,-38.81 -220.15,84.37z"/>
   </g>
   <g>
    <path class="fil11" d="M13144.48 2003.43c-65.53,143.44 -85.12,169.65 -82.57,319.97 3.6,211.48 -109.92,201.54 -20.52,391.01 67.44,142.95 160.26,166.61 135.1,369.29 -19.45,156.67 -136.44,214.41 -77.59,391.13 161.54,53.8 140.19,-25.66 319.82,-76.73 113.59,-32.3 279.16,-59.93 302.97,-138.57 157.86,-197.07 217.2,-7.01 237.61,-203.67 88.54,-223.87 27.29,-164.13 -83.64,-289.16 -102.5,-115.54 43.78,-148.77 -123.1,-222.91 -202.21,152.29 -9.65,361.97 -259.92,401.51 -95.83,-133.77 99.81,-193.65 -76.62,-247.88l-151.04 -59.06c19.51,-127.02 56.12,-143.09 184.98,-102.56 107.16,-26.34 30.25,55.18 95.66,-133.03 78.88,-226.99 -7.3,-221.67 -42.48,-341.07 -27.26,-92.5 69.15,-89.27 -53.18,-126.16 -135.68,0.19 -199.19,-25.97 -305.5,67.89z"/>
    <path class="fil11" d="M7237.79 13819.69l-60.45 137.33c151.78,16.78 168.75,26.64 294.58,-47.21l4.09 -93.73c-0.58,-69.91 9.99,-13.27 -34.12,-13.65l-172.25 -10.86 -31.85 28.12z"/>
   </g>
   <g>
    <path class="fil12" d="M13959.31 3055.86c-20.42,196.65 -79.76,6.6 -237.61,203.67l245.38 -28.64c70.86,215.42 -228.9,464.48 -244.52,742.49 -19.76,351.52 -22.03,128.56 -155.51,354.34 -85.8,145.14 -43.27,276.99 18.54,425.35l-111.6 534.64 221.19 14.11 128.19 -107.3c84.01,-46.14 17.03,-41.1 16.6,-135.98 -1.49,-331.47 149.31,-311.56 155.02,-609.06 4.23,-220.7 26.51,-636.24 148.19,-835.86 179.91,-295.2 129.83,-481.74 222.66,-795.98 50.64,-171.4 240.78,-703.82 105.38,-816.93 -162.32,72.11 -114.65,272.28 -147.03,435.83 -28.7,144.93 -174.99,224.8 -266.11,344.88 39.44,147.05 116.32,213.78 25.21,336.53l-123.96 -62.07z"/>
    <path class="fil12" d="M14239.36 9125.37c119.11,80.38 88.87,-27.93 295.61,-26.16 142.93,1.23 144.5,57.18 281.45,-59.41 156.65,-133.38 302.64,-297.33 293.11,-515.27 -187,-4.43 -175.01,80.47 -494.64,244.74 -182.26,93.67 -146.77,85.03 -207.37,166.07 -38.19,51.06 -37.3,58.06 -75.75,95.18 -109.07,105.29 -51.57,-45.04 -92.41,94.84z"/>
    <path class="fil12" d="M9046.07 299.06c318.45,225.47 356.68,12.03 572.68,-22.19 170.57,-27.02 92.49,48.54 224.34,-79.65 -44.32,-290.65 -741.7,-262.79 -797.02,101.84z"/>
    <path class="fil12" d="M8935.43 2003.43c146.68,-96.16 118.76,-252.58 75.04,-416.35 227.07,-33.72 508.23,20.64 501.83,-262.36 -166.67,66.92 -268.11,260.33 -429.34,124.02 -110.23,-130.34 29.22,-324.8 -207.34,-319.6 -121.68,171.68 -10.87,462.08 97.42,599.23l-37.61 275.06z"/>
    <path class="fil12" d="M11639.3 12130.54c220.92,69.55 449.04,-278.77 110.57,-320.04 -82.56,76.43 -149.52,196.29 -110.57,320.04z"/>
   </g>
   <g>
    <path class="fil13" d="M6381.19 7360.94l17.74 132.27c169.65,-126.31 -1.76,-121.32 159.04,-140.61l-65.29 174.1c164.89,-7.23 157.19,-103.66 402.11,-17.74 214.91,75.38 231.31,39.74 463.59,40.76l115.72 457.51 239.34 -97.21 137.51 -61.91 26.9 163.57 52.09 111.61 156.88 -228.22c-73.9,-213.13 -83.54,64.09 -175.02,-217.43 -132.94,-409.09 -205.8,-353.43 -277.01,-537.85 -31.83,-82.4 -50.47,-278.03 -91.06,-316.33 -182.86,-55.14 -202.48,-181.68 -358.29,-60.04 -149.77,116.94 -105.65,515.24 -374.89,82.77 -65.96,-105.97 -131.62,-116.94 -215.68,-192.85 70.83,149.83 36.11,278.34 29.32,583.85 -114.97,48.73 -54.73,27.44 -204.06,31.52l-38.94 92.23z"/>
    <path class="fil13" d="M15079.29 9335.33c276.52,-58.34 0.17,-108.53 218.67,-125.29 169.03,-12.97 126.86,34.09 117.73,196.37 182.81,11.66 287.21,75.46 299.75,256.72 -156.17,67.31 -166.72,12.99 -194.72,181.52 258.77,-103.04 362,-353.71 452.09,-600 49.95,-136.54 163,-149.23 200.59,-303.93 39.44,-162.38 -49.56,-24.1 15.79,-190.7 37.46,-95.49 98.36,-96.69 146.01,-161.13l-90.23 1.21 32.1 -182.66 -417.08 -124.05 -12.59 148.38c-154.02,46.55 -282.83,22.16 -403.44,148.57 -303.53,318.13 -73.26,70.07 -290.98,166.46 191.44,208.17 -11.21,433.31 -73.7,588.51z"/>
    <path class="fil13" d="M7883 10625.54l291.09 38 72.6 -168.97 201.24 156.78 129.58 -93.96c-109.3,-111.18 -154.02,-80.83 -169.65,-204.08 117.66,-55.04 177.51,45.61 224.47,62.71 67.31,24.52 115.63,-13.54 222.41,-47.21 83.1,-26.21 18.43,5.79 72.44,-21.66 -23.97,-323.11 12.66,66.91 -226.43,-314.79 -351.44,-11.98 -256.45,-15.15 -562.65,-79.81l-118.08 162.77c-120.9,-67.51 4.14,-268.79 -276.3,-114.38 -208.39,114.75 -72.14,45.94 -109.45,118.59 -99.16,193.07 -190.08,305.13 -76.83,412.37 152.2,144.13 169.9,-95.39 325.57,93.65z"/>
    <path class="fil13" d="M13891.24 10489.75c189.25,41.82 29.95,-92.31 215.31,-45.75 26.67,106.18 -10.66,77 -73.71,203.67 75.96,56.14 49.92,86.52 135.68,11.64 48.33,-72.82 25.2,-40.59 107.67,-88.54 37.15,-21.6 76.75,-37.53 107.34,-69.67 94.97,-99.83 2.13,-87.37 152.65,-209.57 2.07,-1.49 109.45,29.88 0,-73.67 -137.27,-51.97 -133.84,-102.19 -169.55,-237.44 16.53,-68.72 79.45,-17.8 -34.12,-107.65 -221.85,184.03 119.42,192.12 -132.86,382.11 -366.64,-110.08 -258.7,-761.59 -519.99,-613.91 -87.24,140.23 -55.88,-43.19 -137.56,179.66 -16.05,43.8 -24.55,100.24 -38.34,117.35l-97.93 64.97c-8.98,4.91 -23.1,9.05 -33.84,15.17 72.65,137.63 15.34,14.69 40.14,137.92 9.85,48.93 1.61,42.17 18.22,98.15l44.05 106.02c249.86,-52.82 94.52,23.48 162.08,-173.64 47.95,-139.89 18.58,-111.34 166.21,-140.6 7.75,132.01 -23.82,207.47 -166.72,248.03 13.45,92.26 52.5,244.83 104.6,285.69 64.35,-103.4 3.16,-62.08 150.67,-89.96z"/>
    <path class="fil13" d="M16369.15 7706.01c176.27,-24.49 67.87,-18.5 122.04,-133.1 30.75,-65.03 35.5,-106.92 47.5,-172.22l-99.49 -37.12 118.22 -166.55c68.63,-110.07 -10.79,-26.44 112.56,-104.14 -87.42,-104.54 -77.21,-11.36 -182.79,18.43 -27.68,-131.7 -18.33,-193.11 119.56,-218.05l36.37 -92.08c-127.97,-86.97 -73.63,-5.39 -171.66,-79.52 -47.47,-35.89 -55.54,-79.55 -136.27,-141.45 -103.72,62.48 -211.8,241.06 -243.41,354.92 -19.49,70.24 36.28,20.08 -28.14,160.06 -101.65,-67.26 -52.42,-74.03 -163.9,-96.02 -89.89,247.82 -14.37,202.62 164.85,332.67 108.83,78.98 65.08,77.87 129.41,142.15 127.42,127.33 63.48,6.45 200.36,105.14l-25.22 126.87z"/>
    <path class="fil13" d="M15826.22 15908.96c-164.44,-59.78 -142.24,-162.91 -217.47,-314.77 -68.18,-137.65 -155.43,-174.3 -201.56,-318.5l11.37 -67.89c-18.17,143.49 -106.96,3.09 -149.3,-2.73l-58.02 -6.01c-8.53,1.68 -19.5,3.48 -27.05,7.16 -158.34,77.23 -16.79,102.51 -1.13,312.84 9.39,126.1 -14.05,128.98 20.79,267.8 114.19,-11.08 5.75,20.04 84.24,-30.55 5.76,-3.7 27.39,-31.66 28.46,-42.91 41.85,166.48 40.45,164.7 169.13,210.81 6.08,151.87 -5.49,131.47 68.33,264.32 12.34,1.83 63.94,4.82 104.75,16.62l103.56 61.71c-18.6,-267.97 43.28,-233.74 63.88,-357.88z"/>
    <path class="fil13" d="M13110.53 6280.37c-74.04,-26.6 -64.38,15.31 -92.54,111.28 -28.65,97.65 -26.84,121.72 -9.46,194.38l-18.06 215.11 78.38 -30.29c130.01,14.35 275.45,236.47 368.16,-42.07 9.47,-28.45 16.13,-59.48 28.38,-86.79 38.32,-85.35 -21.83,-3.31 52.47,-89.73l-33.77 -34.11 30.36 -338.99c-212.96,-7.77 -10.73,2.28 -176.34,64.31 -85.57,32.05 -136.18,31.94 -227.58,36.9z"/>
    <path class="fil13" d="M9911.72 21852.73c306.16,-316.25 -85.95,-315.49 -166.35,-394.52 -101.2,-99.47 -11.61,-155.9 -202.62,-210.6 -195,160.59 -48.35,89.02 7.69,371.54 42.32,213.35 144.25,256.99 361.28,233.58z"/>
    <path class="fil13" d="M8630.1 14257.36l134.2 31.7 -134.2 104.07c83.62,95.02 82.11,26.25 52.8,122.45l197.47 -63.56 -25.33 236.38 182.01 -3.1 40.19 -192.87c-319.01,14.17 -146.48,-175.16 -240.74,-365.8l-155.14 2.41c-73.68,89.48 -25.93,-3.37 -51.25,128.32z"/>
   </g>
   <g>
    <path class="fil14" d="M9987.69 6110.81c0.91,-3.22 123.99,-95.47 90.6,21.2 -37.82,132.18 -90.67,-20.96 -90.6,-21.2zm373.55 -368.37c-100.14,90.54 -38.96,61.97 -187.84,39.49l4.78 -238.39 218.17 15.34c10.12,135.48 38.36,54.23 -35.11,183.57zm-475.39 102.65c-95.87,-79.53 -248.43,-606.21 8.75,-633.39 223.85,-23.67 46.24,587.78 -8.75,633.39zm339.44 1657.43l-371.72 -0.83 -1.65 -64.02 170.95 -36.98c-59.71,-116.47 -194.39,-37.13 -162.74,-227.04 33.25,-199.54 136.52,-10.79 76.99,-303.69 -155.66,-7.14 -2.59,35.66 -155.42,10.69 -232.18,-37.92 -95.36,13.63 -272.13,-10.6 -63.19,-399.12 124.01,-81.48 90.98,-379.05 -23.39,-210.72 -151.18,-45.29 -50.13,-345.99 88.15,27.77 394.96,156.56 419.65,154.99 283.46,-18.01 167.49,-252.78 252.59,-409.85 160.97,80.17 44.66,-3.64 98.42,167.11 21.34,67.79 38.21,120.43 73.92,189.02l-33.77 -503.83 -203.67 -1702.2 27.23 693.01 -329.27 61.84 101.84 326.27c-511.75,71.73 -622.99,313.8 -802.82,-85.26 -295.6,-655.91 -33.92,-615.56 86.2,-927.98 -586.26,-35.84 -156.55,-143.93 -449.83,262.83l-194.07 -206.51c-107.09,100.49 -256.86,383.5 -177.68,492.84 194.17,268.16 320.51,-62.99 501.85,-66.29l434.66 867.27 66.02 -35.08c49.58,212.09 -99.19,720.48 -84.71,796.46 162.57,853.54 21.51,650.78 389.22,794.58l13.91 651.77c-8.28,3.36 847.94,285.02 485.18,-163.48z"/>
    <path class="fil14" d="M2689.74 14765.97l-351.35 -182.24 20.31 -58.2 900.28 -30.55c113.38,-87.48 131.08,-171.78 233.82,-277.19 114.36,6.61 136.09,-0.38 245.75,30.39 106.03,29.76 23.59,47.07 173.17,43.31l766.66 142.17 20.87 -148.54 -1805.29 -774.52 -1.16 234.76c-208.22,-14.42 -343.63,-261.18 -356.51,-322.79 -46.76,187.34 -63.52,14.9 -75.08,324.8 -4.73,126.88 -7.98,195.71 -78.82,300.82 -192.18,285.11 -100.37,145.1 -131.95,425.84 -6.49,57.78 -21.92,93.73 -18.18,167.09 73.97,22.15 413.93,103.31 457.48,124.85z"/>
    <path class="fil14" d="M5710.58 6042.93c-39.11,-168.05 -62.19,-450.47 -140.03,-538.28 -62.34,-70.33 -146.23,-26.37 -178.35,-384.46 441.75,-505.09 151.1,3.1 487.23,-532.09 131.75,136.76 9.69,58.21 123.56,204.38 171.61,-67.86 280.32,-196.06 250.69,-344.92 -148.04,90.72 -44.03,30.95 -143.49,163.45 -79.14,-54.84 -87.77,-150.82 -179.48,-182.32 -190.09,-65.28 -121.22,116.02 -279.13,12.5 79.1,-130.22 89.55,21.18 157.02,-166.18 -154.94,-151.02 -475.81,52.15 -413.63,256.56l212.03 -39.71c184.55,324.39 -43.45,244.54 -211.42,387.31 -56.99,153.56 -61.97,414.92 37.59,558.71 114.52,165.39 163.06,352.31 187.82,553.77l89.58 51.28z"/>
    <path class="fil14" d="M14719.01 16226.11l144.85 -131.37 75.36 75.12c-119.13,219.41 -228.36,257.31 38.23,470.92 90.24,-77.61 113.73,-173.4 120.16,-288.53 10.55,-188.9 -84.64,-133.33 -18.49,-329.8l-44.17 -84.5 -321.05 106.97 5.13 181.19z"/>
    <path class="fil14" d="M8457.3 5910.06l134.11 143.27 150.8 -141.55 -169.29 -222.94c-128.44,110.32 -106.82,50.04 -115.63,221.22z"/>
   </g>
   <g>
    <path class="fil15" d="M7883 10625.54c-155.66,-189.04 -173.37,50.48 -325.57,-93.65 -113.25,-107.24 -22.33,-219.29 76.83,-412.37 37.31,-72.65 -98.94,-3.84 109.45,-118.59 280.44,-154.41 155.4,46.87 276.3,114.38l118.08 -162.77c306.2,64.66 211.21,67.83 562.65,79.81 239.09,381.7 202.46,-8.32 226.43,314.79 -54.02,27.45 10.66,-4.55 -72.44,21.66 -106.78,33.68 -155.1,71.73 -222.41,47.21 -46.95,-17.1 -106.81,-117.74 -224.47,-62.71 15.64,123.25 60.36,92.9 169.65,204.08l-129.58 93.96 -201.24 -156.78 -72.6 168.97 -291.09 -38zm0 0l399.76 228.57c-127.3,478.74 -915.86,125.24 -1005.5,189.34l-19 68.74 727.19 226c64.05,-69.8 -0.15,-40.39 101.27,-56.94 60.51,-9.87 74.22,7.26 124.36,22.45l8.82 207.99c53.59,258.61 -98.06,-129.07 25.06,70.53l133.74 -28.42c20.22,-209.99 9.47,-39.71 -30.59,-139.14l-99.67 -305.39c115.2,-30.17 115.44,-22.79 217.58,-31.91 56.82,-156.82 -30.86,-61.64 96.03,-180.26l506.33 -653.59 -56.79 -9.52 -275.21 -365.13 25.91 -36.19 -674.59 -167.5 -22.02 -56.12 195.74 -205.02 -35.17 3.8 -37.42 -411.76 -679.05 -68.07c-275.34,6.36 114.78,191.71 -413.42,576.87 -448.56,327.1 498.94,250.19 541.18,278.98l18.13 110.71 -548.46 96.52 -4.64 422.7 780.42 211.77z"/>
    <path class="fil15" d="M6559.52 5873.04c-0.42,128.78 -40.98,134.24 -133.96,234.32 -268.9,42.88 -73.89,-39.54 -196.16,-21.07 -61.08,9.22 26.47,44.58 -179.83,49.09 -410.36,8.97 -282.07,-462.67 -377.38,-638.76 -74.65,-137.91 -72.56,-57.63 -179.78,-187.49 -14.12,-17.09 -22.42,-39.65 -36.74,-57.59 51.2,-196.56 117.71,-155.62 296.66,-320.82 99.29,-91.65 292.47,-136.39 393.62,25.51 135.85,217.45 -95.73,192.19 141.41,442.27 134.24,141.57 115.73,273 115.84,467.88l156.31 6.66zm-305.83 -1425.48c29.64,148.86 -79.08,277.05 -250.69,344.92 -113.88,-146.17 8.19,-67.62 -123.56,-204.38 -336.13,535.19 -45.48,27 -487.23,532.09 32.12,358.09 116.01,314.14 178.35,384.46 77.84,87.81 100.91,370.23 140.03,538.28 -110.67,456.3 276.02,88.3 503.03,246.65 -35.3,175.53 -296.1,281.07 -301.01,602.63 49.48,71.37 143.56,141.66 174.76,199.77 65.49,121.94 -8.02,125.16 107.55,266.16 318.09,388.06 60.32,232.28 -71.82,324.42 6.41,210.33 73.56,95.42 176.27,185.61l90.25 347 108.75 -62.66c-121.25,-207.38 94.99,-478.56 -99.44,-659.3l-17.74 -132.27 -166.17 -42.21c-4.34,-105.57 31.13,-166.06 4.11,-272.62 -57.99,-228.74 -465.1,-9.83 95.02,-691.31l243.02 34.93 37.71 263.61c84.06,75.92 149.72,86.89 215.68,192.85 269.24,432.48 225.11,34.18 374.89,-82.77 155.81,-121.64 175.43,4.9 358.29,60.04 -58.66,-145.84 -272.22,-503.26 -419.15,-484.28 -164.17,195.87 87.77,194.45 -191.84,424.68 -446.3,-367.64 -132.66,-296.11 -281.89,-470.63 -97,-113.44 -42.41,26.5 -167.51,-114.54 98.44,-119.5 205.68,-155.57 204.59,-297.92l-128.4 -7.75c42.99,-596.09 -213.8,-314.62 -271.53,-780.94 -31.08,-251.12 -54.92,-94.34 -98.8,-258.54 332.99,-228.85 324.99,494.26 489.25,820.21 73.72,146.28 276.44,95.85 301.56,-21.76 25.5,-119.4 -363.82,-763.89 -474.4,-960.98 -91.19,-162.54 -56.54,-289.85 -124.06,-385.11 -147.72,-5.62 -167.55,43.36 -127.86,161.64z"/>
    <path class="fil15" d="M17150.04 7129.14l120.03 -20.99c8.46,145.62 -36.58,117.29 -33.03,222.24 3.18,93.71 50.97,109.64 51.31,272.81 0.43,200.8 -45.12,408.02 -37.68,647.08 5.5,177.15 95.76,433.64 92.01,533.58 -9.54,254.94 12.51,378.58 11.83,618.52 -1.17,414.1 -170.73,2197.68 241.08,2338.67 428.68,-244.27 -75.49,-259.63 2.46,-1077.54 39.45,-413.87 -9.06,-868.89 -7.9,-1293.1 1.15,-419.25 77,-954.7 -90.86,-1334.8 -133.58,-302.48 26.37,-1033.51 -77.71,-1415.48l-60.36 585.71c-113.28,-201.32 75.6,-197.55 -110.68,-284.79 -112.42,73.7 -90.79,69.69 -100.51,208.06z"/>
    <path class="fil15" d="M1739.48 15411.46l2.98 -100.87 -37.09 -1.14c-154.01,90.47 1.18,756.34 1.34,949.26 0.31,374.39 -0.73,748.68 0.3,1123.13 0.81,290.76 -59.65,230.19 -95.56,447.54 -31.21,188.92 -133.96,1431.18 -26.76,1538.42 79.46,79.49 603.17,159.38 418.91,-384.37 -109.97,-324.55 -24.35,-214.84 -28.68,-481.52 -2.44,-150.44 -64.23,-286.42 -67.45,-475.53 -2.93,-172.08 36.07,-388.58 18.32,-525.32 -53.06,-408.9 -85.94,-587.66 -84.58,-1037.42 0.51,-168.15 -56.76,-936.9 -101.73,-1052.18z"/>
    <path class="fil15" d="M13076.76 9810.88c120.23,18.66 120.16,-14.17 113.3,79.35 -87.39,7.75 -23.48,29.45 -113.3,-79.35zm67.89 -203.83c45.71,56.28 -4.02,58.7 67.91,67.88 -93.25,19.33 -104.17,28.95 -135.8,135.95 -114.49,85.1 -54.98,191.3 -237.78,203.67 451.89,1133.06 373.39,467.3 373.39,1391.53 214.63,-18.87 155.37,-245.67 346.93,-433.78 148.06,-145.42 256.34,-294.78 331.95,-482.54 -147.51,27.88 -86.32,-13.43 -150.67,89.96 -52.1,-40.86 -91.15,-193.43 -104.6,-285.69 142.89,-40.57 174.46,-116.02 166.72,-248.03 -147.63,29.27 -118.26,0.71 -166.21,140.6 -67.57,197.11 87.78,120.81 -162.08,173.64l-44.05 -106.02c-16.62,-55.98 -8.37,-49.23 -18.22,-98.15 -24.81,-123.23 32.5,-0.29 -40.14,-137.92 10.74,-6.12 24.86,-10.27 33.84,-15.17l97.93 -64.97c13.8,-17.11 22.29,-73.55 38.34,-117.35 81.68,-222.85 50.32,-39.43 137.56,-179.66 -165.54,-96.28 -381.4,-171.84 -218.05,-333.62 140.31,98.79 38.36,95.95 225.8,129.96 -89.37,-207.89 -198.28,-177.98 -289.32,-242.43 -30.06,-21.28 -28.01,-20.39 -52.38,-51.34 -110.64,-140.55 69.38,-16.49 -99.39,-147.33 -40.78,121.68 -37.03,419.92 28.12,565.24l-129.79 45.59z"/>
    <path class="fil15" d="M12533.66 6857.58l-67.89 203.67 155.03 -70.75c139.39,143.82 87.47,152.55 -25.98,266.19 -111.56,111.74 -106.47,171.95 -208.74,273.95l-140.09 -192.2 117.61 -73.53c-52.22,-156.92 46.5,-49.89 -116.16,-107.47 -142.86,234.29 15.14,257.91 14.66,514.79l121.75 -98.27c119.88,148.89 125.72,189.99 -19.92,301.94 69.3,118.07 85.68,116.35 167.87,21.43 31.64,-36.53 1.42,-57.09 1.67,-123.46 1.97,182.78 27.97,130.99 187.35,139.01 22.1,-181.24 -38.91,-120.74 42.24,-280.22 182.92,10.85 216.84,100.27 233.98,116.93 72.32,70.29 114.11,-33.28 113.65,296.04 192.89,-49.98 30.74,-105.33 160.02,-315.14 129.82,-210.66 54.64,-153.17 86.43,-388.68 39.83,-295.04 161.14,-463.74 160.71,-789.55 -74.3,86.42 -14.14,4.39 -52.47,89.73 -12.26,27.31 -18.92,58.34 -28.38,86.79 -92.72,278.53 -238.15,56.41 -368.16,42.07l-78.38 30.29 18.06 -215.11 -285.56 354.81 -189.31 -83.26z"/>
    <path class="fil15" d="M13110.53 6280.37c91.4,-4.96 142.01,-4.85 227.58,-36.9 165.61,-62.03 -36.62,-72.09 176.34,-64.31l-30.36 338.99c78.98,-62.23 87.35,-200.67 100.3,-307.18 104.12,-855.6 238.97,-451.28 238.97,-1016.47l-128.19 107.3 -221.19 -14.11 111.6 -534.64c-161.26,63.17 -88.47,270.65 -175.61,397.56 -253.94,11.31 -31.55,-124.99 -236.25,-266.86 -166.77,234.82 212.27,335.27 116.69,591.24 -42.65,114.23 -48.43,36.05 -54.64,127.76 -9.99,147.6 73.04,-29.68 4.48,129.98 -48.69,113.39 -111.43,103.78 -171,278.7l206.83 100.5c-108.37,164.28 -75.29,-45.08 -165.56,168.44z"/>
    <path class="fil15" d="M15814.71 11023.23c47.96,64.93 171.4,235.5 227.11,270.98 170.38,108.54 203.82,23.28 338.29,-47.3 136.84,77.65 276.13,234.9 433.54,21.33 -218.85,-133.81 -247.47,-16.98 -390.77,-56.15 -43.83,-154.23 151.87,-271.41 -74.08,-392.93 -143.76,-39.54 -40,9.17 -163.94,25.56 -169.42,22.4 -21.21,-8.46 -179.79,-45.23l-190.35 223.75z"/>
    <path class="fil15" d="M6717.44 12605.75c-2.6,-51.08 -56.35,-1.04 34.49,-90.61 92.04,-90.75 31.64,-37.49 90.61,-34.5 4.77,81.69 -46.88,130.26 -125.1,125.11zm-158.25 327.8c-14.07,-186.09 -85.26,-164.23 -84.55,-282.49 184.95,-90.08 132.03,-64.83 156.23,78.27 159.49,-2.1 109.55,-122.67 268.01,71.05 44.78,-150.97 -10,-178.58 42.29,-378.49 -129.53,-131.21 -71.65,-12.65 -75.81,-136.73 70.41,-52.55 199.48,-75.21 293.01,-138.27l234.42 -197.73c-184,12.46 -256.51,110.03 -408.21,187.62 -326.37,166.93 -329.23,9.76 -447.41,129.64 -96,97.37 100.99,62.2 -184.41,425.11 40.74,152.44 63.26,184.43 206.44,242.02z"/>
    <path class="fil15" d="M10530.79 12831.89l21.91 145.44c-134.6,9.84 -23.93,-65 -225.4,-145.61 24.92,129.72 3.87,39.25 41.97,124.08l37.47 68.91c73.74,129.92 -36.22,-20.84 152.56,102.38 -20.8,94.48 -2.78,131.07 -73.92,154.4 295.27,76.66 63.4,-6.06 249.83,-32.26l-0.59 532.92c107.09,-40.74 72.08,-88.01 69.74,-237.09 -1.77,-113.33 -15.16,-143.58 20.28,-249.76 174.58,-57.69 453.14,-31.95 554.74,-201.79l-180.66 49.42c-5.03,-10.97 -8.7,-24.77 -10.82,-34.56 -2,-9.28 -6.75,-22.09 -8.74,-33.18l-6.95 -87.97c-8.36,-100.14 31.9,-15.5 -24.14,-116.81l-101.29 83.86c-21.09,31.83 -22.38,176.03 -74.74,263.68l-177.5 -141.18c-2.55,-1.63 -9.39,-6.13 -12.13,-7.69l-120 -56.65c102.01,-139.11 90.31,-68.37 137.55,-192.45 -129.16,-79.07 40.07,-62.17 -160.31,-30.33 -88.77,14.11 38.02,26.21 -108.87,42.24z"/>
    <path class="fil15" d="M10462.73 13951.87c-67.31,-128.83 -14.34,-56.95 -147.22,-135.38 32.16,-158.27 -16.4,-94.29 77.05,-166.38l-225.37 -100.61 14.11 -404.6 -127.07 -74.94c34.38,-1.48 162.05,91.99 82.28,-286.26 -113,-9.54 -189.15,37.9 -254.65,26.44 -48.26,-81.96 -66.13,64.5 -64.05,-114.2 -78.88,52.11 -148.09,-31.68 18.01,321.54 130.86,278.29 100.16,68.3 279.57,195.7 4.65,199.06 -86.03,134.25 -126.22,297.41 33.29,151.27 322.04,420.86 473.57,441.27z"/>
    <path class="fil15" d="M7509.78 12967.33l-70.75 -155.03c172.38,-122.54 83.51,6.02 218.17,-2.89 111.54,-128.27 122.08,-201.32 192.02,-351.25 -100.59,-44.81 -107.39,-18.59 -189.69,-108.55l-59.68 138.35c-176.42,-61.32 -84.92,5.22 -114.26,-108.28 18.62,171.12 21.71,39.03 -28.66,152.17l-58.22 -40.34c-71.99,-75.22 -69.99,-144.26 -89.87,-172.13 -134.7,116.98 -170.78,164.89 -99.86,342.62 94.81,215.61 49.87,-182.5 111.23,298.69l189.57 6.63z"/>
    <path class="fil15" d="M10191.52 14800.47l170.38 79.52c119.73,-101.33 135.4,-115.57 171.66,-254.6 -79.58,-99.79 -164.81,-122 -268.61,-172.22 -227.64,-110.16 -119.6,-17.8 -349.03,12.1 -264.74,-214.11 -96.91,-525.13 -572.99,-717.07 49.31,129.09 125.68,160.7 92.54,273.82 1.2,0.18 95.89,-41.11 192.22,162.88 17.96,38.04 16.83,346.64 407.83,380.39 211.03,18.22 -14.37,-151.8 284.39,-11.37 -4.43,74.51 10.83,25.46 -34.43,100.42 -63.56,105.29 -25.9,-18.51 -93.97,146.13z"/>
    <path class="fil15" d="M12805.03 13137.05c68.18,-74.26 56.04,78.08 67.86,-135.61 14.87,-553.73 3,-134.04 208.55,-569.34l55.1 -148.61 211.6 28.35c-122.02,-177.49 -583.62,-86.65 -636.21,-48.44 17.02,107.72 55.2,93.52 129.96,192.03 -16.01,132.4 -37.1,149.76 -38.19,306.74 -0.87,124.3 1.33,250.3 1.33,374.88z"/>
    <path class="fil15" d="M10768.4 11643.52c236.14,-17.18 163.79,-9.92 361.62,73.66 -184.8,165.39 101.82,8.32 -158.15,68.07 -0.23,256.14 -121.32,186.82 -16.67,358.7 73.58,-4.74 84.34,29.94 133.93,-88.96 4.83,-11.57 2.43,-26.39 5.41,-36.77 3.15,-10.98 0.33,-26.31 2.38,-39.26l180.63 71.89 -55.4 -117.04c42.95,-106.92 32.23,-179.38 49.59,-284.3 -387.83,-29.26 -354.1,-252.29 -503.34,-5.98z"/>
    <path class="fil15" d="M9173.03 22166.47c-157.68,-3.44 -93.66,-54.91 -305.5,-67.88 32.94,53.19 22.17,38.05 55.16,78.29 1.33,1.63 40.24,42.63 52.49,57.31l-124.28 198.52c98.84,154.46 41.78,93.61 186.35,180.68 235.57,-180.6 59.69,-189.63 135.77,-446.92z"/>
   </g>
   <g>
    <path class="fil16" d="M14286.55 12025.33c80.55,-46.82 7.84,-68.9 150.32,-15.6 5.95,63.9 21.71,-14.2 -3.69,51.45l-33.16 52.35c-95.07,74.98 -96.04,11.51 -113.15,7.97l-0.32 -96.17zm656.95 -1346.19l-353.03 196.32c-530.4,-120.81 -1217.7,439.48 -970.96,632.45 -2.51,-227.5 34.8,-231.96 251,-258.13 15.67,-149.2 73.76,-188.68 225.17,-195.82l76.77 157.38c28.05,132.36 -41.7,236.91 -140.5,414.37 -143.15,12.6 -137.06,-8.33 -242.38,51.92l1000.33 1261.76 8.43 -61.8 -329.89 531.19 203.49 1018.14 441.27 -1084.83 -295.89 -170.77c36.62,-118.44 128.95,-153.42 261.96,-168.09l-57.74 -1940.55 -35.24 16.17 126.91 -258.06 -83.9 -183.92 -85.82 42.28z"/>
    <path class="fil16" d="M1807.2 13103.1c-156.11,-37.33 -405.91,38.87 -588.69,-22.14l-22.3 -147.24 -239.08 104.05 -5.78 173.23c238.77,102.45 212.47,-52.08 432.32,57.63 111.52,88.97 -7.7,398.94 -24.81,642.59l-264.48 -94.95c38.56,106.33 73.16,134.41 169.72,135.77 194.59,58.41 287.36,449.92 392.47,628.24l288.65 -109.95c47.23,-169.11 -25.04,-130.49 70.08,-275.98 57.43,-87.85 82.16,-52.27 115.09,-221.93 29.9,-154.09 -26.74,-439.37 -35.69,-652.54l221.4 -36.67 -237.17 -349.67 -34.11 -5.96c-113.03,-1.36 -96.97,31.09 -124.76,159.97l-112.86 15.53z"/>
    <path class="fil16" d="M6398.93 7493.21c194.43,180.75 -21.8,451.92 99.44,659.3l-108.75 62.66c27.32,50.63 101.78,134.21 116.33,187.91 52.71,194.58 -91.7,94.23 31.09,241.89 185.05,181.82 1107.01,-310.91 1176.4,-734.96l-239.34 97.21 -115.72 -457.51c-232.28,-1.02 -248.69,34.62 -463.59,-40.76 -244.92,-85.91 -237.22,10.52 -402.11,17.74l65.29 -174.1c-160.8,19.29 10.61,14.31 -159.04,140.61z"/>
    <path class="fil16" d="M10022.88 7400.69c141.94,91.73 98.42,-43.55 202.42,101.83 249.23,-114.88 409.33,109.09 325.6,-322.64 -19.25,-99.29 -60.4,-782.64 -155.87,-933.6 -35.71,-68.59 -52.57,-121.24 -73.92,-189.02 -53.77,-170.75 62.55,-86.94 -98.42,-167.11 -85.11,157.08 30.87,391.84 -252.59,409.85 -24.69,1.57 -331.5,-127.22 -419.65,-154.99 -101.05,300.7 26.74,135.27 50.13,345.99 33.02,297.58 -154.17,-20.06 -90.98,379.05 176.76,24.24 39.95,-27.32 272.13,10.6 152.83,24.97 -0.24,-17.83 155.42,-10.69 59.52,292.9 -43.74,104.15 -76.99,303.69 -31.65,189.91 103.03,110.57 162.74,227.04z"/>
    <path class="fil16" d="M13110.7 8045.63c0.45,-329.32 -41.34,-225.75 -113.65,-296.04 -17.14,-16.66 -51.05,-106.07 -233.98,-116.93 -81.15,159.48 -20.14,98.98 -42.24,280.22 -159.38,-8.02 -185.38,43.77 -187.35,-139.01 -0.25,66.37 29.96,86.92 -1.67,123.46 -82.19,94.92 -98.58,96.64 -167.87,-21.43l-80.97 -17.44 -20.86 -186.22c0.47,-256.89 -157.52,-280.5 -14.66,-514.79 162.66,57.58 63.94,-49.46 116.16,107.47 110.66,-58.91 126.21,-102.8 102.17,-203.67l67.89 -203.67c39.27,-101.51 110.18,-534.34 56.08,-599.35 -69.15,-55.48 -193.32,-1.91 -293.85,22.3 -43.27,175.21 -129.59,370.77 -156.26,522.62 -38.51,219.21 -7.01,351.9 -118.96,559.92 -117.5,218.35 -139.39,287.58 -43.16,525.57 121.59,300.68 -22.01,204.5 324.36,361.93 52.46,-105.17 58.31,-286.56 291.01,-130.46 -91.89,155.58 -73.96,-41.43 -166.18,127.99 140.88,86.14 160.5,-7 291.74,54.15 174.13,81.13 -8.13,184.99 215,145.44 175.96,-31.18 49.62,-107 59.65,-192.13 16.41,-139.35 114.3,-67.77 117.62,-209.94z"/>
    <path class="fil16" d="M9758.81 2232.47c-113.33,-155.97 144.62,-508.34 254.1,-525.64 90.3,124.13 -70.23,530.77 -254.1,525.64zm-76.61 -1043.7l129.2 -97.58c89.62,125.34 19.72,15.73 135.11,113.37 118.21,100.01 177.76,110.91 189.42,259.71 -199.67,90.01 23.69,-25.58 -154.03,-12.3 -127.24,424.94 -390.75,283.82 -384.82,866.78 -553.55,-13.23 -433.62,-203.04 -661.65,-247.11 42.54,105.64 169.59,258.8 253.46,289.84 119.26,44.14 116.12,-31.01 211,57.31 82.77,77.04 0.05,18.03 10.58,161.84l-105.78 373.16 112.23 84.38c273.31,83.95 296.65,40.67 525.01,-45.93 192.9,-223.99 -33.58,-216.83 147.59,-377.49l-82.58 -131.3c179.21,-228.18 187.4,-394.75 185.24,-682.69 -2.18,-290.75 33.11,-517.51 33.11,-815.49l-236.01 112.42 -181.78 -155.28c-115.28,117.88 -102.51,106.97 -125.32,246.35z"/>
    <path class="fil16" d="M13687.75 17244.44c128.71,-80.03 38.24,-26.79 132.33,-141.67 79.24,-96.75 351.15,-247.79 464.34,-313.75 34.33,-20 437.89,-471.66 434.59,-562.9l-5.13 -181.19 321.05 -106.97 44.17 84.5 66.62 -62.86c85.1,233.07 -57.82,340.87 247,311.91 280.16,-26.6 231.17,85.56 427.49,118.5 41.24,-531.25 158.03,-430.63 5.98,-481.05 -20.6,124.14 -82.48,89.91 -63.88,357.88l-103.56 -61.71c-40.82,-11.8 -92.41,-14.79 -104.75,-16.62 -73.83,-132.85 -62.25,-112.45 -68.33,-264.32 -128.68,-46.11 -127.29,-44.33 -169.13,-210.81 -1.07,11.26 -22.7,39.21 -28.46,42.91 -78.49,50.59 29.95,19.47 -84.24,30.55 -34.84,-138.82 -11.4,-141.7 -20.79,-267.8 -15.66,-210.33 -157.21,-235.61 1.13,-312.84 7.54,-3.68 18.52,-5.47 27.05,-7.16l58.02 6.01c42.35,5.82 131.14,146.22 149.3,2.73 -165.72,-120.18 -294.1,-52.35 -500.26,-76.62 -164.78,-162.5 -53.6,-185.78 -246.17,-262.82 25.89,100.77 91.07,322.57 94.36,404.69 14,348.82 159.61,331.58 -117.83,661.95 -118.46,141.06 -86.82,83.52 -45.3,255.33l-232.58 332.17 -110.48 -366.46c-135,72.26 -262.72,561.74 -254.31,589.21 8.95,29.2 99.61,-20.44 10.35,101.61 -128,175.02 -318.19,-3.68 -328.6,397.6z"/>
    <path class="fil16" d="M12034.68 10998.74c-9.52,237.66 213.03,465.5 442.56,351.08 70.45,-210.03 -43.32,-117.83 8.02,-329.46 44.98,-185.44 81.57,-105.41 84.21,-359.09 1.41,-136.31 15.94,-306.09 -16.11,-429.47 -0.14,-0.55 -108.91,-295.23 -155.82,-183.48 -84.3,310.68 -183.83,24.23 -437.68,275.88 -77.39,76.71 -252.84,331.21 -270.25,438.4 131.38,57.13 200.91,46.3 319.73,25.18l25.34 210.96z"/>
    <path class="fil16" d="M12194.04 9776.93c52.06,-10.84 -1.9,69.76 62.07,-45.75 -57.29,-113.88 -57.28,-190.53 -163.9,-192.2 -152.67,-75.16 -39.36,-73.36 -154.12,-97.56 -42.64,-8.99 -40.86,23.8 -143.47,24.91 -191.97,-226.19 178.33,75.04 -219.54,-262.13 5.11,-70.97 -8.16,-139.27 82.01,-175.6 -102.76,-87.04 -36.03,-14.02 -80.91,-129.34l-222.19 73.97 -42.31 -112.97c-14.27,-28.12 96.38,-47.97 -13.66,-22.32 -85.26,19.87 12.42,-42.83 -20.62,22.32 0.29,240.36 -1.12,463.79 126.8,588.4 102.2,99.58 131.51,80.8 140.18,86.76 5.92,385.47 121.88,275.42 302.2,311.55 162.15,32.48 -16.16,5.6 147.73,63.82 70.26,-88.83 80.82,-88.65 199.75,-133.87z"/>
    <path class="fil16" d="M10530.79 18606.58c-117.95,-103 -11.16,4.14 -84.07,-31.79 -8.3,-4.09 -50.85,-15.94 -62.57,-105.31 -32.24,-245.96 141.95,-245.27 -57.02,-376.27 0,305.96 -0.25,611.79 -1.4,917.71 -0.91,242.73 41.33,207.62 65.28,375.99 21.43,150.53 -40.2,283.76 49.57,391.7 147.52,122.7 380.99,21.66 429.64,-158.09 31.53,-222.18 -341.04,-199.01 -339.44,-1013.93z"/>
    <path class="fil16" d="M13450.14 15377.52l101.32 46.28c-131.81,136.64 -314.25,204.09 -484.74,249.34 -134.41,35.68 -418.45,144.42 -499.29,247.31 441.52,-0.02 211.94,-175.24 620.51,-138.99l41.89 -71.24c176.43,-126.47 528.42,260.02 693.9,72.9 115.27,-250.48 -87.92,-198.68 81.73,-351.8l-164.7 -54.2c90.58,-82.67 226.36,-240.45 246.86,-365.33 -177.26,-11.96 -403.05,213.48 -552.15,308.79 -7.82,5 -19.76,12.88 -26.44,17.18l-58.89 39.76z"/>
    <path class="fil16" d="M12295.88 9462.62c31.59,174.34 111.39,121.17 249.25,166.73 50.71,136.43 151.44,382.52 293.85,385.19 182.8,-12.36 123.29,-118.57 237.78,-203.67 31.64,-107 42.56,-116.62 135.8,-135.95 -71.93,-9.18 -22.2,-11.6 -67.91,-67.88 -42.84,-74.26 103,16.01 -50.56,-24.26 -171.61,-44.99 -187,54.34 -356.77,-383.08 87.37,-196.83 -7.28,129.21 29.05,-70.34 26.12,-143.45 26.01,20.92 -30.06,-54.29 -180.52,139.32 -260.94,348.69 -440.42,387.53z"/>
    <path class="fil16" d="M9012.81 15547.24c167.33,72.5 364.03,94.58 465.72,-33.77 -216.8,23.27 -195.53,108.78 -341.85,-101.32 128.04,-185.35 286.09,-202.9 461.87,-82.07 91.27,-54.89 43.9,6.52 49.26,-78.05 -81.71,-43.35 -14.38,36.61 -169.91,-65.94l112.65 -207.02c-86.65,-53.53 -189.98,-9.48 -308.08,22.59 -96.34,-111.68 -16.17,-107.35 -151.85,-106.48 -1.83,70.3 -5.02,108.8 39.54,170.72 121.26,168.52 88.62,-77.85 142.03,190.32 -53.57,20.67 -137.91,29.77 -187.9,-29.63 -54.26,-64.48 -27.08,-87.81 -40.43,-201 -87.88,102.03 -225.95,166.64 -318.03,295.41 116.06,82.19 95.06,-6.23 166.8,93.14 24.61,34.1 -54.8,69.46 80.19,133.09z"/>
    <path class="fil16" d="M9376.7 10353.64c-0.18,122.38 -111.68,385.19 33.95,373.72 161.27,-135.61 53.93,-109.4 132.73,-284.24 141.05,66.37 39.24,39.26 138.67,131.65 148.89,-128.17 139.58,-328.71 106.05,-527.59 -321.4,10.83 -215.27,209.16 -411.4,306.46z"/>
    <path class="fil16" d="M8213.87 21444.75c130.17,-129.8 142.01,-241.67 33.95,-389.87l-155.11 -8.17c-109.12,170.27 -200.47,435.61 121.17,398.04z"/>
    <path class="fil16" d="M10361.24 5742.44c73.47,-129.34 45.23,-48.09 35.11,-183.57l-218.17 -15.34 -4.78 238.39c148.88,22.49 87.7,51.05 187.84,-39.49z"/>
   </g>
   <g>
    <path class="fil17" d="M12805.03 13137.05c-227.19,481.97 -56.47,403.5 -464.74,893.18 -410.06,491.84 -653.45,346.44 -827.76,602.76 38.3,130.79 146.19,298.64 274.19,269.48l254.07 2.87c94.28,189.39 -8.77,80.67 23.27,200.81 115.43,-0.02 240.98,12.23 353.11,-8.19 275.63,-50.19 58.93,-40.15 305.31,19.78l-22.42 69.29c-45.2,110.51 -3.86,11.8 -37.6,82.84 -53.68,113.02 -58.9,-32.71 -39.27,110.67 168.73,-7.37 326.9,33.42 462.77,-50.28 14.09,-180.9 -32.96,10.44 -42.6,-186.94 -6.13,-125.66 65.4,-64.64 -43.9,-208.1l-197.31 107.54c-164.48,-125.55 -3.54,-49.3 -94.17,-88.06 -22.87,-9.78 -126.86,-23.4 -188.59,-51.13 -100.72,-357.69 -21.51,-30.4 -17.99,-578.72 111.39,18.24 290.35,119.99 385.43,-61.42 32.98,-62.93 80.02,-131.64 106.95,-183.61 51.22,-98.85 -35.67,-434.71 309.4,-142.41 125.15,106 120.98,50.85 247.73,116.62 178.83,92.78 266.41,222.04 525.88,146.75 90.99,-199.91 -7.13,-343.91 -70.33,-528 -151.84,-26.16 -286.1,76.54 -283.78,-118.69 1.55,-130.89 145.64,-73.09 -12.84,-285.73 -182.78,35.56 8.02,0.47 -72.41,63.01 -49.86,38.78 -137.75,46.87 -160.04,184.88 -18.7,115.78 9.29,96.31 9.43,96.64l-110.1 42.49c-164.14,-167.59 -56.86,-24.15 -103.68,-190.69 8.36,-155.7 -29.26,-75.78 63.53,-171.23 54.75,-72.67 50.88,-6.09 153.55,-110.21 150.33,-152.45 34.24,-16.52 200.49,-113.8 -18.59,-347.93 -19.41,-270.76 64.85,-382.08l169.72 110.21 56.32 -149.15c-91.71,-193.89 -416.06,-391.03 -633.36,-336.62l-211.6 -28.35 -55.1 148.61c-205.54,435.29 -193.68,15.61 -208.55,569.34 -11.83,213.69 0.32,61.35 -67.86,135.61z"/>
    <path class="fil17" d="M16688.76 5959.28c-1.54,-61.45 -7.33,-93.6 34.13,-140.25 75,-84.38 22.46,-36.71 126.23,-55.55 -1.26,144.74 5.83,205.75 -160.36,195.8zm-183.84 280.36l135.77 -3.73 12.87 -57.2c14.59,-131.58 -7.33,-135.63 119.05,-164.53 63.75,134.77 48.92,207.08 35.8,353.2l-26.91 116.4 62.68 203.93c202.8,20.53 126.05,168.6 43.01,339.61 -67.57,150.32 -46.39,119 -76.61,277.24l-93.46 110.25 -178.27 3.84 -0.17 -17.94c-12.01,65.3 -16.75,107.19 -47.5,172.22 -54.17,114.6 54.23,108.61 -122.04,133.1 -109.46,-34.16 -232.82,173.89 -299.35,277.87 -50.19,78.43 -61.28,123.35 -123.05,187.33 -65.97,68.31 -181.68,88.26 -86.76,112.19l417.08 124.05 -32.1 182.66 90.23 -1.21c202.3,81.88 237.97,-206.41 316.11,-362.94 52.56,-105.28 242.61,-434.81 243.35,-485.83 16.32,-229.51 31.96,-246.58 201.53,-334.96l-28.88 -213.55 82.56 -43.47 0.17 -19.01c9.72,-138.37 -11.91,-134.36 100.51,-208.06 186.28,87.24 -2.6,83.47 110.68,284.79l60.36 -585.71c6.72,-233.24 251.48,-269.74 130.25,-627.47 -33.62,-99.19 -154.79,-189.46 -250.29,-206.67 -212.21,-38.22 -38.94,95.93 -293.77,30.43 -26.85,-178.27 93.93,-376.75 156.43,-541.43 60.11,-158.4 36.91,-354.74 239.6,-500.77l38.14 123.41c140.87,30.62 284.92,-28.7 335.54,171.13 37.75,149.03 -20.96,310.79 32.91,491.68 184.44,-263.9 31.01,-629.84 -15.43,-875.28 46.7,-149.65 -504.99,-469.63 -1038.81,285.16 -216.24,305.75 -400.78,650.35 -263.97,953.2 106.5,235.75 -95.34,111.48 12.74,316.1z"/>
    <path class="fil17" d="M7272.18 14393.73l50.26 -0.59 148.18 32.72c-89.75,149.26 -286,158.41 -416.17,23.92l217.73 -56.06zm33.94 -136.53l-135.77 -38.58c-150.59,-52.14 -31.52,-45.61 -169.72,-3.59l-301.35 125.73 -117.78 629.44 81.35 -282.24 156.48 -8.27c4.47,123.3 2.7,70.16 -72.24,192.83l99.41 116.08 -151.37 33.74 -179.37 230.3 858.25 600.26c699.36,97.39 -153.71,-758.72 236.35,-782.83l221.7 949.69 184.17 -9.7 245.6 -840.3 289.54 58.55 -67.32 -84.88 370.98 -455.02 25.33 -236.38 -197.47 63.56c29.32,-96.2 30.83,-27.43 -52.8,-122.45l-0.16 33.77 -441.27 -67.88 -178.55 102c-59.99,42.55 8.63,12.14 -90.98,49.72 -0.71,0.27 -96.8,16.92 -103.86,18l-237.71 -19.36 -1.57 -52.79 185.67 -63.47c-71.47,-93.45 -34.59,-16.03 -105.17,-109.95l-63.06 -89c-7.01,-6.05 -14.56,-13.04 -22.19,-17.93 -123.15,-78.88 -144.41,29.31 -265.14,80.94z"/>
    <path class="fil17" d="M8562.04 18214.96c0,791.58 -31.81,1457.5 59.09,2230.16 85.34,725.26 -71.51,312.97 -146.15,889.15 -29.16,225.12 35.92,849.17 392.55,764.33 211.84,12.97 147.81,64.45 305.5,67.88l204.54 -408.23c-487.99,-625.52 -306.53,-3149.16 -442.15,-3393.83l-40.43 -506.65 -71.07 13.55 -48.88 -255.72 -73.61 2.53 -139.4 596.84z"/>
    <path class="fil17" d="M4771.96 2925.91c84.8,65.79 84.8,58.35 0,124.14 -54.41,-77.66 -72.74,-34.4 0,-124.14zm735.13 -175.54c-174.69,-89.24 -187.3,-25.04 -266.57,-78.34 -96.77,-65.05 -122.94,-183.32 -50.68,-271.39 121.61,-16.16 164.66,89.41 251.43,92.46 146.68,5.16 113.4,-133.83 245.83,-26.04 57.77,103.41 -68.77,45.68 -180.01,283.31zm-687.4 577.05c54.47,-90.26 117.87,-198.95 233.23,-125.57 -46.76,129.73 -64.55,4.35 -93.41,188.76 155.58,-51.76 196.59,-114.18 314.74,-214.5 -121.34,-58.35 -106.53,-191.04 -70.63,-320.78 128.7,-41.55 59.93,-28.63 201.64,-12.65l101.83 -92.31 232.19 96.96 -28.12 320.51c142.61,41.06 368.18,-44.12 441.85,-145.71 35.54,-115.18 -288.72,-675.3 -360.12,-795.14 -682.36,-1145.35 -1429.35,61.82 -1221.45,712.62 34.82,109 77.24,97.38 99.56,167.06 26.59,83.07 -15.82,109.26 -8.08,250.3l156.79 -29.53z"/>
    <path class="fil17" d="M415.49 12833.77l68.74 64.64c-33.98,138.19 -32.62,130.21 -190.6,157.01l-23.87 -155.82c-66.51,-162.38 -521.61,-10.25 -77.34,358.85 151.5,125.85 343.47,406.35 562.52,354.14l172.49 27.7c7.6,-99.08 32.69,-15.49 -144.81,-160.68 54.33,-17.03 101.78,-44.91 121.6,-110.62l-135.19 -102.95 39.72 -213.9 148.38 -14.38 239.08 -104.05c70.23,-21.63 206.49,-213.83 194.94,-330.88 -171.81,-124.82 -65.92,61.86 -278.51,-162.83 -303.67,-320.94 -767.95,281.06 -697.15,393.77z"/>
    <path class="fil17" d="M6627.24 16463.89c199.87,69 406.26,87.5 628.06,102.22l16.7 101.27c3.6,177.1 71.64,36.29 -61.9,225.97 80.93,135.17 150.18,158.95 222.18,292.81 82.89,154.11 53.27,296.82 179.32,296.05l170.35 78.83c218.6,-119.42 -3.9,-213.38 579.05,-181.07 -27.38,-89.73 -57.59,-88.87 -60.62,-93.01 -3,-4.11 -30.9,-44.46 -48.84,-71.02l-88.78 -94.06c-1.57,-0.74 -69.72,-0.55 -121.67,-39.61 -60.19,-45.26 -66.6,-150.83 -163.13,-240.72 -129.06,-120.2 -142.78,-41.74 -271.64,-104.92 134.74,-94.88 85.97,-115.45 96.33,-321.11l-77.99 56.54c-139.23,128.33 94,15.21 -79.88,102.63 -112.3,-45.55 -37.83,-70.94 -94.44,-181.03 -199.01,55.64 -284.06,99.83 -347.74,-133.6l-394.06 -173.14c-41.73,63.1 -130.71,330.4 -81.32,376.97z"/>
    <path class="fil17" d="M9682.2 1188.78c-66.97,1.25 -166.14,61.06 -169.89,135.95 6.4,283 -274.76,228.64 -501.83,262.36 43.72,163.76 71.64,320.19 -75.04,416.35 -22.78,13.22 -43.95,-82.33 -27.77,34.11 15.28,109.93 -26.53,2.6 27.77,34.11 228.03,44.07 108.1,233.88 661.65,247.11 -5.93,-582.96 257.58,-441.84 384.82,-866.78 177.72,-13.28 -45.65,102.31 154.03,12.3 -11.66,-148.8 -71.2,-159.7 -189.42,-259.71 -115.4,-97.63 -45.49,11.98 -135.11,-113.37l-129.2 97.58z"/>
    <path class="fil17" d="M12253.42 16337.46l-27.62 163.49c-222.2,25.34 -115.47,-152.08 -473.98,-71.11 -14.38,225.66 86.92,288.43 -43.18,507.83l277.24 305.08c432.11,-74.87 -106.48,-146.61 263.13,-226.87 42.03,-9.13 62.4,-11.64 96.6,3.06 131.18,56.37 -41.83,-23.21 60.16,66.93l33.52 23.71c100.52,66.82 53.41,-14.74 123.11,101.09 95.64,-9.02 -43.54,8.63 107.06,-46.77 416.39,-153.19 232.97,-60.19 398.56,-22.33 96.32,-116.47 -9.71,-141.26 -42.37,-177.1 -2.88,-3.16 -10.16,-10.21 -12.99,-13.17 -206.93,-217.08 -370.55,-42.44 -534.75,-39.52 -31.88,-301.18 56.4,-26.18 88.13,-245.12l-202.9 -134.09c-11.25,-141.63 34.86,-420.88 -26.9,-510.28 -187.29,72.33 -67,126.92 -82.81,315.18z"/>
    <path class="fil17" d="M9817.8 12695.94c-2.08,178.7 15.79,32.24 64.05,114.2 65.51,11.46 141.65,-35.99 254.65,-26.44 79.78,378.25 -47.9,284.78 -82.28,286.26l127.07 74.94 -14.11 404.6 225.37 100.61c-93.45,72.09 -44.9,8.11 -77.05,166.38 132.89,78.43 79.92,6.55 147.22,135.38 6.2,123.6 106.76,52.48 196.37,176.9 101.49,140.93 -12.96,184.15 75.35,338.08 122.25,-154.81 38.14,-569.47 0.17,-684.7l0.59 -532.92c-186.43,26.2 45.43,108.92 -249.83,32.26 71.13,-23.33 53.11,-59.93 73.92,-154.4 -188.78,-123.22 -78.82,27.55 -152.56,-102.38l-37.47 -68.91c-38.1,-84.84 -17.05,5.64 -41.97,-124.08 -2.39,-169.46 -424.28,-401.66 -568.49,-296.76l58.99 160.98z"/>
    <path class="fil17" d="M9139.09 17617.99c218.26,81.6 87.24,-46.78 281.67,-8.73 144.31,28.24 105.12,42.5 295.55,42.5 187.88,-254.15 364.55,27.62 497.96,-135.75 -101.13,-182.99 -21.07,-34.85 -259.1,-85.22 -67.53,-147.29 73.15,-15.81 -61.38,-227 -97.3,141.51 -183.88,256.22 -399.06,323.35 13.84,-128.44 65.5,-294.3 86.25,-414.59 -135.1,27.3 -58.03,78.76 -171.51,29.61 -86.06,-37.28 -62.8,-72.97 -171.74,-130.88 -218.32,154.1 -131.26,200.11 -198.44,405.52 -257.71,49.82 -198.57,-89.54 -316.49,99.29 145.01,235.42 156.34,25.91 416.29,101.9z"/>
    <path class="fil17" d="M11153.71 16744.35c-77.68,224.03 -146.13,157.49 -257.72,284.58 -17.37,110.09 -10.45,225.7 42.49,325.46l203.3 -13.04c118.95,-25.74 112.17,-121.52 103.98,-232.69 53.8,-119.05 11.45,-34.89 69.3,-99.13 140.69,-156.26 159.22,-71.64 282.21,-134.41 -7.18,-113.25 -27.87,-151.42 19.72,-235.85l-32.19 -39.77 -35.09 -304.99c-65.62,4.53 -386.35,0.99 -456.04,-11.32 2.96,8.4 10.69,17.81 14.11,22.69l46.99 64.07c45.48,56.77 0.74,-28.71 60.74,64.59l-71.4 199.66c17.45,67.75 15.77,-20.64 9.59,110.14z"/>
    <path class="fil17" d="M5513.95 3768.69c135.28,121.21 463.44,-109.78 277.33,-352.58 -91.42,-119.27 -27.48,-57.84 -114.47,-82.26l-341.19 5.4c-40.89,71.1 -58.5,63.38 -147.83,159.85l84.49 165.81 243.49 -3.42 -1.82 107.19z"/>
    <path class="fil17" d="M8952.86 12637.6c130.42,7.41 170.41,27.88 260.42,-42.24l21.16 -185.74 -269.26 0.74 -12.32 227.24z"/>
   </g>
   <g>
    <path class="fil18" d="M10055.57 10082.26c-50.53,-334.19 711.64,551.59 720.37,604.97 65.58,400.78 -642.28,-88.6 -720.37,-604.97zm25.13 -1023.99l85.43 215.16 -84.73 0.14 -0.7 -215.3zm-2202.85 -1046.58c-145.72,61.7 -246.26,165.47 -102.21,313.52 190.44,195.74 127.95,-61.03 242.9,-144.58l439.21 244.55c-70.28,139.2 -305.33,453.05 -447.98,503.85 -170.09,60.58 -225.1,-451.93 -500,-1.03l679.05 68.07c495.42,-308.99 669.32,-100.63 1107.95,185.05l528.53 -5.73 347.75 675.58 -426.25 -233.71 -370.11 736.38c196.13,-97.3 90,-295.62 411.4,-306.46 33.52,198.88 42.84,399.41 -106.05,527.59 -99.43,-92.39 2.38,-65.28 -138.67,-131.65 -78.8,174.84 28.54,148.63 -132.73,284.24l421.34 65.89 -329.49 370.26 398.57 -47.02 -38.55 298.62c159.48,24.05 347.49,-148.85 488.23,-256.96 235.56,-180.95 382.06,-105.59 594.66,-189.6 295.76,-116.88 796.36,-229.24 1089.27,30.19l-25.34 -210.96c-118.82,21.12 -188.35,31.95 -319.73,-25.18 17.41,-107.2 192.86,-361.7 270.25,-438.4 253.85,-251.65 353.38,34.8 437.68,-275.88 -501.46,91.93 -345.62,81.54 -203.49,-271.39 -118.93,45.22 -129.49,45.04 -199.75,133.87 -163.88,-58.22 14.42,-31.34 -147.73,-63.82 -180.31,-36.13 -296.28,73.93 -302.2,-311.55 -8.67,-5.96 -37.98,12.82 -140.18,-86.76 -127.91,-124.61 -126.51,-348.04 -126.8,-588.4 -201.38,158.67 86.72,530.46 -271.39,130.68 -274.77,19.95 -175.36,151.82 -305.66,174.99 42.3,55.24 62.75,227.64 73.95,312.73 -211.97,11.04 -130.99,9.12 -283.82,-71.16 13.62,-202.63 20.29,-173.63 -89.97,-318.89 -106.09,-139.77 -53.76,-114.56 -246.34,-132.74l-30.53 -95.6c-273.7,-324.64 42.34,241.35 -434.04,-37.28 -227.89,-133.28 -183.34,-22.8 -332.7,-62.08 -171.86,-45.19 7.76,-62.6 -283.13,-140.26 -461.15,-123.09 -217.14,-163.61 -469.11,-414.18 -297.84,-296.2 -498.23,-48.69 -517.83,-311.4l-156.88 228.22 -52.09 -111.61z"/>
    <path class="fil18" d="M9941.93 2992.25c73.47,366.43 -98.35,146.52 -35.78,428.29 48.02,216.33 128.67,101.41 -14.27,359.19 -116.47,210.04 -118.55,274.38 -283.29,348.27l-278.61 62.56 -32.1 -116.38 -57.13 33.94c-120.12,312.41 -381.81,272.07 -86.2,927.98 179.83,399.06 291.07,156.99 802.82,85.26l-101.84 -326.27 329.27 -61.84 -27.23 -693.01 -68.06 -1425.48c-181.17,160.66 45.31,153.5 -147.59,377.49z"/>
    <path class="fil18" d="M1264.1 13952.04c84.19,209.73 209.7,402.79 306.08,610.23 214.32,461.27 142.62,257.22 135.19,747.19l37.09 1.14 -2.98 100.87c192.02,-119.88 77.04,-211.36 245.2,-433.89l185.4 61.26c93.9,-140.17 -5.42,-332.63 218.91,-216.03 182.21,94.71 276.75,50.6 412.52,171.39 135,120.1 427.19,562.76 610.29,494.38 52.76,-142.1 -185.73,-308.95 -276.41,-420.94 -128.42,-158.6 -235.78,-351.09 -445.65,-301.68 -43.55,-21.54 -383.51,-102.7 -457.48,-124.85 -3.74,-73.37 11.68,-109.31 18.18,-167.09 31.59,-280.74 -60.22,-140.73 131.95,-425.84 70.85,-105.11 74.09,-173.94 78.82,-300.82 11.56,-309.89 28.32,-137.46 75.08,-324.8 12.88,61.61 148.29,308.36 356.51,322.79l1.16 -234.76c-3.75,-143.96 -190.48,-263.99 -336.22,-309.28 -116.78,-36.29 -293.11,-193.21 -478.82,-267.77l237.17 349.67 -221.4 36.67c8.95,213.16 65.59,498.45 35.69,652.54 -32.93,169.66 -57.65,134.08 -115.09,221.93 -95.11,145.48 -22.84,106.86 -70.08,275.98l-288.65 109.95c-105.11,-178.32 -197.87,-569.83 -392.47,-628.24z"/>
   </g>
   <g>
    <path class="fil19" d="M9574.47 17425.19c17.45,-195.58 5.62,-224.36 205.03,-214.83 -0.92,33.97 36.17,157.4 -205.03,214.83zm-966.85 -4723.43c417.23,327.04 -281.77,380.06 0,0zm-827.25 537.29c-48.13,81.3 -31.92,31.04 -58.57,124.81 -18.13,63.79 -16.9,97.01 -19.78,161.02l215.09 -13.73 0.98 -34.49c-13.61,-138.19 -13.22,-52.76 18.34,-147.17 73.68,-220.49 114.18,-225.5 287.17,-226.51 86.37,211.82 153.43,462.37 29.11,666.01 -309.04,-50.02 -56.11,-202.7 -539.25,-93.87l-79.72 140.98c-37.83,122.64 -41.58,185.6 100.77,131.53 159.14,-60.44 121.99,-33.48 260.46,-64.65 227.59,-51.21 303.32,-16.33 323.92,272.56l-130.22 203.49 441.27 67.88 0.16 -169.55c25.32,-131.69 -22.44,-38.83 51.25,-128.32l155.14 -2.41c94.26,190.64 -78.27,379.97 240.74,365.8l-40.19 192.87 -182.01 3.1 -370.98 455.02 67.32 84.88 -289.54 -58.55 -245.6 840.3 -184.17 9.7 -221.7 -949.69c-390.06,24.11 463.01,880.22 -236.35,782.83 116.92,291.24 93.69,554.18 -271.39,407.16 63.68,233.43 148.73,189.24 347.74,133.6 56.61,110.08 -17.86,135.48 94.44,181.03 173.88,-87.42 -59.35,25.7 79.88,-102.63l77.99 -56.54c-10.36,205.66 38.4,226.23 -96.33,321.11 128.86,63.18 142.58,-15.28 271.64,104.92 96.53,89.89 102.94,195.46 163.13,240.72 51.95,39.06 120.1,38.87 121.67,39.61l88.78 94.06c17.94,26.56 45.84,66.91 48.84,71.02 3.03,4.14 33.23,3.27 60.62,93.01 -582.94,-32.3 -360.45,61.66 -579.05,181.07l-170.35 -78.83c90.34,504.13 108.49,934.35 181.31,1481.78 35.88,269.77 164.32,409.72 44.37,712.88 -67.48,170.53 -200.55,533.98 172.93,483.3 574.67,-77.99 -382.75,-2316.49 -0.01,-2686.86 394.07,-156.56 551.84,464.47 551.84,741.65l139.4 -596.84 73.61 -2.53 48.88 255.72 71.07 -13.55 40.43 506.65 203.66 -746.43c-259.96,-75.98 -271.28,133.52 -416.29,-101.9 117.93,-188.83 58.78,-49.47 316.49,-99.29 67.18,-205.41 -19.88,-251.41 198.44,-405.52 108.94,57.9 85.68,93.59 171.74,130.88 113.48,49.16 36.41,-2.31 171.51,-29.61 -20.75,120.29 -72.41,286.15 -86.25,414.59 215.17,-67.13 301.76,-181.84 399.06,-323.35 134.52,211.19 -6.15,79.71 61.38,227 238.03,50.37 157.97,-97.77 259.1,85.22 -133.41,163.37 -310.09,-118.41 -497.96,135.75l610.83 441.44c198.97,131 24.78,130.32 57.02,376.27 11.72,89.37 54.27,101.22 62.57,105.31 72.91,35.93 -33.89,-71.21 84.07,31.79l342.19 -954.82 36.32 -99.92c-271.44,-273.03 40.82,-587.67 -237.34,-1094.41 -66.37,-120.92 -78.6,-12.13 -70.79,-186.23 7.79,-173.54 38.31,-328.96 22.27,-520.3l-1755.91 -42.5c-158.54,-52.92 -152.93,-65.37 -285.47,-140.98 -10.49,-5.98 -133.87,-72.28 -134.62,-72.91 -105.12,-88.43 -45.43,-41.55 -61.09,-122.76l276.84 84.96c90.32,-65.63 104.93,-66.65 241.91,-52.55 16.93,93.22 21.23,-37.79 -4.34,49.64 -1.65,5.62 -23.74,42.63 -26.98,51.02l58.24 42.43 80.78 0c-134.99,-63.63 -55.58,-98.99 -80.19,-133.09 -71.73,-99.38 -50.74,-10.95 -166.8,-93.14 92.08,-128.77 230.16,-193.38 318.03,-295.41 13.36,113.19 -13.83,136.53 40.43,201 49.99,59.4 134.33,50.29 187.9,29.63 -53.41,-268.17 -20.77,-21.8 -142.03,-190.32 -44.56,-61.92 -41.36,-100.42 -39.54,-170.72 135.68,-0.88 55.51,-5.21 151.85,106.48 118.1,-32.07 221.44,-76.12 308.08,-22.59l-112.65 207.02c155.53,102.55 88.2,22.59 169.91,65.94 -5.37,84.58 42.01,23.16 -49.26,78.05 -175.78,-120.83 -333.83,-103.28 -461.87,82.07 146.32,210.09 125.05,124.58 341.85,101.32l826.12 -269.11 -20.14 -45.31 -92.99 -398.58c68.07,-164.64 30.41,-40.84 93.97,-146.13 45.26,-74.96 30,-25.91 34.43,-100.42 -298.76,-140.42 -73.37,29.6 -284.39,11.37 -391.01,-33.75 -389.87,-342.36 -407.83,-380.39 -96.32,-203.99 -191.01,-162.7 -192.22,-162.88 33.14,-113.12 -43.23,-144.73 -92.54,-273.82l-68.07 -611.15c-2.22,11.08 -13.11,35.04 -18.96,38.49 -90.95,53.44 45.67,24.44 -74.89,3.61 -9.46,-222.24 89.45,-130.28 8.11,-319.03 -226.6,-86.37 -218.73,19.47 -222.6,240.76 -3.89,221.97 -44.71,319.1 -0.81,545.5l-165.59 -101.83 33.65 -746.77 0 -67.89 -72.47 -169.72 -52.34 -114.68 -47.3 -39.93 -881.28 833.5z"/>
    <path class="fil19" d="M13336.58 13293.48l82.42 15.49 -16.21 157.68 -129.74 -1.94c46.82,166.54 -60.46,23.09 103.68,190.69l110.1 -42.49c-0.14,-0.34 -28.12,19.14 -9.43,-96.64 22.29,-138.02 110.18,-146.11 160.04,-184.88 80.44,-62.54 -110.36,-27.45 72.41,-63.01 158.47,212.64 14.38,154.85 12.84,285.73 -2.32,195.23 131.94,92.52 283.78,118.69 63.2,184.1 161.32,328.09 70.33,528 -259.46,75.29 -347.04,-53.97 -525.88,-146.75 -126.75,-65.77 -122.57,-10.61 -247.73,-116.62 -345.07,-292.29 -258.18,43.57 -309.4,142.41 -26.93,51.97 -73.96,120.68 -106.95,183.61 -95.08,181.4 -274.04,79.66 -385.43,61.42 -3.52,548.32 -82.73,221.02 17.99,578.72 61.72,27.73 165.72,41.35 188.59,51.13 90.63,38.76 -70.31,-37.49 94.17,88.06l197.31 -107.54c109.3,143.46 37.77,82.44 43.9,208.1 9.63,197.38 56.68,6.04 42.6,186.94 -135.86,83.7 -294.04,42.91 -462.77,50.28 -19.63,-143.39 -14.41,2.35 39.27,-110.67 33.74,-71.05 -7.6,27.66 37.6,-82.84l22.42 -69.29c-246.38,-59.93 -29.68,-69.97 -305.31,-19.78 -112.13,20.42 -237.68,8.17 -353.11,8.19 -32.03,-120.14 71.01,-11.42 -23.27,-200.81l-254.07 -2.87 677 356.69 34.64 -77.29 2.32 256.55 43.44 48.99 906.03 -109.9 58.89 -39.76c6.68,-4.3 18.62,-12.18 26.44,-17.18 149.1,-95.3 374.89,-320.75 552.15,-308.79 -20.5,124.88 -156.28,282.66 -246.86,365.33l164.7 54.2c-169.64,153.11 33.54,101.32 -81.73,351.8 -165.49,187.13 -517.48,-199.37 -693.9,-72.9l-41.89 71.24c-408.57,-36.26 -178.99,138.97 -620.51,138.99l-343.13 102c-12.58,113.58 -40.12,236.75 29.12,315 15.81,-188.25 -104.48,-242.85 82.81,-315.18 61.76,89.4 15.65,368.64 26.9,510.28l202.9 134.09c-31.72,218.94 -120,-56.07 -88.13,245.12 164.2,-2.93 327.82,-177.56 534.75,39.52 2.83,2.96 10.11,10.02 12.99,13.17 32.67,35.84 138.7,60.63 42.37,177.1 -165.59,-37.86 17.83,-130.86 -398.56,22.33 -150.6,55.4 -11.42,37.76 -107.06,46.77l283.9 15.43 -41.37 253.85 717.26 -533.05 107.24 70.81 -149.44 535.56 68.67 30.35 139.09 -339.16c10.41,-401.27 200.6,-222.57 328.6,-397.6 89.25,-122.04 -1.4,-72.4 -10.35,-101.61 -8.41,-27.47 119.3,-516.95 254.31,-589.21l110.48 366.46 232.58 -332.17c-41.52,-171.81 -73.16,-114.27 45.3,-255.33 277.44,-330.37 131.83,-313.13 117.83,-661.95 -3.29,-82.11 -68.47,-303.92 -94.36,-404.69l-0.17 -441.44 -203.49 -1018.14 -672.49 -490.26 -57.43 -0.35 186.66 -120.55 -169.72 -110.21c-84.26,111.32 -83.44,34.15 -64.85,382.08 -166.25,97.28 -50.16,-38.65 -200.49,113.8 -102.67,104.12 -98.8,37.54 -153.55,110.21z"/>
    <path class="fil19" d="M10327.13 12150.52c160.47,16.23 173.76,64.37 374.78,80 -9.37,96.07 -50.74,81.92 2.93,178.46 127.77,-28.02 -1.44,-4.21 100,-88.23 131.99,-109.31 109.52,-35.59 173.58,-9.78 -113.83,197.37 -121.57,56.26 -253.24,207.42 -125.52,144.1 18.2,175.7 -194.39,272.94l0 40.56c146.89,-16.03 20.1,-28.13 108.87,-42.24 200.38,-31.84 31.15,-48.74 160.31,30.33 -47.24,124.07 -35.54,53.33 -137.55,192.45l120 56.65c2.74,1.56 9.58,6.06 12.13,7.69l177.5 141.18c52.36,-87.65 53.65,-231.85 74.74,-263.68l101.29 -83.86c56.04,101.31 15.78,16.67 24.14,116.81l6.95 87.97c1.98,11.08 6.74,23.9 8.74,33.18 2.12,9.8 5.78,23.59 10.82,34.56l180.66 -49.42 18.8 -24.18c47.81,-166.85 55.41,-208.7 -82.36,-272.25 -5.88,-198.24 -60.68,-166.52 14.92,-327.98l-151.24 -44.7 -40.16 -88.57c172.91,-122.05 174.75,50.57 302.11,-205.28 -80.52,-80.74 -57.17,-88.12 -163.91,-79.7l-180.63 -71.89c-2.05,12.95 0.77,28.28 -2.38,39.26 -2.97,10.37 -0.58,25.2 -5.41,36.77 -49.59,118.91 -60.35,84.22 -133.93,88.96 -104.66,-171.89 16.43,-102.56 16.67,-358.7 259.96,-59.74 -26.65,97.33 158.15,-68.07 -197.83,-83.58 -125.48,-90.84 -361.62,-73.66l-105.38 -33.78c39.64,105.75 59.72,95.27 2.19,201.37l-104.36 16.74c-45.11,-101.51 -50.2,0.73 -6.74,-139.9l-57.28 0.9c-204.12,16.87 -246.15,180.04 -410.23,229.3 -126.7,-96.15 -218.27,-267.21 -370.47,-308.41 23.1,266.06 371.34,491.62 610.99,540.79z"/>
    <path class="fil19" d="M7509.78 11703.85c-135.69,14.67 -97.85,114.77 -117,245.32l-234.42 197.73c-93.52,63.05 -222.59,85.72 -293.01,138.27 4.16,124.07 -53.72,5.51 75.81,136.73 -52.29,199.9 2.49,227.52 -42.29,378.49 -158.46,-193.72 -108.52,-73.15 -268.01,-71.05 -24.2,-143.11 28.72,-168.35 -156.23,-78.27 -0.71,118.26 70.48,96.4 84.55,282.49l339.61 81.1c102.34,17.94 180.5,42.65 265.67,61.7 140.92,31.49 44.3,-91.16 228.92,-3.17 -80.5,100.68 -52.65,60.16 -174.92,107.27l-82.07 201.3c27.66,120.48 50.48,112.29 135.78,105.45l199.18 91.29 86.4 -52.36c-10.43,-185.97 161.38,-609.16 -47.98,-558.8l-189.57 -6.63c-61.36,-481.19 -16.41,-83.09 -111.23,-298.69 -70.92,-177.73 -34.84,-225.63 99.86,-342.62 19.88,27.87 17.88,96.9 89.87,172.13l58.22 40.34c50.37,-113.14 47.28,18.95 28.66,-152.17 307.8,-296.26 230.28,-107.92 436.12,-86.42l82.41 -118.95c-122.76,-22.61 -253.01,-74.7 -241.18,-259.21 15.48,-241.75 155.45,-99.4 293.67,-200.41 -38.8,-181.68 -73.42,-108.14 -238.83,-91.55 -64.63,6.48 -34.29,-4.41 -90.71,5.57 -89.77,15.87 -7.47,-0.85 -72.71,22.95 -36.54,13.34 -84.88,36.2 -144.58,52.19z"/>
    <path class="fil19" d="M17421.59 6620.15c142.63,-23.79 -1.77,32.95 92.53,-43.24 86.23,-69.67 122.33,-245.92 166.86,-342.3 66.86,-144.73 174,-310.63 225.34,-453.54 89.3,-248.59 176.49,-972.5 -111.35,-1095.9 46.44,245.44 199.88,611.38 15.43,875.28 -53.86,-180.89 4.84,-342.65 -32.91,-491.68 -50.61,-199.83 -194.66,-140.51 -335.54,-171.13l-38.14 -123.41c-202.7,146.03 -179.5,342.38 -239.6,500.77 -62.5,164.69 -183.28,363.17 -156.43,541.43 254.83,65.5 81.56,-68.65 293.77,-30.43 95.51,17.2 216.68,107.48 250.29,206.67 121.23,357.73 -123.54,394.23 -130.25,627.47z"/>
    <path class="fil19" d="M6559.52 5873.04l-156.31 -6.66c-0.11,-194.88 18.41,-326.32 -115.84,-467.88 -237.14,-250.08 -5.56,-224.83 -141.41,-442.27 -101.16,-161.9 -294.33,-117.16 -393.62,-25.51 -178.95,165.2 -245.46,124.27 -296.66,320.82 14.32,17.94 22.62,40.5 36.74,57.59 107.22,129.87 105.13,49.58 179.78,187.49 95.31,176.09 -32.97,647.73 377.38,638.76 206.3,-4.51 118.75,-39.87 179.83,-49.09 122.28,-18.46 -72.74,63.96 196.16,21.07 92.98,-100.09 133.53,-105.54 133.96,-234.32z"/>
    <path class="fil19" d="M11073.45 15513.29c-68.44,314.24 141.7,77.41 20.71,347.47 -97.71,43.04 -21.08,42.05 -173.19,11.02 -18.87,-106.32 37.93,-141.33 38.02,-280.45l-145.44 41.99c-28.27,118.48 -41.81,158.67 -72.17,262.71 -52.42,179.55 -41.99,149.22 73.68,229.28 -89.44,73.46 -137.29,82.23 -66.51,221.47 66.59,130.98 100.32,120.71 132.58,284.97 127.79,-71.61 20.96,-122.05 117.44,-60.05 34.22,22 87.61,116.91 155.15,172.66 6.18,-130.78 7.86,-42.39 -9.59,-110.14l71.4 -199.66c-60,-93.3 -15.26,-7.82 -60.74,-64.59l-46.99 -64.07c-3.42,-4.88 -11.14,-14.29 -14.11,-22.69 69.69,12.32 390.42,15.86 456.04,11.32 2.9,-82.58 -4.54,-168.38 0.11,-238.1 10.32,-154.75 83.48,-210.88 -59.36,-309.24 -167.13,-115.08 -162.01,-16.35 -265.81,-15.95 44.27,-167.1 -83.12,-17.48 -1.98,-251.87l-149.24 33.95z"/>
    <path class="fil19" d="M15079.29 9335.33c-164.07,9.03 24.98,37.1 -130.39,136.35 -145.3,92.81 -18.88,-107.03 -203.23,79.11 80.01,160.74 74.95,86.29 192.02,203.67l-96.02 124.31c115.56,75.33 70.56,78.36 173.33,170.92 100.69,90.69 69.52,87.49 167.16,46.37 132.93,81.38 24.56,4.81 66.67,88.04 65.22,-120.82 269.61,-217.92 271.89,-339.44 28,-168.53 38.55,-114.21 194.72,-181.52 -12.54,-181.26 -116.94,-245.06 -299.75,-256.72 9.12,-162.28 51.29,-209.34 -117.73,-196.37 -218.49,16.76 57.86,66.95 -218.67,125.29z"/>
    <path class="fil19" d="M11764.11 12763.83c-40.38,236.66 -16.61,175.82 160.72,305.65l-246.54 10.6c-55.33,206.77 -107.57,168.03 -70.4,370.27 117.91,4.39 139.52,-33.08 224.47,-53.08 472.53,-111.27 178.96,109.86 400.31,-214.81l40.6 -52.09c5.88,-7.69 14.49,-18.48 22.61,-26.93 28.5,-185.18 48.84,-222.79 22.56,-434.25 -32.07,-258.08 83.13,-179.36 147.16,-346.63 -197.83,47.66 -674.07,181.77 -701.49,441.27z"/>
    <path class="fil19" d="M6381.19 7360.94l38.94 -92.23c149.33,-4.08 89.09,17.21 204.06,-31.52 6.79,-305.51 41.51,-434.02 -29.32,-583.85l-37.71 -263.61 -243.02 -34.93c-560.12,681.47 -153.01,462.56 -95.02,691.31 27.02,106.55 -8.45,167.05 -4.11,272.62l166.17 42.21z"/>
    <path class="fil19" d="M754.93 13612.6c40.86,95.33 55.57,103.56 142.74,166.51 119.36,86.17 97.1,71.6 196.7,37.16l264.48 94.95c17.12,-243.65 136.33,-553.62 24.81,-642.59 -219.85,-109.71 -193.55,44.83 -432.32,-57.63l5.78 -173.23 -148.38 14.38 -39.72 213.9 135.19 102.95c-19.82,65.72 -67.28,93.59 -121.6,110.62 177.5,145.18 152.41,61.6 144.81,160.68l-172.49 -27.7z"/>
    <path class="fil19" d="M13246.31 8996.22c168.78,130.84 -11.25,6.78 99.39,147.33 24.37,30.95 22.32,30.06 52.38,51.34 91.04,64.46 199.95,34.54 289.32,242.43 224.14,0 328.7,-4.19 444.35,-200.76 -54.27,-180.74 -232.96,-239.45 -399.3,-285.42 -141.92,-39.23 -386.21,-138.97 -486.15,45.08z"/>
    <path class="fil19" d="M13619.52 11507.9c26.01,84.4 -47.76,-30.81 33.41,42.65 27.02,24.46 25.29,18.25 53.19,40.64 56.5,45.33 44.93,15.04 83.47,86.42 105.31,-60.25 99.22,-39.32 242.38,-51.92 98.8,-177.46 168.55,-282.01 140.5,-414.37l-76.77 -157.38c-151.41,7.14 -209.5,46.62 -225.17,195.82 -216.19,26.17 -253.51,30.63 -251,258.13z"/>
    <path class="fil19" d="M6898.79 13174.02c-28,34.28 -40.41,-48.9 -25.22,90.23 93.78,68.07 51.41,42.54 183.21,42.67l23.52 -174.85 -181.51 41.94z"/>
   </g>
   <path class="fil20" d="M13925.19 2145.19c116.41,-96.57 118.25,-353.02 -36.85,-416.05 -101.66,94.43 -71.64,37.06 -47.67,185.3 23.5,145.18 -20.01,144.04 84.52,230.75z"/>
  </g>
 </g>
</svg>
