<svg xmlns="http://www.w3.org/2000/svg" width="75" height="98" viewBox="0 0 75 98"><defs><clipPath id="bqd9a"><path d="M0 96.993h74.962V.332H0z"/></clipPath></defs><g><g><g><g><path fill="#fff" d="M44.489 11.012c-5.51 0-10.573 1.95-14.564 5.194L28.103 8.65A30.105 30.105 0 0 1 44.49 3.816c16.804 0 30.474 13.778 30.474 30.714a30.71 30.71 0 0 1-4.744 16.44c-.944-2.775-2.152-5.867-3.59-9.176a23.655 23.655 0 0 0 1.138-7.264c0-5.124-1.632-9.87-4.396-13.738L48.115 36.048v21.715a23.028 23.028 0 0 0 9.928-4.13c1.518 2.203 2.969 4.138 4.315 5.76a30.15 30.15 0 0 1-17.87 5.851c-16.803 0-30.474-13.778-30.474-30.714 0-.425.01-.847.027-1.268l7.801-2.302h21.184l15.318-15.317a23.002 23.002 0 0 0-13.855-4.631zM21.487 38.156a23.525 23.525 0 0 0 4.166 10.177L35.83 38.156zm19.431 5.088l-10.22 10.223a23.034 23.034 0 0 0 10.22 4.309z"/></g><g><g><path fill="#fff" d="M10.622 20.02l-.025-.04L0 25.945l12.523 6.515 9.168-2.706c-4.979-3.768-9.94-7.914-11.07-9.734"/></g></g><g><g><path fill="#fff" d="M14.966 12.493c1.818.058 7.345 1.912 13.962 4.702L26.69 7.92 14.788.332l.132 12.16z"/></g></g><g><path fill="#fff" d="M23.698 29.762h18.831l3.093-3.093C33.81 19.959 18.001 13.79 14.931 13.692l-3.29 5.696c.944 1.519 5.829 5.748 12.057 10.374"/></g><g><path fill="#fff" d="M49.31 36.544v8.646c1.045.43 2.003.782 2.904 1.073l6.28-10.875c-1.208-1.094-2.664-2.245-4.503-3.524z"/></g><g><path fill="#fff" d="M70.456 63.89c2.316-1.213.002-10.438-5.257-22.373l-10.14 5.311c6.816 11.12 13.082 18.274 15.397 17.061"/></g><g/><g clip-path="url(#bqd9a)"><path fill="#fff" d="M14.014 96.676h4.57v-17.72h-4.57z"/></g><g clip-path="url(#bqd9a)"><path fill="#fff" d="M34.258 90.376c-.585 1.408-2.099 2.577-3.8 2.577-2.895 0-4.941-2.231-4.941-5.127 0-2.923 2.046-5.128 4.942-5.128 1.7 0 3.214 1.17 3.8 2.577l3.931-1.886c-1.142-2.311-3.454-4.729-7.731-4.729-5.447 0-9.592 3.693-9.592 9.166 0 5.446 4.145 9.165 9.592 9.165 4.277 0 6.589-2.497 7.731-4.755z"/></g><g clip-path="url(#bqd9a)"><path fill="#fff" d="M50.518 78.952l6.669 17.72h-5.18l-.878-2.55h-6.988l-.876 2.55h-5.18l6.667-17.72zm-.638 11.185l-2.231-6.669-2.259 6.669z"/></g><g clip-path="url(#bqd9a)"><path fill="#fff" d="M70.366 88.702l-7.173-9.75H58.49v17.72h4.57V86.419l7.492 10.255h4.41v-17.72h-4.596z"/></g></g></g></g></svg>