<svg width="87" height="21" viewBox="0 0 87 21" fill="none" xmlns="http://www.w3.org/2000/svg">
<path d="M0.646385 4.14644C0.451126 4.34171 0.451126 4.65829 0.646385 4.85355L3.82837 8.03553C4.02363 8.23079 4.34021 8.23079 4.53548 8.03553C4.73074 7.84027 4.73074 7.52369 4.53548 7.32843L1.70705 4.5L4.53548 1.67157C4.73074 1.47631 4.73074 1.15973 4.53548 0.964464C4.34021 0.769202 4.02363 0.769202 3.82837 0.964464L0.646385 4.14644ZM82.1464 20.8536C82.3417 21.0488 82.6583 21.0488 82.8536 20.8536L86.0355 17.6716C86.2308 17.4763 86.2308 17.1597 86.0355 16.9645C85.8403 16.7692 85.5237 16.7692 85.3284 16.9645L82.5 19.7929L79.6716 16.9645C79.4763 16.7692 79.1597 16.7692 78.9645 16.9645C78.7692 17.1597 78.7692 17.4763 78.9645 17.6716L82.1464 20.8536ZM82.5 4.5L83 4.5L83 4L82.5 4L82.5 4.5ZM0.999939 5C1.66306 5 2.33829 5 3.02475 5L3.02475 4C2.3383 4 1.66306 4 0.999939 4L0.999939 5ZM7.10645 5C8.43327 5 9.79176 5 11.1765 5L11.1765 4C9.79176 4 8.43327 4 7.10645 4L7.10645 5ZM15.2556 5C16.5993 5 17.9613 5 19.3374 5L19.3374 4C17.9613 4 16.5993 4 15.2556 4L15.2556 5ZM23.4095 5C24.7605 5 26.1204 5 27.4851 5L27.4851 4C26.1204 4 24.7605 4 23.4095 4L23.4095 5ZM31.562 5C32.9213 5 34.2814 5 35.6382 5L35.6382 4C34.2814 4 32.9213 4 31.562 4L31.562 5ZM39.7132 5C41.0818 5 42.4429 5 43.7922 5L43.7922 4C42.4429 4 41.0818 4 39.7132 4L39.7132 5ZM47.8705 5C49.2474 5 50.607 5 51.9445 5L51.9445 4C50.607 4 49.2474 4 47.8705 4L47.8705 5ZM56.0166 5C57.4123 5 58.7762 5 60.1024 5L60.1024 4C58.7762 4 57.4123 4 56.0166 4L56.0166 5ZM64.1675 5C65.5924 5 66.9588 5 68.2577 5L68.2577 4C66.9588 4 65.5924 4 64.1675 4L64.1675 5ZM72.3309 5C73.8347 5 75.2023 5 76.4125 5L76.4125 4C75.2023 4 73.8347 4 72.3309 4L72.3309 5ZM80.4881 5C81.1388 5 81.6418 5 81.9821 5C82.1522 5 82.2817 5 82.3686 5C82.4121 5 82.4449 5 82.4669 5C82.4779 5 82.4862 5 82.4917 5C82.4945 5 82.4965 5 82.4979 5C82.4986 5 82.4991 5 82.4995 5C82.4997 5 82.4997 5 82.4999 5C82.4999 5 82.4999 5 82.4999 5C82.4999 5 82.4999 5 82.5 5C82.5 5 82.5 5 82.5 5C82.5 5 82.5 5 82.5 4.5C82.5 4 82.5 4 82.5 4C82.5 4 82.5 4 82.5 4C82.4999 4 82.5 4 82.4999 4C82.4998 4 82.4996 4 82.4995 4C82.4991 4 82.4986 4 82.4979 4C82.4965 4 82.4944 4 82.4917 4C82.4862 4 82.4779 4 82.4669 4C82.4449 4 82.4121 4 82.3686 4C82.2817 4 82.1522 4 81.9821 4C81.6418 4 81.1388 4 80.4881 4L80.4881 5ZM82 4.5L82 6.5L83 6.5L83 4.5L82 4.5ZM82 10.5L82 14.5L83 14.5L83 10.5L82 10.5ZM82 18.5L82 20.5L83 20.5L83 18.5L82 18.5Z" fill="black"/>
</svg>
