<svg xmlns="http://www.w3.org/2000/svg" width="18" height="17" viewBox="0 0 18 17"><g><g><path fill="#fff" d="M12.799 12.254v-.442c0-.177.022-.31.088-.39.06-.082.155-.119.295-.119.133 0 .229.037.287.118.067.081.096.206.096.39v.443zm-.53-1.356c-.244.236-.369.545-.369.921v1.953c0 .42.11.751.339.987.221.236.53.361.914.361.434 0 .759-.118.98-.339.22-.228.324-.56.324-1.01v-.22h-.892v.198c0 .251-.03.42-.088.494-.052.074-.155.11-.302.11-.14 0-.236-.044-.295-.132-.059-.088-.081-.243-.081-.472v-.817h1.658v-1.113c0-.413-.103-.73-.317-.95-.214-.214-.523-.325-.921-.325-.39 0-.7.118-.95.354zm4.907 2.763c0 1.732-1.4 3.139-3.14 3.139H3.14A3.142 3.142 0 0 1 0 13.661v-2.527a3.142 3.142 0 0 1 3.139-3.14h10.898a3.137 3.137 0 0 1 3.139 3.14zM4.362 0l.715 2.586h.074L5.828 0h1.12L5.666 3.795v2.697H4.568v-2.58L3.257 0zm4.126 1.577c.406 0 .73.118.995.346.258.236.383.53.383.9v2.475c0 .405-.125.73-.375.958-.258.236-.605.353-1.047.353-.435 0-.773-.125-1.031-.36-.258-.244-.384-.568-.384-.973V2.793c0-.369.133-.664.391-.885.265-.22.619-.331 1.068-.331zm2.174.118h.973v3.684c0 .11.03.192.066.244a.25.25 0 0 0 .199.081c.074 0 .162-.037.273-.103a1.25 1.25 0 0 0 .302-.259V1.695h.98v4.8h-.98V5.97c-.177.192-.369.34-.56.443a1.218 1.218 0 0 1-.568.155c-.228 0-.398-.074-.515-.214-.11-.14-.17-.355-.17-.65zM6.912 14.28c-.081 0-.14-.022-.177-.074-.037-.044-.06-.118-.06-.22v-3.339h-.869v3.64c0 .258.052.45.155.582.103.126.258.192.457.192.162 0 .331-.044.5-.14.178-.088.347-.221.502-.398v.472h.87v-4.348h-.87v3.309c-.081.088-.17.17-.265.228a.545.545 0 0 1-.243.096zm3.64-.302c0 .14-.03.243-.081.302-.045.059-.126.096-.229.096a.536.536 0 0 1-.214-.052.716.716 0 0 1-.206-.155v-2.704a.507.507 0 0 1 .184-.132.392.392 0 0 1 .177-.045c.118 0 .214.037.273.111.066.081.096.184.096.339zm.037-3.385a.883.883 0 0 0-.396.103c-.132.074-.257.17-.374.302v-1.89h-.874v5.877h.874v-.331c.117.132.242.235.374.294a.977.977 0 0 0 .448.096c.256 0 .455-.081.587-.243.14-.17.205-.405.205-.706v-2.413c0-.353-.073-.625-.213-.81-.146-.183-.352-.279-.63-.279zM8.437 5.777a.481.481 0 0 0 .317-.103.405.405 0 0 0 .118-.31V2.756a.295.295 0 0 0-.118-.25.478.478 0 0 0-.317-.097.411.411 0 0 0-.288.096c-.08.06-.11.148-.11.25v2.61c0 .132.03.235.103.309.066.066.17.103.295.103zM2.424 9.96h1.01v5.024h.98V9.96H5.43v-.854H2.424z"/></g></g></svg>