<svg width="50" height="70" viewBox="0 0 50 70" fill="none" xmlns="http://www.w3.org/2000/svg">
<path fill-rule="evenodd" clip-rule="evenodd" d="M38.0665 12.287C41.6758 12.2828 45.2837 12.2863 48.893 12.2786C49.0694 12.2786 49.2944 12.3857 49.3501 12.2891C45.3401 8.36696 41.3644 4.47706 37.4001 0.599762C37.3994 0.602562 37.368 0.692862 37.368 0.782462C37.3658 4.43576 37.3765 8.08906 37.353 11.7424C37.3494 12.3227 37.6701 12.2877 38.0665 12.287Z" fill="#296398"/>
<path fill-rule="evenodd" clip-rule="evenodd" d="M33.9978 41.1794C31.0028 41.1829 28.4935 43.621 28.4642 46.5589C28.4342 49.5066 30.9735 52.0028 34.0014 52.0021C37.0007 52.0014 39.5121 49.5626 39.5321 46.6289C39.5535 43.6721 37.0185 41.1766 33.9978 41.1794Z" fill="#296398"/>
<path fill-rule="evenodd" clip-rule="evenodd" d="M44.8335 48.825C44.3949 49.4634 44.172 50.1032 44.1549 50.8711C44.1142 52.6022 43.0542 53.9427 41.3749 54.4964C39.947 54.9668 39.027 56.2016 39.027 57.6471C39.027 60.8587 39.0277 64.0696 39.0263 67.2812C39.0256 67.7439 39.1013 68.2514 38.5363 68.481C38.0042 68.6973 37.6377 68.3725 37.2649 68.0673C36.4013 67.3589 35.5199 66.6708 34.6663 65.9505C34.402 65.7286 34.2385 65.7307 33.9756 65.9519C33.0835 66.7037 32.162 67.4212 31.2627 68.1646C30.9177 68.4495 30.5585 68.6581 30.1035 68.4782C29.612 68.2843 29.6177 67.8517 29.6192 67.4226C29.6242 65.7069 29.6213 63.9912 29.6213 62.2748V57.421C29.6213 56.3724 28.5906 54.8758 27.5506 54.5762C25.4892 53.984 24.5156 52.6407 24.4735 50.5792C24.4613 50.0052 24.2935 49.4823 23.9227 49.0126C22.8292 47.6322 22.7635 45.808 23.8013 44.3646C24.2549 43.7325 24.4613 43.0843 24.482 42.3192C24.5285 40.5748 25.5477 39.2679 27.2656 38.7072C27.9106 38.4979 28.4049 38.157 28.8092 37.6152C29.9013 36.1522 31.6435 35.5978 33.402 36.1599C34.0049 36.3524 34.5663 36.3685 35.1606 36.1879C36.9699 35.6384 38.5177 35.9772 39.7149 37.492C40.217 38.1276 40.8606 38.5189 41.6463 38.808C43.2527 39.4002 44.0985 40.6252 44.167 42.3017C44.1992 43.0878 44.412 43.7535 44.8627 44.4192C45.842 45.8654 45.8227 47.3844 44.8335 48.825ZM4.90334 41.0613H20.6191V39.3743H4.90334V41.0613ZM4.8905 6.4841H7.52478V7.0427L6.83978 7.1617V10.1143C6.83978 11.3162 7.2655 11.9168 8.11978 11.9168C8.54336 11.9168 8.85478 11.7586 9.05336 11.4422C9.25193 11.1265 9.35121 10.6883 9.35121 10.1297V7.154L8.64978 7.0427V6.4841H10.7705V7.0427L10.2319 7.154V10.0583C10.2319 10.8878 10.0241 11.4982 9.60836 11.8888C9.19264 12.2801 8.62764 12.4754 7.9155 12.4754C7.07336 12.4754 6.44264 12.2759 6.02407 11.8769C5.60478 11.4779 5.3955 10.8535 5.3955 10.0023V7.154L4.8905 7.0427V6.4841ZM11.7084 11.2868C11.8391 11.4198 11.9041 11.5766 11.9041 11.7572C11.9041 11.9812 11.8284 12.1562 11.6763 12.2843C11.5234 12.4117 11.3198 12.4754 11.0648 12.4754C10.8798 12.4754 10.7177 12.4117 10.5791 12.2843C10.4405 12.1562 10.3713 11.9994 10.3713 11.8132C10.3713 11.6004 10.4498 11.4261 10.6077 11.291C10.7655 11.1552 10.9613 11.0873 11.1948 11.0873C11.407 11.0873 11.5777 11.1538 11.7084 11.2868ZM12.0377 11.8853L12.6741 11.7978V7.1463L12.0377 7.0427V6.4841H14.0848L16.3363 9.8826L16.792 10.8402V7.1463L16.0991 7.0427V6.4841H18.1863V7.0427L17.567 7.1463V12.4117H16.3677L13.9791 8.7654L13.4405 7.7126V11.7978L14.3055 11.8853V12.4117H12.0377V11.8853ZM18.8841 11.0873C19.0962 11.0873 19.2669 11.1538 19.3976 11.2868C19.5284 11.4198 19.5934 11.5766 19.5934 11.7572C19.5934 11.9812 19.5176 12.1562 19.3655 12.2843C19.2126 12.4117 19.0091 12.4754 18.7534 12.4754C18.5684 12.4754 18.4069 12.4117 18.2684 12.2843C18.1298 12.1562 18.0605 11.9994 18.0605 11.8132C18.0605 11.6004 18.1391 11.4261 18.2969 11.291C18.4541 11.1552 18.6505 11.0873 18.8841 11.0873ZM4.90276 18.1321H20.4199V16.4451H4.90276V18.1321ZM35.5984 23.8245H45.0327V22.1375H35.5984V23.8245ZM4.90334 23.8245H30.0312V22.1375H4.90334V23.8245ZM4.90334 35.3157H27.6291V33.6287H4.90334V35.3157ZM39.9926 35.3157H44.8705V33.6287H39.9926V35.3157ZM4.90334 29.5701H44.984V27.8831H4.90334V29.5701ZM25.907 18.1321H45.0327V16.4451H25.907V18.1321ZM49.6477 13.9139C45.5891 13.9433 41.5305 13.9293 37.4713 13.9286C36.1484 13.9286 35.9863 13.7655 35.9848 12.4355C35.9798 8.2908 35.9755 4.1454 35.9705 0H-0.000167847V70H49.9998V13.9419C49.9041 13.9223 49.7884 13.9132 49.6477 13.9139Z" fill="#296398"/>
</svg>
