<svg xmlns="http://www.w3.org/2000/svg" width="39" height="24" viewBox="0 0 39 24"><g><g><g><path d="M24.49 16.79a7.28 7.28 0 1 1 .04-14.56 7.28 7.28 0 0 1-.04 14.56zm13.59 4.05c-1.83-1.83-3.66-3.67-5.5-5.49-.24-.23-.28-.37-.08-.67A9.53 9.53 0 0 0 27 .33V.31h-.16l-.28-.09h-.24l-.26-.1h-.34a.33.33 0 0 1-.17 0h-1.33c-.3 0-.61 0-.91.07a5.77 5.77 0 0 1-.6.1 11.56 11.56 0 0 0-1.61.47 9.55 9.55 0 0 0-6 7.58c0 .08 0 .19-.08.25v2.1c.109.275.173.565.19.86a9.56 9.56 0 0 0 5.9 7 9.4 9.4 0 0 0 4 .62 9.19 9.19 0 0 0 3.13-.74 8.25 8.25 0 0 0 1.49-.8.4.4 0 0 1 .6.05c1.67 1.61 3.47 3.32 5.21 5.1.4.5.896.915 1.46 1.22h.63A2.08 2.08 0 0 0 39 22.74v-.63a3.06 3.06 0 0 0-.92-1.27z"/></g><g><path d="M0 22h22v2H0z"/></g><g><path d="M0 17h12v2H0z"/></g><g><path d="M0 12h12v2H0z"/></g></g></g></svg>