<svg xmlns="http://www.w3.org/2000/svg" width="32" height="32" viewBox="0 0 32 32">
    <path fill="#3B5998" fill-rule="evenodd" d="M13.69 16.024v.509c0 2.61.005 5.22-.005 7.83-.002.3.078.409.394.403.954-.017 1.91-.02 2.865.001.34.008.429-.096.427-.43-.013-2.623-.008-5.243-.008-7.865v-.448c.736 0 1.434-.007 2.128.004.226.003.302-.08.32-.3.05-.59.13-1.18.19-1.77.034-.318.054-.637.085-.995h-.424c-.664 0-1.33.008-1.993-.01-.102 0-.29-.113-.29-.177a17.04 17.04 0 0 1 .035-1.743c.04-.47.22-.64.687-.678.566-.047 1.138-.047 1.708-.056.182-.003.281-.042.279-.25a172.32 172.32 0 0 1-.001-2.554c0-.167-.046-.26-.237-.256-1.092.028-2.192-.008-3.279.09-1.446.13-2.403 1.01-2.713 2.419-.113.517-.135 1.06-.16 1.592-.028.52-.008 1.043-.008 1.623-.52 0-1.007.009-1.492-.005-.228-.006-.311.078-.309.302.006.816.007 1.632-.001 2.447-.002.236.077.33.325.322.474-.016.95-.005 1.477-.005M16.025 0C24.878.015 32.051 7.197 32 16.052c-.051 8.861-7.174 15.969-16.063 15.937C6.925 31.954-.015 24.609 0 15.965.016 7.152 7.21-.048 16.025 0"/>
</svg>
