<svg xmlns="http://www.w3.org/2000/svg" width="28" height="28" viewBox="0 0 28 28"><g><g><path fill="#fff" d="M20.993 10.374c.006.15.01.301.01.452 0 4.623-3.519 9.957-9.953 9.957a9.918 9.918 0 0 1-5.362-1.572c.273.029.552.043.834.043 1.639 0 3.147-.553 4.345-1.493a3.502 3.502 0 0 1-3.268-2.434c.213.043.433.065.658.065.319 0 .628-.043.921-.122a3.49 3.49 0 0 1-2.806-3.425l.001-.05c.471.266 1.011.424 1.585.438A3.486 3.486 0 0 1 6.4 9.325c0-.646.173-1.241.473-1.758a9.918 9.918 0 0 0 7.211 3.654 3.497 3.497 0 0 1 3.407-4.293c1.007 0 1.916.423 2.555 1.098a6.84 6.84 0 0 0 2.22-.847 3.507 3.507 0 0 1-1.538 1.938 6.992 6.992 0 0 0 2.01-.553 6.988 6.988 0 0 1-1.746 1.81zM14 0C6.467 0 .359 6.11.359 13.64S6.467 27.28 14 27.28s13.641-6.11 13.641-13.64S21.533 0 14 0z"/></g></g></svg>