<svg width="132" height="186" viewBox="0 0 132 186" fill="none" xmlns="http://www.w3.org/2000/svg">
<path d="M0 0H114.5L132 20V186H0V0Z" fill="#296398"/>
<mask id="mask0" mask-type="alpha" maskUnits="userSpaceOnUse" x="33" y="62" width="64" height="65">
<path fill-rule="evenodd" clip-rule="evenodd" d="M33.5161 62.6144H96.655V126.329H33.5161V62.6144Z" fill="white"/>
</mask>
<g mask="url(#mask0)">
<path fill-rule="evenodd" clip-rule="evenodd" d="M61.3873 118.579C57.4687 117.966 53.859 116.395 50.7987 114.111L61.3873 103.51V118.579ZM41.2575 98.2319H56.1165L45.573 108.788C43.3725 105.727 41.8563 102.131 41.2575 98.2319ZM65.0858 70.0783C70.4581 70.0783 75.4256 71.8651 79.4388 74.8817L63.5706 90.7687H41.6254L33.5441 93.1565C33.5258 93.5926 33.5161 94.0311 33.5161 94.472C33.5161 112.038 47.6783 126.329 65.0858 126.329C71.9957 126.329 78.393 124.076 83.5976 120.261C82.2023 118.577 80.6999 116.571 79.1264 114.286C76.1345 116.462 72.6352 117.967 68.8418 118.569V96.046L84.6465 80.2226C87.5101 84.234 89.2005 89.1567 89.2005 94.472C89.2005 97.1002 88.7857 99.6321 88.0219 102.006C89.5108 105.438 90.7626 108.645 91.74 111.524C94.8507 106.591 96.6551 100.74 96.6551 94.472C96.6551 76.9056 82.4929 62.6144 65.0858 62.6144C58.8406 62.6144 53.0168 64.4582 48.1118 67.629L49.9993 75.4647C54.133 72.0997 59.3786 70.0783 65.0858 70.0783Z" fill="white"/>
</g>
<mask id="mask1" mask-type="alpha" maskUnits="userSpaceOnUse" x="19" y="79" width="23" height="14">
<path fill-rule="evenodd" clip-rule="evenodd" d="M19 79.3799H41.4697V92.3235H19V79.3799Z" fill="white"/>
</mask>
<g mask="url(#mask1)">
<path fill-rule="evenodd" clip-rule="evenodd" d="M30.0031 79.4211L29.9775 79.3799L18.9999 85.567L31.9731 92.3235L41.4697 89.5177C36.3121 85.6092 31.1741 81.3081 30.0031 79.4211Z" fill="white"/>
</g>
<path fill-rule="evenodd" clip-rule="evenodd" d="M34.5056 71.6133C36.3883 71.6741 42.1137 73.5964 48.9681 76.4914L46.6508 66.87L34.3199 59.0001L34.457 71.6119L34.5056 71.6133Z" fill="white"/>
<path fill-rule="evenodd" clip-rule="evenodd" d="M43.5481 89.5246H63.0557L66.2606 86.3165C54.0229 79.3575 37.646 72.9593 34.4656 72.8566L31.0585 78.7648C32.0362 80.3402 37.0966 84.727 43.5481 89.5246Z" fill="white"/>
<path fill-rule="evenodd" clip-rule="evenodd" d="M70.0842 96.5613V105.529C71.1648 105.976 72.1581 106.341 73.0917 106.642L79.5964 95.3622C78.3457 94.2285 76.8374 93.0339 74.9323 91.7073L70.0842 96.5613Z" fill="white"/>
<path fill-rule="evenodd" clip-rule="evenodd" d="M91.9879 124.925C94.3862 123.667 91.9896 114.099 86.5417 101.719L76.0369 107.228C83.0983 118.762 89.5895 126.183 91.9879 124.925Z" fill="white"/>
<path d="M0.5 0.5H114.273L131.5 20.1879V185.5H0.5V0.5Z" stroke="black"/>
</svg>
