<svg width="58" height="59" viewBox="0 0 58 59" fill="none" xmlns="http://www.w3.org/2000/svg">
<path fill-rule="evenodd" clip-rule="evenodd" d="M54.5275 20.0755C55.4359 23.1641 55.942 28.0728 55.3737 31.5779C53.8063 29.9462 51.7476 28.8164 49.4746 28.3987C49.1918 27.4918 49.0747 26.5221 49.0359 25.543C48.9664 23.8037 48.3923 23.099 46.6772 23.3121L46.5942 23.323C46.2277 23.372 45.7561 23.4348 45.6477 22.9329C45.5432 22.4468 45.2715 22.0493 45.0031 21.6566L45.0023 21.6559C44.754 21.2925 44.5085 20.9331 44.4009 20.5115C44.115 19.3919 43.5591 19.5751 42.8484 20.0227C42.733 20.0954 42.6193 20.1907 42.5044 20.2868C42.2001 20.5416 41.889 20.8019 41.526 20.6609C40.4081 20.2272 39.2388 20.0525 38.071 19.8782C37.1342 19.7382 36.1981 19.5984 35.2904 19.325C34.8605 19.1957 34.3915 19.0148 34.314 18.476C34.2368 17.9446 34.6309 17.6618 34.9933 17.4017L35.0165 17.385C35.959 16.7058 37.0465 16.3765 38.1348 16.047C38.359 15.979 38.5833 15.9111 38.8062 15.8402C39.7441 15.542 40.5507 15.3833 41.4918 16.1027C42.6293 16.9716 43.9987 16.4155 44.4863 15.0936C44.4987 15.0601 44.5106 15.0265 44.5226 14.9932C44.6515 14.6325 44.769 14.3037 45.2478 14.2881C45.6404 14.2753 45.9639 14.1859 45.9084 13.6804C45.8568 13.2103 45.6245 12.9262 45.1267 12.9269C44.6903 12.9281 44.3237 12.9226 44.3679 12.2894C44.4598 10.9656 43.8473 10.4752 42.4449 10.6923C41.2606 10.8755 40.4568 11.6477 39.6844 12.4754C39.255 12.9351 38.7235 13.3291 38.085 13.1498C37.3522 12.944 37.1997 12.2218 37.0675 11.5701C36.8638 10.568 37.3696 9.91151 38.1991 9.45766C39.4614 8.76771 40.8079 8.34462 42.244 8.21059C42.3026 8.20509 42.3654 8.20375 42.429 8.20241C42.6813 8.19704 42.9501 8.1913 43.0518 7.92677C43.1947 7.5558 42.9181 7.39369 42.6671 7.2466L42.6638 7.24477L42.6117 7.21388C42.5896 7.2007 42.568 7.18751 42.5472 7.17421C42.5312 7.16408 42.5157 7.15382 42.5009 7.14332C39.9363 5.34315 37.1427 4.05104 34.0687 3.39223C34.0352 3.38502 34.0011 3.37648 33.9668 3.36696C33.9331 3.35768 33.899 3.34755 33.8649 3.33681C33.8226 3.3235 33.78 3.30934 33.7373 3.29518L33.7303 3.29298C33.3431 3.16469 32.9447 3.03273 32.6737 3.43263C32.3572 3.90004 32.4756 4.53212 32.7114 5.04811C32.8762 5.40907 33.1509 5.72865 33.4166 6.03224C34.4312 7.19228 34.3667 8.0348 33.116 8.90907C32.8267 9.11122 32.5179 9.28944 32.201 9.45277C32.1279 9.49037 32.0544 9.52724 31.9806 9.56337C31.8254 9.63942 31.6691 9.71242 31.5127 9.78334C30.3043 10.3316 29.3644 11.0044 29.1646 12.5061C29.019 13.5955 28.2355 13.4584 27.6443 12.8019C26.4773 11.5067 25.7949 10.0474 26.1604 8.20827C26.5883 6.05824 25.9908 5.36989 23.8502 5.36366C23.7102 5.3633 23.5652 5.37184 23.4204 5.38039C22.6566 5.42555 21.9021 5.47023 21.9475 4.18654C21.9561 3.95753 21.7427 3.89503 21.5142 3.88222C20.8503 3.8445 19.0511 5.53456 18.858 6.39906C18.595 7.57667 19.4193 7.94191 20.2762 8.17689C21.5153 8.51613 22.1166 9.37111 22.3951 10.5319C22.4055 10.5753 22.4167 10.6201 22.4282 10.6659C22.545 11.1319 22.6858 11.6929 22.2473 11.9435C21.709 12.2509 21.1923 11.9822 20.687 11.7193C20.5426 11.6442 20.3992 11.5696 20.2565 11.509C19.7308 11.2863 19.6462 10.9834 19.8961 10.4325C20.2317 9.69093 19.9279 9.0973 19.1147 8.95326C18.2136 8.79298 17.8893 9.42116 17.9801 10.1576C18.1185 11.2824 17.4967 11.824 16.6592 12.3119C16.089 12.6439 15.5374 13.0166 15.0182 13.4238C13.7024 14.4566 13.7327 15.2062 15.0912 16.1543C17.3636 17.7402 17.996 17.4662 18.2482 14.7384C18.3595 13.5349 18.9026 13.2285 19.9709 13.7527C21.3229 14.4154 22.491 15.3041 23.2738 16.6062C24.3201 18.3471 23.8732 19.3242 21.8936 19.6764C19.531 20.0964 17.548 21.0779 16.3838 23.3071C15.9349 24.1663 15.6204 25.0693 15.4294 26.0271L15.4236 26.0565C15.3329 26.5154 15.2262 27.0545 14.4329 26.6592C12.6152 25.7538 11.424 26.2161 10.5988 28.0468C9.68799 27.8936 8.76917 27.8948 7.87769 28.037C7.71863 27.6985 7.5105 27.3753 7.27612 27.0805L7.27209 27.0753C6.72656 26.3898 6.04004 25.527 5.18286 25.8143C4.51831 26.0374 4.60266 26.682 4.68494 27.3093L4.6853 27.313C4.71436 27.5348 4.74316 27.7548 4.73792 27.9528C4.73621 28.0166 4.74243 28.0811 4.7522 28.1828C4.75793 28.2416 4.76477 28.3131 4.77209 28.4043C4.75232 28.6558 4.75244 28.9162 4.76733 29.1829C3.85583 29.7388 3.0437 30.4689 2.3894 31.351C2.36633 31.2202 2.34412 31.0891 2.32288 30.9577C2.29663 30.7942 2.27161 30.63 2.24829 30.4653L2.22827 30.3219C2.19885 30.1065 2.17188 29.89 2.14746 29.6726C0.656616 16.381 9.69385 2.84791 24.554 0.34999C37.8988 -1.89354 51.1731 6.87892 54.5275 20.0755ZM46.8589 17.7007C47.9944 17.6463 49.4965 18.7016 49.5088 19.5455C49.5212 20.4 48.8975 20.4599 48.5565 20.4777C47.0256 20.4843 45.6633 19.4857 45.6982 18.5974C45.728 17.8392 46.296 17.7274 46.8589 17.7007Z" fill="#296398"/>
<path d="M43.8462 25.8598C45.7585 25.7737 46.6487 26.8196 47.2994 28.2219C47.0057 28.2276 46.7101 28.245 46.4131 28.2747C43.624 28.5536 41.1285 31.1969 41.1285 34L41 38.5L39.4032 38.3466C39.5 36 38.3081 34.8497 35.8376 34.8497L35.8339 34.7766C35.7031 32.2261 34.0881 30.1109 31.8765 29.2118C32.3403 28.4913 32.8998 27.8345 33.4567 27.1807L33.4574 27.1799L33.483 27.1499C36.1539 24.0145 38.6002 23.5308 42.2688 25.345L42.3387 25.3797C42.8164 25.6167 43.3518 25.8823 43.8462 25.8598Z" fill="#296398"/>
<path d="M22.5 46.5C23.2089 45.4088 23.1196 45.6387 24 44.6841C22.222 44.0797 21 41.8798 21 40V34.187C20.2942 33.4745 20.0135 32.9569 19.005 32.6892C17.9227 32.4022 17.2673 32.665 16.3009 33.0975V41C17.782 42.4083 17.5575 44.3234 17.1959 46.2577C17.092 46.8142 16.7393 47.8812 16.5 48L22.5 46.5Z" fill="#296398"/>
<path d="M6.36987 44.6841L5.75049 44.3258C3.83508 43.2184 2.64575 41.1599 2.64575 38.9567V36.4739C2.64575 34.7809 3.31494 33.1976 4.53027 32.0187C5.74561 30.8403 7.36279 30.2051 9.04358 30.2706C12.3611 30.37 15.0596 33.2935 15.0596 36.7866V38.9567C15.0596 41.1599 13.8691 43.2184 11.9525 44.3283L11.3318 44.6871L11.3367 48.6155L15.5961 49.6798C14.4922 50.8091 13.8182 52.3372 13.8182 54.0059V58.6118H0L0.590088 50.4498C0.622925 49.9962 0.957642 49.6218 1.40466 49.5387L6.36987 48.6155V44.6841Z" fill="#296398"/>
<path d="M19.1213 50.3921C17.4617 50.8079 16.3009 52.2942 16.3009 54.0059V58.8187H40.8218L41.1285 58.6575V54.0059C41.1285 52.2942 39.9678 50.8079 38.3081 50.3921L31.1986 48.6155L31.1938 44.6871L31.8145 44.3283C33.7311 43.2184 34.9216 41.1599 34.9216 38.9567V36.7866C34.9216 33.2935 32.223 30.37 28.9056 30.2706C27.2302 30.2051 25.6077 30.8403 24.3923 32.0187C23.177 33.1976 22.5078 34.7809 22.5078 36.4739V38.9567C22.5078 41.1599 23.697 43.2184 25.6124 44.3258L26.2319 44.6841V48.6155L19.1213 50.3921Z" fill="#296398"/>
<path d="M42.3699 38.9567V36.4739C42.3699 34.7809 43.0391 33.1976 44.2544 32.0187C45.4709 30.8403 47.0833 30.2051 48.7678 30.2706C52.0852 30.37 54.7837 33.2935 54.7837 36.7866V38.9567C54.7837 41.1599 53.5933 43.2184 51.6766 44.3283L51.0559 44.6871L51.0608 48.6155L56.5052 49.9755C56.9504 50.0868 57.2628 50.4868 57.2628 50.9457V58.6118H43.6113V54.0059C43.6113 52.336 42.936 50.8091 41.8335 49.6799L46.0941 48.6155V44.6841L45.4746 44.3258C43.5592 43.2184 42.3699 41.1599 42.3699 38.9567Z" fill="#296398"/>
</svg>
