<svg width="90" height="66" viewBox="0 0 90 66" fill="none" xmlns="http://www.w3.org/2000/svg">
<path fill-rule="evenodd" clip-rule="evenodd" d="M89.277 4.06296C88.623 3.67939 88.0112 4.07228 87.4433 4.40345C87.1302 4.58631 86.8362 4.80682 86.5511 5.03239C85.383 5.95716 84.3433 7.01938 83.3941 8.16001C76.1917 16.8138 70.6629 26.4773 66.1789 36.7718C65.9822 37.2237 66.1242 37.386 66.4966 37.596C68.2081 38.5623 69.9135 39.5411 71.5994 40.5516C72.0258 40.8075 72.243 40.7566 72.5347 40.3665C74.1947 38.1469 75.7922 35.8847 77.278 33.5452C81.6193 26.7095 85.5192 19.644 88.3514 12.0311C89.097 10.0266 89.7267 7.98686 89.9024 5.81196C89.8523 5.18263 89.9311 4.44693 89.277 4.06296Z" fill="#296398"/>
<path fill-rule="evenodd" clip-rule="evenodd" d="M70.7961 41.5828C69.1839 40.6829 67.5872 39.7546 65.9982 38.8132C65.6459 38.6047 65.4543 38.5728 65.1855 38.958C63.4949 41.3775 61.5506 43.5869 59.4972 45.7016C59.2691 45.9369 59.1345 46.1791 59.0806 46.5161C58.6139 49.4194 58.1201 52.3183 57.6433 55.22C57.5634 55.7064 57.4187 56.0795 56.9609 56.3983C55.9612 57.0936 55.9387 58.4909 56.8628 59.2899C58.9693 55.6435 61.0684 52.0011 63.1826 48.3676C63.3548 48.0714 63.2253 47.8889 63.1104 47.644C62.7912 46.9614 62.9401 46.2572 63.4681 45.7839C63.9538 45.3495 64.7413 45.2722 65.3042 45.6046C65.8931 45.9524 66.2077 46.6563 66.0548 47.2868C65.8838 47.9941 65.3527 48.4942 64.6082 48.4973C64.1772 48.4989 64.0201 48.7159 63.8467 49.0191C62.868 50.7277 61.8815 52.4317 60.8984 54.1384C59.8216 56.0093 58.7462 57.8809 57.6235 59.833C59.0659 60.0085 60.0617 59.3256 60.1292 58.1376C60.1544 57.6954 60.3212 57.4384 60.6424 57.1767C62.9242 55.3174 65.1897 53.438 67.4704 51.5768C67.8032 51.3046 68.0313 51.0034 68.1477 50.5821C68.9193 47.7919 69.8573 45.0591 71.0785 42.4311C71.2764 42.0045 71.2027 41.8096 70.7961 41.5828Z" fill="#296398"/>
<path fill-rule="evenodd" clip-rule="evenodd" d="M30.4812 46.6458C30.2675 47.7903 29.8586 47.9891 28.8802 47.3252C23.3177 43.5508 19.7844 38.4141 18.4011 31.8203C18.1823 30.7767 17.9844 29.7238 18.0574 28.7924C18.0376 28.544 18.0205 28.4419 18.0232 28.3409C18.043 27.5823 17.567 26.5049 18.4682 26.2025C19.3274 25.9144 20.0152 26.7821 20.5614 27.4685C21.0786 28.1192 21.4684 28.9081 21.4836 29.6947C21.5138 31.307 22.5182 31.7694 23.8038 31.9713C25.1662 32.1856 26.3719 32.4911 26.6535 34.1586C26.7633 34.8085 27.3355 34.7759 27.8802 34.5647C28.3073 34.3989 28.8252 34.2235 29.1312 34.6893C29.4051 35.1071 29.1514 35.5699 28.9353 35.9837C28.6525 36.5241 28.2727 37.0417 28.1242 37.6182C27.7812 38.9487 27.7603 40.2955 28.9543 41.2606C30.7536 42.7149 30.868 44.5765 30.4812 46.6458ZM60.1442 18.0888C61.2796 18.0344 62.7817 19.0897 62.7941 19.9337C62.8065 20.7882 62.1827 20.848 61.8418 20.8658C60.311 20.8724 58.9486 19.8739 58.9835 18.9856C59.0133 18.2274 59.5813 18.1156 60.1442 18.0888ZM62.2735 36.9198C62.3751 36.7742 62.4837 36.6402 62.5959 36.5117C62.6533 36.1083 62.7627 35.7162 62.9213 35.3513C63.0835 34.979 63.2491 34.6136 63.4128 34.2456C63.3019 34.1179 63.1987 33.9831 63.0978 33.8628C61.9984 32.5533 61.5151 30.9169 60.9037 29.3628C60.2105 27.6017 59.3733 26.147 57.1315 26.2479C56.6128 26.2716 56.0491 25.9781 55.5541 25.7331C51.8855 23.9189 49.4392 24.4027 46.7683 27.538C45.8787 28.5824 44.9787 29.6322 44.4682 30.9343C43.9635 32.2206 43.7917 33.5281 44.6944 34.7033C45.6196 35.9088 46.8947 35.764 48.1796 35.4305C48.4247 35.3668 48.6889 35.3707 48.9294 35.2958C52.4068 34.2122 53.1532 36.2508 52.6885 38.7348C52.1054 41.8515 51.7501 44.962 51.7563 48.1211C51.7582 48.9978 51.2675 49.3312 50.53 49.6178C47.7466 50.6986 44.8612 51.1738 42.0157 51.2088C39.8026 51.1843 37.738 50.9494 35.7181 50.3954C34.1477 49.9645 34.0771 49.796 34.8976 48.3214C35.848 46.6132 37.2259 45.2435 38.5255 43.8136C39.3471 42.9102 40.2219 42.0433 40.7674 40.9326C41.4459 39.5504 41.127 38.6901 39.6602 38.2766C37.7974 37.7514 36.4916 36.5195 35.2413 35.1591C34.4115 34.2565 33.5204 33.4039 32.2903 33.0774C31.1835 32.7839 30.2087 33.235 29.2198 33.6772C28.0048 34.2211 27.4082 33.8573 27.2503 32.5509C27.208 32.1996 27.234 31.8393 27.2293 31.4829C27.2053 29.4703 26.8492 29.2024 25.024 29.8438C24.5937 29.9948 24.1271 30.2817 23.7581 29.8574C23.4171 29.4656 23.6414 29.0009 23.8252 28.5692C24.6523 26.6272 25.8568 26.1202 27.7181 27.0473C28.5285 27.4511 28.6224 26.88 28.7147 26.4153C28.9056 25.4575 29.2202 24.5545 29.669 23.6953C30.8332 21.466 32.8163 20.4846 35.1788 20.0645C37.1584 19.7124 37.6053 18.7352 36.5591 16.9944C35.7762 15.6922 34.6082 14.8035 33.2562 14.1408C32.1879 13.6167 31.6448 13.923 31.5334 15.1266C31.2813 17.8543 30.649 18.1284 28.3765 16.5424C27.0179 15.5944 26.9877 14.8447 28.3035 13.812C28.8226 13.4047 29.3742 13.032 29.9445 12.7001C30.782 12.2121 31.4039 11.6705 31.2654 10.5458C31.1746 9.80928 31.4989 9.18112 32.4001 9.34146C33.2132 9.48549 33.5169 10.0791 33.1814 10.8206C32.9315 11.3715 33.0161 11.6744 33.5418 11.8972C34.1842 12.1698 34.8405 12.7269 35.5326 12.3316C36.014 12.0564 35.7972 11.4069 35.6804 10.92C35.4019 9.7592 34.8006 8.9043 33.5615 8.56499C32.7046 8.3301 31.8802 7.96477 32.1433 6.78726C32.3365 5.92266 34.1357 4.23267 34.7994 4.27033C35.0279 4.28314 35.2413 4.34564 35.2327 4.5747C35.1788 6.10163 36.2565 5.74912 37.1355 5.75183C39.2762 5.75805 39.8736 6.44639 39.4457 8.59643C39.0802 10.4355 39.7626 11.8949 40.9295 13.19C41.5207 13.8465 42.3043 13.9836 42.4498 12.8942C42.6496 11.3925 43.5896 10.7197 44.798 10.1715C45.3515 9.92032 45.9051 9.64389 46.4013 9.2972C47.652 8.42289 47.7164 7.58042 46.7019 6.42037C46.4362 6.11677 46.1615 5.79726 45.9967 5.4362C45.7608 4.92023 45.6425 4.28819 45.959 3.82075C46.3105 3.30207 46.8765 3.67827 47.354 3.78037C50.428 4.43921 53.2215 5.73126 55.7861 7.5315C56.0511 7.71747 56.5135 7.85723 56.337 8.31496C56.2097 8.64613 55.8203 8.57159 55.5293 8.59876C54.0932 8.7327 52.7467 9.15588 51.4843 9.84577C50.6549 10.2996 50.1491 10.9561 50.3527 11.9582C50.485 12.61 50.6375 13.3321 51.3703 13.5379C52.0088 13.7173 52.5403 13.3232 52.9697 12.8635C53.7421 12.0358 54.5459 11.2636 55.7303 11.0804C57.1326 10.8633 57.7452 11.3537 57.6532 12.6776C57.609 13.3108 57.9756 13.3162 58.412 13.315C58.9097 13.3143 59.1421 13.5985 59.1937 14.0686C59.2492 14.5741 58.9256 14.6634 58.5331 14.6762C58.0101 14.6933 57.9182 15.0838 57.7715 15.4818C57.2839 16.8037 55.9145 17.3597 54.7771 16.4908C53.836 15.7714 53.0295 15.9302 52.0915 16.2284C50.7861 16.6438 49.4384 16.954 48.3018 17.7732C47.9332 18.0379 47.5205 18.3213 47.5992 18.8641C47.6768 19.403 48.1458 19.5839 48.5756 19.7132C50.6146 20.3274 52.7963 20.2672 54.8112 21.0491C55.3113 21.2432 55.7124 20.6764 56.1337 20.4108C56.8444 19.9632 57.4003 19.7799 57.6862 20.8996C57.9104 21.7774 58.7317 22.385 58.933 23.321C59.0498 23.8618 59.5882 23.7469 59.9626 23.7003C61.6776 23.4872 62.2518 24.1918 62.3212 25.9311C62.4058 28.0653 62.862 30.1548 64.5968 31.6452C65.8615 28.9392 67.1758 26.3407 68.5436 23.8413C68.3194 22.7107 68.0963 21.5794 67.8128 20.4636C64.4583 7.26712 51.1841 -1.50545 37.8393 0.738163C22.9792 3.23607 13.9419 16.7692 15.4327 30.0608C17.088 44.8153 30.5597 55.3353 44.6665 53.7389C48.3417 53.3227 51.764 52.2267 54.8136 50.5651C55.0696 49.0276 55.3249 47.4902 55.5724 45.9513C55.7396 44.9096 56.2031 43.9915 56.9491 43.2231C59.1871 40.9178 60.8789 38.9145 62.2735 36.9198Z" fill="#296398"/>
<path fill-rule="evenodd" clip-rule="evenodd" d="M52.6362 60.0587C49.0463 60.2683 45.4556 60.4465 41.8583 60.4574C40.9816 60.4601 40.2333 60.1825 39.5451 59.6646C38.9841 59.2422 38.4131 58.8311 37.8304 58.4397C36.7613 57.7211 35.6185 57.5755 34.4139 58.0655C32.8963 58.6832 31.39 59.323 29.9547 60.1239C29.012 60.65 28.036 61.117 26.9909 61.5103C26.9036 60.9345 26.9466 60.4372 27.1402 59.9787C27.5254 59.0667 27.6104 58.1171 27.5782 57.1473C27.5305 55.6992 26.9342 55.2457 25.5167 55.5645C24.2241 55.8553 23.2078 56.6329 22.2538 57.4839C20.1152 59.3921 18.0118 61.3399 15.8755 63.2507C15.564 63.5291 15.1427 64.0039 14.7447 63.719C14.399 63.4713 14.6 62.8975 14.6946 62.4669C15.0321 60.9334 15.6567 59.4992 16.2347 58.0496C17.1211 55.8261 18.0285 53.6109 18.8959 51.3801C19.2854 50.3788 18.8346 49.4668 17.9381 49.4269C17.3981 49.4028 16.8465 49.5313 16.391 49.8768C15.081 50.8703 13.7849 51.8929 12.7115 53.1403C11.2385 54.8524 9.49673 56.2579 7.76889 57.6819C6.90497 58.3939 5.98324 59.0345 4.94747 59.4884C4.16423 59.8312 3.29449 60.1037 2.52251 59.7757C1.6485 59.4041 1.03324 59.6343 0.387726 60.1394V60.9217C1.10967 61.9766 2.20169 62.1264 3.33561 62.0573C5.33307 61.9354 6.91699 60.8588 8.40936 59.6638C10.6268 57.8888 12.7453 55.9958 14.8238 54.0593C15.017 53.8791 15.1869 53.654 15.6001 53.5775C14.9507 54.5252 14.5976 55.4767 14.1915 56.4015C13.7841 57.3305 13.3776 58.2627 13.0331 59.2162C12.459 60.8072 11.8565 62.4067 12.13 64.1518C12.3236 65.3864 13.4389 66.0491 14.6248 65.6625C15.4069 65.4074 16.0586 64.9318 16.6828 64.4147C18.1313 63.2146 19.3921 61.8185 20.7522 60.5261C21.6584 59.665 22.5425 58.7736 23.6007 58.093C24.0023 57.8345 24.5271 57.3193 24.8763 57.5953C25.2064 57.8554 24.9065 58.5166 24.7614 58.9914C24.415 60.1223 24.1943 61.2669 24.4453 62.4529C24.6753 63.5388 25.4395 64.0218 26.5032 63.776C27.1441 63.6281 27.7307 63.356 28.3067 63.0504C30.054 62.1237 31.6651 60.9691 33.441 60.0793C34.6506 59.4732 35.5777 59.7461 36.5049 60.5292C36.8234 60.7983 37.1232 61.0906 37.4514 61.3465C38.1652 61.902 38.9655 62.3062 39.8787 62.3108C44.1751 62.3341 48.4749 62.4518 52.76 61.9859C53.1665 61.9416 53.4284 61.7533 53.5843 61.3763C54.0956 60.1394 53.9823 59.9799 52.6362 60.0587Z" fill="#296398"/>
</svg>
