<?xml version="1.0" encoding="utf-8"?>
<!-- Generator: Adobe Illustrator 23.0.4, SVG Export Plug-In . SVG Version: 6.00 Build 0)  -->
<svg version="1.1" id="Layer_1" xmlns="http://www.w3.org/2000/svg" xmlns:xlink="http://www.w3.org/1999/xlink" x="0px" y="0px"
	 width="28px" height="28px" viewBox="0 0 28 28" style="enable-background:new 0 0 28 28;" xml:space="preserve">
<style type="text/css">
	.st0{fill:#FFFFFF;}
</style>
<path class="st0" d="M14,0C6.3,0,0,6.3,0,14c0,7.7,6.3,14,14,14c7.7,0,14-6.3,14-14C28,6.3,21.7,0,14,0z M22,10.8
	c-0.2,1-0.6,1.8-1.1,2.7c-1.1,2.1-2.5,4-4.2,5.7c-0.6,0.6-1.3,1.1-2,1.6c-0.7,0.5-1.7,0.4-2.4,0c-0.6-0.4-1.1-1.1-1.4-1.7
	c-0.5-0.9-0.7-1.8-1-2.8c-0.3-1.1-0.6-2.1-0.8-3.2c-0.1-0.3-0.1-0.6-0.2-0.9c-0.3-1-1.1-1.2-1.9-0.7c-0.1,0.1-0.2,0.1-0.3,0
	c-0.3-0.2-0.6-0.4-0.9-0.6c0.1-0.1,0.2-0.3,0.4-0.4c1-1.1,2.1-2.1,3.4-2.9c0.2-0.1,0.5-0.3,0.7-0.4c0.2-0.1,0.3-0.1,0.5-0.1
	c1,0.1,1.6,0.6,2,1.5c0.3,0.6,0.4,1.3,0.4,1.9c0.1,1.4,0.2,2.8,0.7,4.1c0.1,0.3,0.3,0.6,0.5,0.9c0.3,0.4,0.6,0.4,1,0.1
	c0.2-0.1,0.3-0.3,0.4-0.4c0.8-1,1.4-2.1,1.7-3.3c0-0.2,0.1-0.4,0.1-0.6c0-0.6-0.3-0.8-0.9-0.7c-0.1,0-0.2,0-0.3,0
	c-0.4,0-0.6-0.3-0.6-0.7c0.1-0.5,0.3-0.9,0.5-1.3c0.6-0.9,1.5-1.4,2.6-1.6c0.6-0.1,1.2-0.2,1.8-0.1c0.9,0.1,1.4,0.6,1.6,1.5
	C22.3,9.2,22.2,10,22,10.8z"/>
</svg>
