<svg xmlns="http://www.w3.org/2000/svg" width="17" height="14" viewBox="0 0 17 14"><g><g><path fill="#fff" d="M15.305 3.41c.007.15.011.299.011.448 0 4.576-3.52 9.855-9.954 9.855A9.993 9.993 0 0 1 0 12.157c.274.029.552.043.834.043a7.05 7.05 0 0 0 4.345-1.478 3.498 3.498 0 0 1-3.268-2.409c.213.043.433.064.659.064.318 0 .627-.043.92-.12C1.89 7.943.685 6.543.685 4.866c0-.014 0-.035.002-.05.47.263 1.01.42 1.584.434A3.441 3.441 0 0 1 1.187.632a9.953 9.953 0 0 0 7.21 3.617 3.466 3.466 0 0 1-.09-.789C8.307 1.55 9.873 0 11.805 0c1.007 0 1.915.42 2.554 1.087A6.884 6.884 0 0 0 16.58.25a3.477 3.477 0 0 1-1.538 1.918 7.05 7.05 0 0 0 2.01-.547 6.949 6.949 0 0 1-1.747 1.79z"/></g></g></svg>