<svg xmlns="http://www.w3.org/2000/svg" width="32" height="32" viewBox="0 0 32 32"><g><g><path fill="#00acee" d="M16.02 0C24.883.033 32.004 7.166 32 16.004 31.998 24.857 24.817 32.028 15.982 32 7.125 31.974 0 24.84 0 16 .001 7.149 7.194-.034 16.02 0zM8.626 18.495c.29.85.757 1.483 1.41 1.982.661.506 1.421.756 2.338.826-1.779 1.335-3.69 1.848-5.805 1.71.112.107.22.178.33.242 2.395 1.359 4.961 1.799 7.668 1.366 5.977-.958 9.256-6.057 9.472-10.766.035-.749.175-1.286.8-1.746.461-.339.797-.85 1.188-1.284l-.063-.04-2.016.55c-.012-.03-.027-.06-.042-.091.735-.534 1.309-1.187 1.576-2.031-.719.258-1.427.508-2.131.77-.26.096-.43.018-.637-.159-1.187-1.02-2.55-1.31-4.025-.79-1.46.516-2.358 1.578-2.616 3.111-.086.507-.014 1.04-.014 1.6-3.36-.232-6.091-1.652-8.3-4.223-.975 2.135-.549 3.89 1.173 5.37l-.05.073-1.666-.467c-.01.916.29 1.739.862 2.467.576.736 1.338 1.197 2.243 1.439l-.015.091z"/></g></g></svg>