<svg xmlns="http://www.w3.org/2000/svg" width="32" height="32" viewBox="0 0 32 32"><defs><linearGradient id="7899a" x1="4.69" x2="27.22" y1="27.31" y2="4.78" gradientUnits="userSpaceOnUse"><stop offset="0" stop-color="#fbd283"/><stop offset=".33" stop-color="#dc4a53"/><stop offset=".67" stop-color="#ab2187"/><stop offset="1" stop-color="#c871e9"/></linearGradient></defs><g><g><path fill="url(#7899a)" d="M25.52 11.18c-.07-.3-.1-.61-.18-.91a5.2 5.2 0 0 0-4.45-3.79h-9.67c-.36.08-.68.11-1 .2A5.18 5.18 0 0 0 6.48 11a1.42 1.42 0 0 1 0 .22v9.56c.07.3.1.61.18.91a5.19 5.19 0 0 0 4.43 3.83h9.73a8.92 8.92 0 0 0 1.14-.25 5.14 5.14 0 0 0 3.56-4.29 1.18 1.18 0 0 1 0-.2zm1.794-6.494A16 16 0 0 1 32 16c0 8.837-7.163 16-16 16S0 24.837 0 16 7.163 0 16 0a16 16 0 0 1 11.314 4.686zM16 19.44a3.44 3.44 0 1 1 0-6.88A3.43 3.43 0 0 1 19.44 16c0 1.9-1.54 3.44-3.44 3.44zm3.67.23a5.19 5.19 0 1 0-7.34-7.34 5.19 5.19 0 0 0 7.34 7.34zm.57-11.44a3.43 3.43 0 0 1 3.56 3.53v8.57A3.43 3.43 0 0 1 21 23.7a3.71 3.71 0 0 1-.7.07h-8.62a3.43 3.43 0 0 1-3.45-3.45v-8.63a3.44 3.44 0 0 1 3.46-3.46z"/></g></g></svg>