<svg xmlns="http://www.w3.org/2000/svg" width="32" height="32" viewBox="0 0 32 32"><g><g><g><g><path fill="#e1332d" d="M15.713 0h.574c.121.068.256.052.386.054.634.011 1.264.078 1.888.183 3.028.509 5.715 1.756 8.005 3.804 3.041 2.722 4.816 6.119 5.288 10.182.066.566.098 1.136.146 1.705v.144c-.021.175-.055.35-.058.526-.015.814-.112 1.62-.27 2.417-.725 3.641-2.474 6.701-5.306 9.101-3.731 3.161-8.062 4.345-12.881 3.637-3.074-.452-5.787-1.761-8.099-3.844-3.011-2.715-4.77-6.094-5.24-10.131C.08 17.211.048 16.641 0 16.072v-.144c.019-.164.053-.328.055-.493.006-.659.071-1.313.179-1.96.566-3.372 2.027-6.297 4.444-8.722C7.176 2.248 10.182.734 13.686.202 14.36.099 15.043.116 15.713 0m.501 15.115c-2.043 0-4.087-.007-6.131.001-2.117.009-3.632 1.526-3.641 3.636-.004.968-.012 1.936.004 2.904.032 1.904 1.593 3.455 3.494 3.459 4.183.009 8.365.009 12.548 0 1.899-.004 3.462-1.557 3.495-3.459.015-.86.006-1.721.003-2.581-.001-.334.024-.67-.041-1.001-.354-1.79-1.739-2.948-3.564-2.957-2.056-.01-4.112-.002-6.167-.002m-3.927-6.137c-.064-.094-.091-.119-.099-.149-.185-.652-.372-1.304-.553-1.957-.258-.939-.256-.933-1.217-.89-.227.011-.257.072-.185.279.25.707.45 1.432.726 2.128.517 1.302.772 2.631.679 4.041-.062.951-.011.948.95.928.214-.004.295-.06.287-.283-.014-.429-.005-.86-.003-1.289.003-.77-.042-1.536.261-2.287.347-.859.609-1.752.908-2.631.302-.889.302-.876-.635-.889-.273-.004-.365.1-.425.34-.216.864-.448 1.723-.694 2.659m5.372 1.671c0-.489.004-.979-.001-1.468-.007-.608-.339-1.073-.905-1.284-.311-.117-.632-.11-.954-.085-.829.062-1.347.587-1.36 1.41a97.454 97.454 0 0 0 0 2.757c.013.811.433 1.337 1.178 1.487.315.063.641.062.958-.021.697-.181 1.072-.647 1.082-1.363.007-.477.001-.955.002-1.433m2.997 2.116c0 .183-.017.28.003.369.099.472.463.134.694.205.134.041.399.13.398-.216-.008-1.647-.003-3.294-.005-4.941-.001-.087.039-.225-.096-.233-.297-.017-.596-.01-.894-.004-.094.002-.096.09-.099.162-.002.083-.001.166-.001.25-.001 1.145.001 2.291-.001 3.437-.001.318-.341.684-.652.67-.409-.017-.323-.347-.325-.592-.006-1.17-.002-2.34-.002-3.509 0-.084.025-.18-.006-.248-.176-.382-.516-.113-.774-.175-.131-.032-.319-.065-.318.198.007 1.504-.014 3.007.015 4.51.012.653.49.932 1.132.734.337-.104.608-.318.931-.617"/></g></g><g><path fill="#e1332d" d="M17.638 18.445c.162-.11.264-.19.375-.253.617-.35 1.346-.037 1.413.665.113 1.179.109 2.366.005 3.545-.06.68-.834.966-1.472.59-.091-.054-.173-.123-.293-.21-.006.229-.091.316-.318.315-.731-.002-.731.01-.731-.707 0-1.89.006-3.778-.007-5.667-.002-.304.089-.381.382-.372.646.019.646.004.646.636zm-.005 3.435c-.016.338.17.454.448.467.306.013.365-.205.364-.458-.003-.632-.001-1.264-.001-1.895-.001-.25.011-.502-.009-.751-.02-.243-.153-.4-.422-.38-.248.017-.388.128-.378.407.015.429.004.858.004 1.287 0 .44.017.883-.006 1.323z"/></g><g><path fill="#e1332d" d="M20 20.583c-.008-.465-.067-.932.005-1.396.121-.787.731-1.225 1.645-1.184.754.034 1.201.493 1.24 1.293.018.382-.002.765.013 1.147.01.215-.057.295-.28.287-.454-.015-.909.002-1.363-.007-.18-.004-.26.04-.249.238.015.31-.007.622.013.93.016.246.112.432.414.437.301.005.392-.168.43-.418.076-.498.08-.475.612-.504.355-.02.447.093.42.44-.07.888-.522 1.343-1.418 1.377-.82.03-1.397-.447-1.476-1.28-.042-.45-.007-.907-.007-1.36m1.45-.649c.293.061.465.02.438-.358-.038-.514-.133-.714-.45-.71-.308.005-.395.188-.429.686-.025.373.128.457.44.382"/></g><g><path fill="#e1332d" d="M14.89 22.575c-.335.273-.593.482-.929.558-.501.11-.885-.134-.893-.645-.023-1.386-.012-2.772-.018-4.16-.001-.146.043-.23.202-.217.024.002.048 0 .072-.001.73-.031.73-.031.73.697 0 .968-.007 1.936.005 2.904.003.198-.122.497.242.53.279.024.569-.293.57-.602.002-.968-.004-1.937.003-2.905.005-.71-.119-.603.625-.63.288-.01.395.06.391.372a195.693 195.693 0 0 0-.001 4.266c.003.292-.094.39-.368.35a.738.738 0 0 0-.215 0c-.328.052-.508-.054-.416-.517"/></g><g><path fill="#e1332d" d="M10.34 20.2c0-.848-.007-1.697.006-2.545.003-.229-.058-.33-.297-.3-.118.014-.24.003-.358.001-.58-.009-.494.076-.5-.487-.004-.505 0-.505.512-.505.873 0 1.745.006 2.617-.004.218-.002.315.034.314.287-.002.71.01.731-.718.7-.363-.015-.454.086-.45.45.022 1.647.004 3.297.017 4.945.002.284-.076.365-.36.36-.782-.012-.782 0-.782-.787z"/></g><g><path fill="#e1332d" d="M16.548 10.651c0 .453.007.907-.002 1.36-.007.391-.162.556-.497.558-.336.003-.477-.157-.478-.563-.002-.918-.002-1.837 0-2.756 0-.355.165-.525.485-.52.322.005.485.171.49.525.008.465.003.93.002 1.396"/></g></g></g></svg>