<svg xmlns="http://www.w3.org/2000/svg" width="138" height="50" viewBox="0 0 138 50"><g><g><g><g><g><path fill="#fff" d="M65.98 35.409V14.63h5.366v20.779z"/></g><g><path fill="#fff" d="M74.03 25.033c0-6.418 4.873-10.746 11.275-10.746a9.61 9.61 0 0 1 9.089 5.541l-4.619 2.213a5.013 5.013 0 0 0-4.47-3.016 5.76 5.76 0 0 0-4.204 1.754 5.73 5.73 0 0 0-1.606 4.254 5.73 5.73 0 0 0 1.602 4.26 5.76 5.76 0 0 0 4.208 1.757 5.021 5.021 0 0 0 4.47-3.025l4.619 2.18a9.724 9.724 0 0 1-9.09 5.574c-6.417 0-11.274-4.36-11.274-10.746z"/></g><g><path fill="#fff" d="M108.123 27.735h-5.265l2.649-7.81zm8.565 7.674L108.89 14.63h-6.78L94.27 35.409h6.09l1.027-2.992h8.217l1.028 2.992z"/></g><g><path fill="#fff" d="M132.436 35.409l-8.81-12.025V35.41h-5.366V14.63h5.522l8.44 11.475V14.63h5.4v20.779z"/></g><g><path fill="#8e1537" d="M49.206 31.295c4.039 8.577 5.338 16.105 3.907 16.925a1.048 1.048 0 0 1-.51.13c-2.196 0-6.736-5.472-10.89-13.106zM30.924 32.68l-7.783 7.738a17.701 17.701 0 0 0 7.783 3.197zM15.992 28.69a17.673 17.673 0 0 0 3.336 7.95l8.004-7.95zm20.33 14.976a17.65 17.65 0 0 0 7.397-2.944 51.701 51.701 0 0 0 3.123 4.37 23.212 23.212 0 0 1-23.994 1.504 23.104 23.104 0 0 1-12.411-20.54v-.935l5.58-1.739h16.69l11.595-11.518a17.784 17.784 0 0 0-21.506.09l-1.15-5.69C30.854.7 42.69 2.203 50.208 9.89a23.054 23.054 0 0 1 2.928 28.577 64.43 64.43 0 0 0-2.63-6.813 17.715 17.715 0 0 0-2.465-15.98L36.273 27.416v16.209zm1.012-15.796l4.108-4.099a34.857 34.857 0 0 1 3.016 2.46s-3.369 6.393-4.445 7.95c-.918-.268-1.816-.6-2.688-.991zM21.777 12.328c-4.626-1.926-8.744-3.287-10.568-3.566L10.872 0l9.615 5.91 1.29 6.385zm-5.736 9.959l-6.434 1.967L0 19.484l7.659-4.41a53.254 53.254 0 0 0 8.415 7.213zM9.5 15.5l-.46-.459c-.263-.311-.551-.623-.822-.943l2.432-4.262h.428l.279.066h.189l.304.073.238.058.337.09.28.074.378.106.328.099.387.123.386.123c.128.033.255.074.378.123l.468.155.288.099c1.767.598 3.903 1.401 6.22 2.352l1.184.492.37.156a129.904 129.904 0 0 1 11.784 5.672l-2.613 2.598H17.907l-.962-.68c-1.874-1.336-3.657-2.713-5.243-4.099-.238-.205-.468-.401-.69-.606l-.378-.353c-.214-.188-.46-.426-.625-.582-.164-.155-.32-.311-.476-.475z"/></g></g></g></g></g></svg>