<svg width="35" height="21" viewBox="0 0 35 21" fill="none" xmlns="http://www.w3.org/2000/svg">
<mask id="mask0" mask-type="alpha" maskUnits="userSpaceOnUse" x="0" y="0" width="35" height="14">
<path fill-rule="evenodd" clip-rule="evenodd" d="M0 0.000366211H34.9999V13.4386H0V0.000366211Z" fill="white"/>
</mask>
<g mask="url(#mask0)">
<path fill-rule="evenodd" clip-rule="evenodd" d="M34.3238 5.85837C28.8938 3.97937 23.4668 2.09037 18.0398 0.201366C17.8938 0.150366 17.7228 0.150366 17.6208 0.000366211H17.2728C17.1698 0.150366 16.9988 0.150366 16.8528 0.201366C11.4378 2.08637 6.02185 3.96837 0.604847 5.84737C0.284847 5.95837 -0.00615295 6.09337 -0.000152953 6.50637C0.00584705 6.89737 0.286847 7.02737 0.589847 7.13137C1.19385 7.33837 1.79285 7.56237 2.40085 7.75737C2.64785 7.83737 2.72285 7.91637 2.58885 8.18937C1.81485 9.75837 1.64685 11.4654 1.57385 13.1914C1.56985 13.2764 1.60085 13.4384 1.61685 13.4384C1.97285 13.4404 2.32885 13.4274 2.68385 13.4024C2.70485 13.4014 2.72785 13.2694 2.73185 13.1964C2.74185 13.0014 2.73585 12.8034 2.74885 12.6084C2.84085 11.2634 3.03185 9.94337 3.63285 8.72137C3.78885 8.40537 3.94385 8.30637 4.30385 8.43337C8.49485 9.90637 12.6948 11.3554 16.8868 12.8224C17.2778 12.9594 17.6298 12.9674 18.0218 12.8304C23.4478 10.9324 28.8778 9.04437 34.3088 7.16437C34.6158 7.05837 34.8538 6.91037 34.9998 6.61037V6.42937C34.8728 6.11237 34.6328 5.96437 34.3238 5.85837Z" fill="#222222"/>
</g>
<path fill-rule="evenodd" clip-rule="evenodd" d="M27.3805 11.377C27.3795 11.2 27.4155 11.016 27.3185 10.825C27.1845 10.867 27.0465 10.908 26.9105 10.955C24.0595 11.944 21.2055 12.925 18.3595 13.933C17.7395 14.153 17.1665 14.159 16.5455 13.939C13.6735 12.919 10.7905 11.932 7.91754 10.918C7.58054 10.799 7.50254 10.868 7.50554 11.228C7.52054 12.736 7.54354 14.246 7.49854 15.753C7.47454 16.58 7.80354 17.13 8.43254 17.556C9.23154 18.097 10.1125 18.432 11.0295 18.66C14.9875 19.646 18.9675 19.663 22.9545 18.871C24.1935 18.626 25.4005 18.257 26.4765 17.53C27.0905 17.115 27.4195 16.578 27.3945 15.767C27.3505 14.305 27.3835 12.84 27.3805 11.377Z" fill="#222222"/>
<path fill-rule="evenodd" clip-rule="evenodd" d="M2.24419 14.6572C1.59419 14.6482 1.07319 15.1732 1.06719 15.8412C1.06119 16.4882 1.55719 17.0222 2.18419 17.0432C2.84019 17.0662 3.35719 16.5592 3.36919 15.8812C3.38219 15.1922 2.89819 14.6662 2.24419 14.6572Z" fill="#222222"/>
<path fill-rule="evenodd" clip-rule="evenodd" d="M2.9791 18.8018C2.9931 18.3608 2.8351 18.2018 2.4001 18.3078C2.1851 18.3598 1.9361 18.3228 1.7151 18.2678C1.5171 18.2188 1.4551 18.2788 1.4301 18.4638C1.3191 19.2788 1.2051 20.0928 1.0791 20.9998C1.5901 20.7838 2.0031 20.6118 2.4151 20.4348C3.0741 20.1518 3.0731 20.1508 3.0191 19.4308C3.0031 19.2208 2.9731 19.0108 2.9791 18.8018Z" fill="#222222"/>
</svg>
