<?xml version="1.0" encoding="utf-8"?>
<!-- Generator: Adobe Illustrator 23.0.4, SVG Export Plug-In . SVG Version: 6.00 Build 0)  -->
<svg version="1.1" id="Layer_1" xmlns="http://www.w3.org/2000/svg" xmlns:xlink="http://www.w3.org/1999/xlink" x="0px" y="0px"
	 width="16.8px" height="14.5px" viewBox="0 0 16.8 14.5" style="enable-background:new 0 0 16.8 14.5;" xml:space="preserve">
<style type="text/css">
	.st0{fill:#FFFFFF;}
</style>
<path class="st0" d="M0,4c0.1-0.1,0.3-0.3,0.4-0.4c1.1-1.1,2.2-2.1,3.4-2.9C4,0.5,4.3,0.4,4.6,0.3c0.2-0.1,0.3-0.1,0.5-0.1
	c1,0.1,1.6,0.6,2,1.5c0.3,0.6,0.4,1.3,0.4,2c0.1,1.4,0.2,2.9,0.7,4.2c0.1,0.3,0.3,0.6,0.5,0.9c0.3,0.4,0.6,0.4,1,0.1
	c0.2-0.1,0.3-0.3,0.5-0.4c0.8-1,1.4-2.1,1.7-3.4c0-0.2,0.1-0.4,0.1-0.6c0-0.6-0.3-0.8-0.9-0.7c-0.1,0-0.2,0-0.3,0
	c-0.4,0-0.7-0.3-0.6-0.7c0.1-0.5,0.3-0.9,0.6-1.4c0.6-0.9,1.5-1.4,2.6-1.7C13.9,0,14.5,0,15.1,0c0.9,0.1,1.4,0.6,1.6,1.5
	c0.2,0.8,0.1,1.6-0.1,2.4c-0.2,1-0.6,1.9-1.1,2.7c-1.2,2.2-2.6,4.1-4.3,5.8c-0.6,0.6-1.3,1.1-2,1.6c-0.7,0.5-1.7,0.4-2.4,0
	c-0.7-0.4-1.1-1.1-1.5-1.8c-0.5-0.9-0.7-1.9-1-2.8C4,8.4,3.7,7.3,3.4,6.2c-0.1-0.3-0.1-0.6-0.2-1c-0.3-1-1.1-1.3-2-0.7
	C1.1,4.6,1,4.6,0.9,4.6C0.6,4.4,0.3,4.2,0,4z"/>
</svg>
