<svg xmlns="http://www.w3.org/2000/svg" width="68" height="68" viewBox="0 0 68 68"><g><g><path fill="#24588d" d="M0 0h68v68H0z"/></g><g><g><g><g><path fill="#fff" d="M17 7v4h1V8h38v46h-3v1h4V7z"/></g><g><path fill="#fff" d="M14 10v4h1v-3h38v46h-3v1h4V10z"/></g><g><path fill="#fff" d="M50 60H12V14h27.6L50 24.4zM40 13H11v48h40V24z"/></g><g><g><path fill="#fff" d="M17 23h22v1H17z"/></g><g><path fill="#fff" d="M17 27h28v1H17z"/></g><g><path fill="#fff" d="M17 51h16v1H17z"/></g><g><path fill="#fff" d="M17 47h28v1H17z"/></g><g><path fill="#fff" d="M17 43h28v1H17z"/></g><g><path fill="#fff" d="M17 39h28v1H17z"/></g><g><path fill="#fff" d="M17 35h28v1H17z"/></g><g><path fill="#fff" d="M17 31h28v1H17z"/></g><g><path fill="#fff" d="M17 19h22v1H17z"/></g></g><g><path fill="#fff" d="M48.6 23H41v-9l-1-1v11h11l-1-1z"/></g></g></g></g></g></svg>