<svg xmlns="http://www.w3.org/2000/svg" width="20" height="20" viewBox="0 0 20 20"><g><g><path fill="#fefefe" d="M10.027 12.089c-.136.021-.193.128-.27.204-2.505 2.504-5.013 5.006-7.509 7.52-.22.222-.337.262-.567.011A24.014 24.014 0 0 0 .18 18.32c-.253-.231-.208-.348.013-.567 2.505-2.489 4.995-4.992 7.5-7.48.22-.219.215-.33-.001-.544C5.179 7.233 2.679 4.723.167 2.224c-.2-.198-.24-.305-.01-.518a28.094 28.094 0 0 0 1.55-1.55c.215-.235.322-.183.518.013 2.498 2.512 5.008 5.012 7.504 7.525.218.22.328.214.543-.002C12.768 5.18 15.278 2.68 17.776.168c.2-.2.306-.24.518-.011a28.102 28.102 0 0 0 1.551 1.55c.234.216.182.323-.014.519-2.512 2.498-5.011 5.008-7.524 7.504-.22.219-.213.33.003.544 2.512 2.497 5.011 5.008 7.523 7.506.2.199.24.306.01.518a28.094 28.094 0 0 0-1.55 1.55c-.215.234-.322.184-.518-.013-2.506-2.52-5.02-5.03-7.533-7.542-.07-.07-.145-.138-.215-.204"/></g></g></svg>