<svg width="48" height="24" viewBox="0 0 48 24" fill="none" xmlns="http://www.w3.org/2000/svg">
<path fill-rule="evenodd" clip-rule="evenodd" d="M12 12C12 12 16 8 16 4C16 1.79 14.21 0 12 0C9.79 0 8 1.79 8 4C8 8 12 12 12 12ZM10.4 4C10.4 3.117 11.117 2.4 12 2.4C12.883 2.4 13.6 3.117 13.6 4C13.6 4.883 12.883 5.6 12 5.6C11.117 5.6 10.4 4.883 10.4 4ZM9 21.0447V10.0882C8.10417 8.60572 7.29765 6.83498 7.06628 5.01894L0 3V21.08L7.69503 23.2786C7.86505 23.3334 8.0529 23.3433 8.24254 23.2959L15.9828 21.3608L24 23.6515V5.57143L16.9815 3.56613C16.9937 3.70911 17 3.85382 17 4C17 6.16466 16.0629 8.32931 15 10.0882V19.5447L9 21.0447ZM7 20.9999L2 19.5707V5.65073L7 7.07994V20.9999ZM17 19.5714L22 20.9997V7.07973L17 5.6514V19.5714Z" fill="white"/>
<path d="M41.7239 10.3125L47.5208 16.1016C47.7161 16.2969 47.7161 16.6172 47.5208 16.8125L46.2239 18.1016C46.0286 18.2969 45.7161 18.2969 45.5208 18.1016L41.3723 13.9531L37.2239 18.1016C37.0286 18.2969 36.7161 18.2969 36.5208 18.1016L35.2239 16.8125C35.0286 16.6172 35.0286 16.2969 35.2239 16.1016L41.0208 10.3125C41.2161 10.1172 41.5286 10.1172 41.7239 10.3125Z" fill="white"/>
</svg>
