<svg xmlns="http://www.w3.org/2000/svg" width="33" height="32" viewBox="0 0 33 32">
    <path fill="#8A1538" fill-rule="evenodd" d="M12.614 25c-.054-.09-.035-.16-.035-.227-.001-1.434.001-2.868-.004-4.302 0-.157.046-.271.153-.388 3.11-3.386 6.215-6.774 9.32-10.163.04-.044.098-.078.107-.151-.083 0-.124.064-.176.103-4.117 3.178-8.234 6.357-12.348 9.538-.13.1-.239.13-.402.084-1.292-.365-2.587-.72-3.882-1.078-.119-.033-.229-.07-.295-.184-.115-.198-.038-.4.21-.528.881-.46 1.764-.918 2.646-1.376 5.275-2.742 10.55-5.484 15.825-8.224.078-.04.149-.105.267-.104-.094.498-.186.988-.28 1.478-.56 2.924-1.122 5.847-1.683 8.77-.244 1.27-.484 2.542-.73 3.812-.079.412-.41.592-.85.47-1.669-.459-3.34-.915-5.007-1.383-.18-.05-.259-.003-.353.139-.78 1.178-1.566 2.35-2.352 3.525-.038.058-.079.115-.131.19m3.411-25C24.878.014 32.051 7.196 32 16.05c-.051 8.863-7.174 15.97-16.063 15.938C6.925 31.955-.015 24.61 0 15.965.016 7.152 7.21-.048 16.025 0"/>
</svg>
