<svg xmlns="http://www.w3.org/2000/svg" width="32" height="32" viewBox="0 0 32 32"><g><g><path fill="#0884c0" d="M15.832 0h.418c.119.063.249.048.376.053 3.475.132 6.615 1.237 9.302 3.435 4.717 3.86 6.681 8.879 5.908 14.913-.395 3.078-1.674 5.823-3.762 8.125-4.113 4.536-9.239 6.268-15.25 5.159-3.563-.658-6.529-2.471-8.902-5.216-2.04-2.358-3.276-5.09-3.728-8.181C.095 17.61.11 16.924 0 16.25v-.418c.019-.16.05-.32.055-.48.024-.908.142-1.805.337-2.69.783-3.557 2.566-6.519 5.344-8.869C8.05 1.836 10.719.648 13.721.2c.702-.105 1.411-.091 2.111-.2m1.743 14.093c0-.379-.013-.76.005-1.139.011-.22-.065-.275-.276-.272-.825.011-1.65.005-2.475.004-.867 0-.855 0-.856.858-.001 3.219-.007 6.438-.024 9.657-.002.288.071.375.364.369a77.242 77.242 0 0 1 2.928.001c.289.005.341-.095.34-.356-.01-1.976-.001-3.951-.007-5.927a1.981 1.981 0 0 1 .573-1.414c.515-.545 1.156-.704 1.879-.547.713.156 1.061.663 1.237 1.32.102.382.135.776.134 1.173 0 1.801.006 3.602-.005 5.404-.002.276.076.352.35.347a77.502 77.502 0 0 1 2.893.001c.306.007.359-.103.357-.378-.012-1.696-.003-3.393-.007-5.09-.002-.673.021-1.346-.081-2.017-.479-3.158-2.947-4.038-5.155-3.528-.916.211-1.591.783-2.174 1.534m-5.637 4.041c0-1.707-.005-3.414.006-5.121.001-.255-.056-.338-.324-.333-.987.016-1.974.014-2.962.001-.24-.003-.314.06-.314.308.008 3.414.008 6.829 0 10.243 0 .251.054.343.326.338a84 84 0 0 1 2.927 0c.276.005.349-.077.347-.35-.011-1.695-.006-3.391-.006-5.086m-1.813-6.962c.961.001 1.671-.444 1.946-1.222.353-.993-.154-2.063-1.134-2.396-1.148-.39-2.376.128-2.712 1.145-.425 1.287.484 2.471 1.9 2.473"/></g></g></svg>