<svg width="102" height="88" viewBox="0 0 102 88" fill="none" xmlns="http://www.w3.org/2000/svg">
<mask id="mask0" mask-type="alpha" maskUnits="userSpaceOnUse" x="19" y="4" width="83" height="84">
<path fill-rule="evenodd" clip-rule="evenodd" d="M19.0669 4.724H102V88.0001H19.0669V4.724Z" fill="white"/>
</mask>
<g mask="url(#mask0)">
<path fill-rule="evenodd" clip-rule="evenodd" d="M55.6759 77.8703C50.5287 77.0695 45.7873 75.0155 41.7676 72.0302L55.6759 58.1744V77.8703ZM29.2352 51.2765H48.7526L34.9037 65.0736C32.0133 61.0725 30.0218 56.3728 29.2352 51.2765ZM60.5337 14.4794C67.5903 14.4794 74.1151 16.8148 79.3865 20.7576L58.5436 41.5221H29.7184L19.1036 44.6429C19.0796 45.2128 19.0669 45.786 19.0669 46.3623C19.0669 69.3212 37.669 88.0001 60.5337 88.0001C69.6099 88.0001 78.0129 85.0545 84.8492 80.0684C83.0163 77.868 81.043 75.2454 78.9762 72.2591C75.0463 75.1031 70.4499 77.07 65.4674 77.8576V48.4195L86.2268 27.7381C89.9882 32.9811 92.2086 39.4152 92.2086 46.3623C92.2086 49.7974 91.6637 53.1066 90.6604 56.2093C92.6161 60.6954 94.2604 64.8862 95.5442 68.6497C99.6301 62.2016 102 54.5545 102 46.3623C102 23.4028 83.398 4.724 60.5337 4.724C52.3307 4.724 44.6811 7.13394 38.2384 11.2782L40.7177 21.5195C46.1472 17.1214 53.0374 14.4794 60.5337 14.4794Z" fill="#FEFEFE"/>
</g>
<mask id="mask1" mask-type="alpha" maskUnits="userSpaceOnUse" x="0" y="26" width="30" height="18">
<path fill-rule="evenodd" clip-rule="evenodd" d="M0 26.6368H29.5141V43.5543H0V26.6368Z" fill="white"/>
</mask>
<g mask="url(#mask1)">
<path fill-rule="evenodd" clip-rule="evenodd" d="M14.4526 26.6906L14.4191 26.6368L-7.62939e-05 34.7234L17.0403 43.5543L29.5142 39.887C22.7396 34.7785 15.9908 29.157 14.4526 26.6906Z" fill="#FEFEFE"/>
</g>
<path fill-rule="evenodd" clip-rule="evenodd" d="M20.3667 16.4858C22.8397 16.5653 30.36 19.0777 39.3632 22.8615L36.3195 10.2862L20.1228 0.00012207L20.3028 16.484L20.3667 16.4858Z" fill="#FEFEFE"/>
<path fill-rule="evenodd" clip-rule="evenodd" d="M32.2441 39.8959H57.8673L62.077 35.7029C46.0027 26.6074 24.4916 18.2449 20.3142 18.1107L15.8389 25.8328C17.1231 27.8918 23.7699 33.6254 32.2441 39.8959Z" fill="#FEFEFE"/>
<path fill-rule="evenodd" clip-rule="evenodd" d="M67.0993 49.093V60.8143C68.5187 61.3988 69.8234 61.8752 71.0497 62.2691L79.5936 47.5258C77.9507 46.044 75.9697 44.4827 73.4673 42.7488L67.0993 49.093Z" fill="#FEFEFE"/>
<path fill-rule="evenodd" clip-rule="evenodd" d="M95.8696 86.1645C99.0199 84.5205 95.8719 72.0151 88.7161 55.8348L74.918 63.0348C84.1932 78.1091 92.7194 87.8085 95.8696 86.1645Z" fill="#FEFEFE"/>
</svg>
