<svg xmlns="http://www.w3.org/2000/svg" width="45" height="56" viewBox="0 0 45 56">
    <path fill="#8A1538" fill-rule="nonzero" d="M29.85 27.166c6.846 0 12.42 5.574 12.42 12.42a12.5 12.5 0 0 1-2.176 7.022l3.386 3.626c.56.6.853 1.38.826 2.204-.03.82-.38 1.58-.98 2.142a3.069 3.069 0 0 1-4.343-.151l-3.49-3.735c-.01-.012-.021-.022-.034-.034a12.389 12.389 0 0 1-5.61 1.351c-6.849 0-12.419-5.575-12.419-12.424 0-6.847 5.57-12.421 12.42-12.421zm-.003 2.078c-5.703 0-10.346 4.643-10.346 10.347 0 5.705 4.643 10.348 10.346 10.348a10.34 10.34 0 0 0 5.428-1.554l1.1-.678.425 1.223c.045.136.119.255.208.353l3.488 3.732c.344.37 1.053.393 1.418.051a1.002 1.002 0 0 0 .05-1.412l-3.49-3.743a1.227 1.227 0 0 0-.29-.193l-1.142-.584.814-.996a10.377 10.377 0 0 0 2.34-6.55c0-5.701-4.644-10.344-10.349-10.344zM37.875 0c1.144 0 2.075.929 2.075 2.073v25.84h-2.075V2.073H15.007v14.452c0 1.143-.93 2.073-2.074 2.073H2.537v30.665h17.828v2.075H2.537a2.08 2.08 0 0 1-2.075-2.075V18.598c0-.8.351-1.85.834-2.489l11.22-14.87c.131-.172.26-.293.392-.392.572-.504 1.38-.847 2.1-.847zm-8.03 30.658c4.927 0 8.933 4.007 8.933 8.93 0 4.927-4.006 8.934-8.932 8.934-4.922 0-8.927-4.006-8.929-8.934 0-4.921 4.007-8.93 8.929-8.93zm0 2.076c-3.78 0-6.855 3.073-6.855 6.853a6.863 6.863 0 0 0 6.856 6.858 6.864 6.864 0 0 0 6.857-6.858c0-3.78-3.077-6.853-6.857-6.853zM12.936 4.13l-7.539 9.99-1.813 2.404h9.352V4.13z"/>
</svg>
