<svg xmlns="http://www.w3.org/2000/svg" width="47" height="40" viewBox="0 0 47 40">
    <path fill="#FFF" d="M40.362 25.399c3.311 6.965 4.376 13.078 3.203 13.744-.128.07-.272.106-.418.106-1.8 0-5.522-4.444-8.926-10.643l6.141-3.207zM25.37 26.523l-6.385 6.28c1.885 1.359 4.075 2.249 6.384 2.594l.001-8.874zm-12.25-3.24c.36 2.34 1.3 4.558 2.738 6.453l6.566-6.453H13.12zM29.8 35.43c2.18-.33 4.255-1.146 6.067-2.389.79 1.225 1.646 2.409 2.561 3.546-5.817 3.998-13.405 4.468-19.683 1.22-6.279-3.247-10.204-9.672-10.182-16.667v-.758l4.577-1.41h13.693l9.513-9.347c-5.229-3.894-12.448-3.864-17.643.073l-.944-4.617C25.312.568 35.023 1.788 41.19 8.026c6.167 6.237 7.162 15.847 2.402 23.187-.613-1.881-1.333-3.727-2.157-5.528 1.475-4.391.722-9.215-2.023-12.966l-9.654 9.527v13.151l.04.034zm.829-12.813l3.37-3.326c.862.62 1.688 1.285 2.475 1.996 0 0-2.765 5.189-3.648 6.452-.752-.217-1.489-.486-2.204-.804l.007-4.318zM17.866 10.006c-3.795-1.564-7.173-2.668-8.67-2.894L8.92 0l7.888 4.797 1.058 5.182v.027zm-4.706 8.082l-5.278 1.597L0 15.813l6.283-3.58c2.089 2.184 4.402 4.146 6.903 5.855h-.026zM7.794 12.58l-.377-.373c-.216-.253-.453-.506-.675-.765l1.996-3.459h.35l.23.053h.155l.249.06.196.047.276.073.229.06.31.086.27.08.634.2c.105.027.209.06.31.1l.384.126.236.08c1.45.485 3.202 1.137 5.104 1.909l.97.399.304.126c3.299 1.373 6.525 2.91 9.667 4.604l-2.144 2.108H14.691l-.789-.551c-1.537-1.084-3-2.203-4.301-3.327-.196-.166-.384-.326-.566-.493l-.31-.285c-.176-.153-.378-.346-.513-.472-.135-.127-.263-.254-.391-.386h-.027z" opacity=".298"/>
</svg>
